<?xml version="1.0" standalone="no"?>
<!DOCTYPE svg PUBLIC "-//W3C//DTD SVG 1.1//EN" "http://www.w3.org/Graphics/SVG/1.1/DTD/svg11.dtd" >
<svg xmlns="http://www.w3.org/2000/svg" xmlns:xlink="http://www.w3.org/1999/xlink" version="1.1">
<metadata>
Created by FontForge 20161116 at Wed Oct 22 09:48:44 2014
 By Jimmy Wärting
Gutcruncher (c) (Neale Davidson). 2011-2014. All Rights Reserved
</metadata>
<defs>
<font id="Gutcruncher" horiz-adv-x="1098" >
  <font-face 
    font-family="Gutcruncher"
    font-weight="400"
    font-stretch="normal"
    units-per-em="2048"
    panose-1="2 0 5 0 0 0 0 0 0 0"
    ascent="1638"
    descent="-410"
    x-height="1594"
    cap-height="1794"
    bbox="-225 -418 2105 2350"
    underline-thickness="150"
    underline-position="-292"
    unicode-range="U+001D-F002"
  />
<missing-glyph horiz-adv-x="1650" 
d="M0 200v1100q0 200 200 200h1100q200 0 200 -200v-1100q0 -200 -200 -200h-1100q-200 0 -200 200zM1475 201v1099q0 175 -175 175h-1100q-174 0 -175 -175v-1100q1 -175 175 -175h1101q174 0 174 176z" />
    <glyph glyph-name=".notdef" horiz-adv-x="1650" 
d="M0 200v1100q0 200 200 200h1100q200 0 200 -200v-1100q0 -200 -200 -200h-1100q-200 0 -200 200zM1475 201v1099q0 175 -175 175h-1100q-174 0 -175 -175v-1100q1 -175 175 -175h1101q174 0 174 176z" />
    <glyph glyph-name=".null" horiz-adv-x="0" 
 />
    <glyph glyph-name=".null" horiz-adv-x="0" 
 />
    <glyph glyph-name="nonmarkingreturn" horiz-adv-x="508" 
 />
    <glyph glyph-name="space" unicode=" " horiz-adv-x="1198" 
 />
    <glyph glyph-name="space" unicode="&#xa0;" horiz-adv-x="1198" 
 />
    <glyph glyph-name="exclam" unicode="!" horiz-adv-x="499" 
d="M4 195q12 53 12 158q0 107 -16 141q44 -17 166 -17q107 0 133 17q-5 -23 -5 -103q0 -64 5 -196q-63 20 -165 20q-87 0 -130 -20zM0 1594q34 -21 139 -21q119 0 160 21q-21 -202 -21 -604q0 -241 21 -296q-6 14 -89 14q-93 0 -177 -9q-26 -3 -33 -5q20 52 20 388
q0 455 -20 512z" />
    <glyph glyph-name="quotedbl" unicode="&#x22;" horiz-adv-x="899" 
d="M146 1314q-102 0 -142 -21q12 57 12 158q0 107 -16 143q44 -19 166 -19q108 0 133 19q-5 -25 -5 -105q0 -86 5 -196q2 -19 6 -69v-5q0 -26 -10 -54q-40 -112 -295 -167q65 69 114 176q32 70 32 140zM545 1314q-102 0 -141 -21q11 57 11 158q0 107 -15 143q37 -19 166 -19
q106 0 133 19q-6 -25 -6 -105q0 -86 6 -196q2 -19 6 -69v-5q0 -26 -10 -54q-41 -112 -295 -167q145 157 145 316z" />
    <glyph glyph-name="numbersign" unicode="#" horiz-adv-x="798" 
d="M360 1078q-3 47 -9 64q45 -15 108 -15t92 15q-3 -24 -6 -57l54 9q-14 -42 -14 -108q0 -64 14 -92q-17 4 -64 8v-116q48 3 64 8q-14 -41 -14 -107q0 -65 14 -92q-19 3 -56 6q2 -12 8 -59q-47 19 -101 19q-55 0 -99 -19q6 19 9 67q-38 1 -116 1q4 -49 8 -68q-47 19 -102 19
q-54 0 -98 -19q3 24 6 61q-20 -3 -58 -8q18 47 18 101t-18 98q39 -4 66 -8q2 38 2 116q-50 -4 -68 -8q18 48 18 102q0 52 -18 98q8 -1 37 -5l22 -4l-7 57q45 -15 108 -15q62 0 92 15q-3 -31 -8 -64h116zM238 908v-128h128v128h-128z" />
    <glyph glyph-name="dollar" unicode="$" horiz-adv-x="1198" 
d="M359 1485l-9 109q31 -21 141 -21q117 0 160 21l-4 -115q32 3 53 10q86 -97 300 -246q-12 -29 -12 -49q0 -17 12 -60q-48 14 -122 14q-99 0 -178 -14q-13 0 -60 37q-2 -37 -2 -119l52 -6q4 -1 10 -1q106 -100 304 -215q-14 -41 -14 -181q0 -81 10 -105
q-201 -133 -300 -246q-24 0 -53 3q9 -91 15 -106q-7 14 -90 14q-92 0 -176 -9q-26 -3 -33 -5q9 18 12 116q-48 -3 -75 -13q-59 67 -202 176q-59 44 -97 70q12 30 12 51q0 16 -12 59q58 -21 132 -21q82 0 167 21q9 0 44 -25q12 -9 34 -24q-1 12 -1 65l-1 135q-56 -4 -76 -11
q-12 31 -139 96q-122 64 -164 68q14 43 14 182q0 81 -10 103q100 69 214 164q51 44 84 82zM371 1178q-49 -24 -65 -40l-6 -44q44 0 73 -20q0 53 -2 104zM638 616q50 38 62 38l-6 52l6 38q-42 0 -64 15q0 -97 2 -143z" />
    <glyph glyph-name="percent" unicode="%" horiz-adv-x="1750" 
d="M470 1113q50 0 130 -8l-10 99l5 -13l5 119q-49 0 -159 -13q-56 4 -116 9l15 -102q-5 -54 -15 -99q43 0 145 8zM1120 513q50 0 130 -8l-10 99l5 -13l5 119q-49 0 -159 -13q-56 4 -116 9l15 -102q-5 -54 -15 -99q43 0 145 8zM884 1361q6 45 6 87q0 70 -16 151
q114 -27 267 -27t233 27q-15 -77 -15 -151t15 -150h-101q-62 -59 -276 -306q39 -1 95 -1q148 0 197 9q104 -141 260 -250q-8 -26 -20 -164l7 -64q0 -41 13 -72q-58 -40 -175 -159q-48 -49 -85 -91q-159 16 -227 16q-73 0 -153 -16q-34 104 -238 281q-10 -61 -10 -131
q0 -81 13 -150q-89 28 -232 28q-138 0 -267 -28q16 80 16 150q0 69 -16 149h99q90 69 266 275q13 15 28 33q-104 9 -156 9q-73 0 -153 -16q-36 109 -259 299q16 10 16 99l-16 101q57 28 183 193q52 68 76 108q35 -9 183 -9t197 9q99 -134 245 -239zM665 607
q-68 -78 -90 -108h75q16 10 16 99zM890 1298q-5 -41 -11 -112l1 -5q78 94 94 117h-84z" />
    <glyph glyph-name="ampersand" unicode="&#x26;" horiz-adv-x="1398" 
d="M607 496l-307 248q8 -77 8 -92q-5 -54 -8 -97q13 0 53 -30.5t48 -30.5q54 8 115 8q53 0 84 -8q4 0 7 2zM300 1158l122 -102q136 0 178 -9q47 47 100 47q-7 60 -8 70l8 70q-9 0 -30 15l-40 30q-20 14 -30 14q-74 -8 -136 -8q-50 0 -63 8q-10 0 -49.5 -29.5t-51.5 -29.5
v-76zM1 1344q100 68 214 164q51 44 85 82q30 -13 136 -13q108 0 264 13q86 -98 300 -246q-10 -24 -10 -139q0 -206 14 -247q-39 -4 -149 -61q-104 -53 -139 -85l118 -100q56 62 66 86q78 -4 168 -4q48 0 132 4q-68 -105 -162 -256l154 -128q-13 -25 -13 -87q0 -84 17 -132
q-98 14 -151 14q-59 0 -65 -14l-150 122q-95 -77 -130 -118q-39 12 -144 12q-64 0 -110 -3l-92 -6q-46 -3 -54 -3q-59 66 -202 175q-59 44 -97 71q10 21 10 137q0 209 -14 248q17 10 110 68l-106 84q22 22 22 192q0 132 -22 170z" />
    <glyph glyph-name="quotesingle" unicode="'" horiz-adv-x="499" 
d="M146 1314q-102 0 -142 -21q12 57 12 158q0 107 -16 143q44 -19 166 -19q108 0 133 19q-5 -25 -5 -105q0 -86 5 -196q2 -19 6 -69v-5q0 -26 -10 -54q-40 -112 -295 -167q65 69 114 176q32 70 32 140z" />
    <glyph glyph-name="parenleft" unicode="(" 
d="M599 494q10 -51 130 -161q95 -88 170 -138q-161 16 -358 16q-202 0 -282 -16q-36 109 -259 299q16 161 16 400q0 240 -16 399q57 28 183 193q52 68 76 108q35 -9 312 -9q279 0 328 9q-109 -95 -233 -213q-51 -49 -67 -88h1q0 -1 -190 -6h-32q-60 0 -79 6q15 -219 15 -473
q0 -229 -15 -326q34 12 147 12q106 0 153 -12z" />
    <glyph glyph-name="parenright" unicode=")" 
d="M299 494q48 12 154 12q114 0 146 -12q-14 90 -14 326q0 268 14 473q-18 -6 -88 -6h-21q-169 3 -191 6q-20 51 -124 146q-49 43 -175 155q49 -9 330 -9q277 0 309 9q66 -109 179 -231q53 -56 81 -70q-14 -135 -14 -399q0 -263 14 -400q-116 -101 -200 -204
q-48 -60 -60 -95q-80 16 -281 16q-199 0 -358 -16q74 49 171 138q120 110 128 161z" />
    <glyph glyph-name="asterisk" unicode="*" horiz-adv-x="798" 
d="M196 810q-20 6 -98 48q-68 36 -98 36q18 48 18 102q0 52 -18 98q91 -80 151 -101q32 -12 65 -13q-4 96 -16 214q69 -14 107 -14q37 0 93 14q-9 -32 -11 -105q-3 -97 -4 -109q44 6 116 43.5t98 70.5q-14 -42 -14 -108q0 -64 14 -92q-41 0 -140 -52l-51 -28q3 -51 131 -219
q-47 14 -87 14t-73 -14q0 19 -28 75.5t-44 56.5q-67 -82 -67 -132q-80 15 -101 15q-19 0 -99 -15q30 35 90 106q65 80 66 109z" />
    <glyph glyph-name="plus" unicode="+" horiz-adv-x="798" 
d="M216 808q-167 -3 -216 -14q18 48 18 102q0 52 -18 98q53 -11 216 -14q-4 96 -16 214q69 -14 107 -14q37 0 93 14q-9 -32 -11 -105q-3 -97 -4 -109q79 0 214 14q-14 -42 -14 -108q0 -64 14 -92q-49 12 -214 14q4 -98 15 -213q-81 15 -101 15q-19 0 -99 -15q9 21 16 213z
" />
    <glyph glyph-name="comma" unicode="," horiz-adv-x="499" 
d="M146 215q-102 0 -142 -20q12 53 12 158q0 107 -16 141q44 -17 166 -17q107 0 133 17q-5 -23 -5 -103q0 -86 5 -196q2 -19 6 -70v-4q0 -26 -10 -54q-41 -112 -295 -167q64 68 114 176q32 69 32 139z" />
    <glyph glyph-name="hyphen" unicode="-" horiz-adv-x="798" 
d="M0 794q18 48 18 102q0 52 -18 98q69 -14 307 -14q236 0 292 14q-14 -42 -14 -108q0 -64 14 -92q-68 16 -300 16q-227 0 -299 -16z" />
    <glyph glyph-name="hyphen" unicode="&#xad;" horiz-adv-x="798" 
d="M0 794q18 48 18 102q0 52 -18 98q69 -14 307 -14q236 0 292 14q-14 -42 -14 -108q0 -64 14 -92q-68 16 -300 16q-227 0 -299 -16z" />
    <glyph glyph-name="period" unicode="." horiz-adv-x="499" 
d="M4 195q12 53 12 158q0 107 -16 141q44 -17 166 -17q107 0 133 17q-5 -23 -5 -103q0 -64 5 -196q-63 20 -165 20q-87 0 -130 -20z" />
    <glyph glyph-name="slash" unicode="/" horiz-adv-x="1398" 
d="M1098 1293q-76 -73 -382 -428l-213 -247q-79 -91 -103 -124h99q-13 -69 -13 -149q0 -81 13 -150q-89 28 -232 28q-138 0 -267 -28q16 80 16 150q0 69 -16 149h99q90 69 266 275q85 101 253 303q157 187 181 221h-100q16 81 16 150q0 70 -16 151q114 -27 267 -27t233 27
q-15 -77 -15 -151t15 -150h-101z" />
    <glyph glyph-name="zero" unicode="0" 
d="M0 494q16 161 16 400q0 240 -16 399q57 28 183 193q52 68 76 108q35 -9 183 -9t197 9q104 -141 260 -250q-8 -26 -11 -313l-2 -213q0 -342 13 -373q-58 -40 -175 -159q-48 -49 -85 -91q-159 16 -227 16q-73 0 -153 -16q-36 109 -259 299zM470 508q50 0 130 -8
q-5 130 -10 400q3 143 5 285l5 119q-49 0 -159 -13q-56 4 -116 9q8 -112 15 -400q-5 -54 -15 -400q43 0 145 8z" />
    <glyph glyph-name="one" unicode="1" horiz-adv-x="699" 
d="M400 1594q-15 -137 -15 -550t15 -550h99q-13 -69 -13 -149q0 -81 13 -150q-80 16 -249 16q-170 0 -250 -16q16 80 16 150q0 69 -16 149h99q11 89 15 263q2 87 2 137q0 258 -17 399h-99q16 81 16 150q0 70 -16 151q114 -27 217 -27t183 27z" />
    <glyph glyph-name="two" unicode="2" horiz-adv-x="1198" 
d="M1 1154q12 45 12 106q0 53 -12 84q100 68 214 164q51 44 85 82q161 -13 265 -13q106 0 135 13q86 -98 300 -246q-10 -24 -10 -139q0 -206 14 -247q-77 0 -234 -103q-59 -39 -70 -61q-14 -12 -108 -12q-86 0 -191 8q-46 -46 -101 -46q8 -77 8 -92q-5 -54 -8 -97
q13 0 53 -30.5t48 -30.5q58 -7 241 -15q92 -4 176 -4q172 0 182 19q0 -12 -10 -93q0 -101 10 -206q-45 26 -196 26q-149 0 -304 -26q-104 28 -223 28q-132 0 -276 -28q10 22 10 219q0 210 -6 334q-3 71 -8 82q54 0 225 149q66 57 78 75q70 -10 170 -10q75 0 130 3
q47 47 100 47l-8 70q2 14 8 70q-9 0 -30 15l-40 30q-20 14 -30 14q-13 -8 -64 -8q-61 0 -135 8q-10 0 -49.5 -29.5t-51.5 -29.5v-80q-85 8 -175 8q-78 0 -124 -8z" />
    <glyph glyph-name="three" unicode="3" horiz-adv-x="1198" 
d="M299 794q10 23 10 89q0 89 -10 161q39 -6 105 -6q123 0 154 4q92 9 141 52q-7 60 -8 70l8 70q-9 0 -30 15l-40 30q-19 13 -30 14q-27 13 -300 13q-11 -16 -11 -51t11 -61q-76 19 -173 19q-94 0 -126 -19q16 70 16 198q0 126 -16 202q102 -19 353 -19q224 0 346 15
q86 -98 300 -246q-10 -24 -10 -139q0 -206 14 -247q-82 -7 -117 -75q36 -53 117 -53q-14 -41 -14 -248q0 -118 10 -137q-201 -134 -300 -246q-128 14 -346 14q-256 0 -353 -18q16 94 16 242q0 112 -16 158q36 -15 148 -15q114 0 151 15v-101q54 -15 151 -15q96 0 149 15
q8 0 70 46q20 15 30 15q-1 39 -5 70q-3 25 -3 27q0 15 8 92q-56 41 -100 46q-36 17 -155 17q-101 0 -145 -13z" />
    <glyph glyph-name="four" unicode="4" horiz-adv-x="1497" 
d="M0 794q0 41 3 80q1 12 3 44v8q0 29 -6 68q22 50 73 115l87 112q38 49 40 72h-101q17 78 17 150q0 73 -17 151q115 -27 269 -27q152 0 231 27q-14 -72 -14 -151t14 -150h-100q-92 -87 -164 -209q-36 -59 -36 -90q70 -14 258 -14q186 0 242 14q6 71 6 160q0 87 -6 139h-100
q16 81 16 150q0 70 -16 151q114 -27 267 -27t233 27q-15 -77 -15 -151t15 -150h-101q-10 -106 -13 -247q-1 -48 -1 -152q0 -259 14 -400h101q-15 -74 -15 -149t15 -150q-80 16 -250 16t-250 -16q16 80 16 150q0 69 -16 149h100q9 105 9 174q0 76 -9 126q-69 16 -399 16
q-328 0 -400 -16z" />
    <glyph glyph-name="five" unicode="5" horiz-adv-x="1198" 
d="M1 635q44 -9 124 -9q79 0 175 9v-80q13 0 53 -30.5t48 -30.5q74 8 135 8q51 0 64 -8q8 0 70 46q20 15 30 15q-1 25 -6 92q-2 25 -2 36q0 34 8 111q-48 0 -100 47q-55 4 -130 4q-100 0 -170 -11q-43 62 -210 178q-67 46 -93 46q14 39 14 347q0 165 -10 189
q123 -29 276 -29q124 0 223 29q146 -27 304 -27q153 0 196 27q-10 -105 -10 -206q2 -82 7 -93q-11 15 -179 19q-166 0 -324 -12q-66 -5 -93 -9q-10 0 -49.5 -29.5t-51.5 -29.5q1 -44 2 -48q-1 -3 -2 -42q55 0 101 -46q105 8 191 8q97 0 108 -12q26 -51 199 -131
q70 -33 105 -33q-14 -38 -14 -316q0 -147 10 -169q-201 -134 -300 -246q-29 12 -135 12q-116 0 -265 -12q-59 66 -202 175q-59 44 -97 71q12 29 12 84q0 61 -12 106z" />
    <glyph glyph-name="six" unicode="6" horiz-adv-x="1198" 
d="M400 494q31 8 84 8q60 0 115 -8q8 0 70 46q20 15 30 15q-1 39 -5 70q-3 25 -3 27q0 15 8 92q-49 0 -100 46q-12 -10 -64 -10q-43 0 -135 10q-46 -46 -101 -46q8 -77 8 -92q-5 -54 -8 -97q13 0 53 -30.5t48 -30.5zM1003 1094q-43 16 -122 16q-88 0 -182 -16l-8 70
q2 14 8 70q-9 0 -30 15l-40 30q-20 14 -30 14q-13 -8 -64 -8q-61 0 -135 8q-10 0 -49.5 -29.5t-51.5 -29.5q0 -12 4 -35.5t4 -25.5v-9q-1 0 -8 -70q58 0 101 -47q33 11 115 11q95 0 184 -11q37 -43 144.5 -120t159.5 -97q-14 -41 -14 -248q0 -118 10 -137
q-201 -134 -300 -246q-159 14 -270 14q-90 0 -130 -14q-59 66 -202 175q-59 44 -97 71q8 27 11 311q1 83 1 214q0 343 -12 374q100 68 214 164q51 44 85 82q161 -13 265 -13q106 0 135 13q86 -98 300 -246q-10 -24 -10 -93q0 -116 14 -157z" />
    <glyph glyph-name="seven" unicode="7" horiz-adv-x="1497" 
d="M1199 1293q-101 -95 -351 -399l-160 -195q-102 -126 -141 -205h101q-15 -68 -15 -149q0 -82 15 -150q-81 16 -250 16q-170 0 -250 -16q16 80 16 150q0 69 -16 149h100q17 24 106 127l236 274q109 127 167 197q138 169 142 201q-131 23 -316 23q-153 0 -284 -23v-99
q-44 9 -125 9q-103 0 -174 -9q16 80 16 200q0 119 -16 200q100 -21 322 -21q189 0 277 21q114 -27 318 -27q202 0 282 27q-15 -77 -15 -151t15 -150z" />
    <glyph glyph-name="eight" unicode="8" horiz-adv-x="1198" 
d="M401 494q31 8 84 8q60 0 115 -8q8 0 70 46q20 15 30 15q-1 39 -5 70q-3 25 -3 27q0 15 8 92q-49 0 -100 46q-12 -10 -64 -10q-43 0 -135 10q-46 -46 -101 -46q8 -77 8 -92q-5 -54 -8 -97q13 0 53 -30.5t48 -30.5zM401 1047q33 11 90 11q62 0 109 -11q47 47 100 47
q-7 60 -8 70q2 4 8 70q-9 0 -30 15l-40 30q-20 14 -30 14q-13 -8 -64 -8q-61 0 -135 8q-10 0 -49.5 -29.5t-51.5 -29.5q0 -12 4 -35.5t4 -34.5q-1 0 -8 -70q58 0 101 -47zM300 199q-59 66 -202 175q-59 44 -97 71q10 21 10 137q0 209 -14 248q81 0 116 53q-30 67 -116 75
q14 43 14 247q0 115 -10 139q100 68 214 164q51 44 85 82q161 -13 265 -13q106 0 135 13q86 -98 300 -246q-10 -24 -10 -139q0 -206 14 -247q-82 -7 -117 -75q36 -53 117 -53q-14 -41 -14 -248q0 -118 10 -137q-201 -134 -300 -246q-159 14 -270 14q-90 0 -130 -14z" />
    <glyph glyph-name="nine" unicode="9" horiz-adv-x="1198" 
d="M401 1047q33 11 90 11q62 0 109 -11q47 47 100 47l-8 70l1 -4q1 -2 7 74q-9 0 -30 15l-40 30q-20 14 -30 14q-13 -8 -64 -8q-61 0 -135 8q-10 0 -49.5 -29.5t-51.5 -29.5q0 -12 4 -35.5t4 -34.5q-1 0 -8 -70q58 0 101 -47zM300 555q13 0 53 -30.5t48 -30.5q31 8 84 8
q60 0 115 -8q8 0 70 46q20 15 30 15q-1 39 -5 70q-3 25 -3 27q0 15 8 92q-49 0 -100 46q-21 -18 -124 -18q-109 0 -176 22q-12 31 -139 96q-122 64 -164 68q14 43 14 247q0 115 -10 139q100 68 214 164q51 44 85 82q161 -13 265 -13q106 0 135 13q86 -98 300 -246
q-12 -28 -12 -326v-48q0 -38 2 -183q1 -98 6 -288q1 -39 4 -54q-201 -134 -300 -246q-159 14 -270 14q-90 0 -130 -14q-59 66 -202 175q-59 44 -97 71q16 70 16 126q0 51 -16 123q8 -13 86 -13q68 0 213 13q-9 -34 -9 -70q0 -37 9 -69z" />
    <glyph glyph-name="colon" unicode=":" horiz-adv-x="499" 
d="M4 694q12 53 12 158q0 108 -16 142q44 -18 166 -18q107 0 133 18q-5 -24 -5 -104q0 -64 5 -196q-63 20 -165 20q-87 0 -130 -20zM4 195q12 53 12 158q0 107 -16 141q44 -17 166 -17q107 0 133 17q-5 -23 -5 -103q0 -64 5 -196q-63 20 -165 20q-87 0 -130 -20z" />
    <glyph glyph-name="semicolon" unicode=";" horiz-adv-x="499" 
d="M146 215q-102 0 -142 -20q12 53 12 158q0 107 -16 141q44 -17 166 -17q107 0 133 17q-5 -23 -5 -103q0 -86 5 -196q2 -19 6 -70v-4q0 -26 -10 -54q-41 -112 -295 -167q64 68 114 176q32 69 32 139zM4 694q12 53 12 158q0 108 -16 142q44 -18 166 -18q107 0 133 18
q-5 -24 -5 -104q0 -64 5 -196q-63 20 -165 20q-87 0 -130 -20z" />
    <glyph glyph-name="semicolon" unicode="&#x37e;" horiz-adv-x="499" 
d="M146 215q-102 0 -142 -20q12 53 12 158q0 107 -16 141q44 -17 166 -17q107 0 133 17q-5 -23 -5 -103q0 -86 5 -196q2 -19 6 -70v-4q0 -26 -10 -54q-41 -112 -295 -167q64 68 114 176q32 69 32 139zM4 694q12 53 12 158q0 108 -16 142q44 -18 166 -18q107 0 133 18
q-5 -24 -5 -104q0 -64 5 -196q-63 20 -165 20q-87 0 -130 -20z" />
    <glyph glyph-name="less" unicode="&#x3c;" horiz-adv-x="798" 
d="M171 847q69 -26 166 -67q181 -88 246 -88q9 0 16 2q-14 -41 -14 -147q0 -65 14 -92q-78 15 -300 115q-188 87 -275 87q-13 0 -24 -2q18 47 18 141v120q0 82 -18 128q9 -2 21 -2q79 0 286 78q237 100 292 114q-14 -42 -14 -148q0 -64 14 -92q-11 2 -24 2q-80 0 -246 -86
q-91 -38 -158 -63z" />
    <glyph glyph-name="equal" unicode="=" horiz-adv-x="798" 
d="M0 595q18 47 18 101t-18 98q69 -14 307 -14q236 0 292 14q-14 -41 -14 -107q0 -65 14 -92q-78 15 -300 15q-216 0 -299 -15zM0 894q18 48 18 102q0 52 -18 98q68 -14 307 -14q237 0 292 14q-14 -42 -14 -108q0 -64 14 -92q-78 16 -300 16q-216 0 -299 -16z" />
    <glyph glyph-name="greater" unicode="&#x3e;" horiz-adv-x="798" 
d="M270 910q-166 86 -246 86q-13 0 -24 -2q14 28 14 92q0 106 -14 148q55 -14 292 -114q207 -78 286 -78q12 0 21 2q-18 -46 -18 -128v-120q0 -94 18 -141q-11 2 -24 2q-87 0 -275 -87q-222 -100 -300 -115q14 27 14 92q0 106 -14 147q7 -2 16 -2q65 0 246 88q97 41 166 67
q-67 25 -158 63z" />
    <glyph glyph-name="question" unicode="?" horiz-adv-x="1198" 
d="M400 694q-8 14 -91 14q-92 0 -176 -9q-27 -3 -34 -5q7 35 7 109q0 38 -7 151l63 23q22 9 41 29q10 11 37 36q36 10 208 10q119 0 151 -5q47 47 100 47l-8 70q2 14 8 70q-9 0 -30 15l-40 30q-20 14 -30 14q-49 15 -313 15q-231 0 -286 -15q16 81 16 150q0 70 -16 151
q102 -19 353 -19q224 0 346 15q86 -98 300 -246q-10 -24 -10 -139q0 -206 14 -247q-120 -47 -253 -111q-51 -25 -51 -53q-49 13 -148 13q-100 0 -151 -13q-9 -22 -9 -50q0 -27 9 -50zM103 195q13 49 13 158q0 108 -17 141q40 -17 166 -17q107 0 135 17q-7 -22 -7 -86v-17
q1 -60 4 -149q1 -24 3 -47q-64 20 -166 20q-88 0 -131 -20z" />
    <glyph glyph-name="at" unicode="@" horiz-adv-x="1198" 
d="M400 790q7 42 7 106q0 244 -7 279l54 -7h57l89 7q0 -94 -1 -128q47 47 100 47l-8 54q2 10 8 86q-9 0 -30 15l-40 30q-20 14 -30 14q-74 -8 -136 -8q-50 0 -63 8q-10 0 -49.5 -29.5t-51.5 -29.5q-7 -152 -7 -384q0 -218 7 -295q13 0 53 -30.5t48 -30.5q54 8 115 8
q53 0 84 -8q8 0 70 46q20 15 30 15q10 31 10 69q0 48 -10 70q146 -13 214 -13q78 0 86 13q-16 -72 -16 -123q0 -56 16 -126q-201 -134 -300 -246q-39 12 -144 12q-64 0 -110 -3l-92 -6q-46 -3 -54 -3q-59 66 -202 175q-59 44 -97 71q8 27 11 311q1 83 1 214q0 343 -12 374
q100 68 214 164q51 44 85 82q30 -13 136 -13q108 0 264 13q86 -98 300 -246q-10 -24 -10 -139q0 -206 14 -247q-56 -3 -229 -105q-65 -38 -75 -59q0 1 -164 4h-31q-72 0 -104 -8z" />
    <glyph glyph-name="A" unicode="A" horiz-adv-x="1517" 
d="M840 1026l-10 103q0 21 4 56q5 43 6 56q-11 0 -59.5 36.5t-60.5 36.5q-28 -8 -64 -8q-29 0 -56 8q-9 0 -57.5 -36.5t-61.5 -36.5q2 -35 8 -84q2 -19 2 -26q-1 -20 -10 -105q33 18 159 18q140 0 200 -18zM730 291l-74 110l-66 -96q-8 -50 -8 -116q0 -72 8 -128l68 -102
l76 114q4 30 4 90q0 69 -8 128zM680 437l124 -82h36q11 149 11 206q0 95 -11 153q-87 18 -180 18q-92 0 -179 -18q-11 -97 -11 -193q0 -97 11 -166h27l124 82l-38 57l62 -41l64 43zM481 1669h359l204 134l-136 -202q88 -81 214 -171l205 137l-127 -194q-10 -20 -13 -265
q-2 -140 -2 -272l244 -48l-244 -48q9 -366 15 -385l40 4l211 141l-142 -211q-8 -54 -8 -122q0 -58 4 -88l136 -204l-194 130q-71 9 -200 9q-133 0 -243 -11l-120 -82l38 -58l-62 42l-68 -43l42 61l-124 82q-76 9 -206 9q-141 0 -223 -9l-204 -136l136 204q6 51 6 100
q0 68 -8 122l-136 203l210 -143h36q10 30 14 381l-244 48l244 48q0 509 -14 541l-130 196l212 -141q147 119 202 167l-135 197z" />
    <glyph glyph-name="B" unicode="B" horiz-adv-x="1398" 
d="M481 1314q8 -89 8 -158q0 -68 -8 -142q47 12 123 12q65 0 116 -8q53 56 120 56q-2 31 -10 75q0 2 1 2l3 25q4 39 6 65q-11 0 -60 36t-60 37h-12q-25 0 -62 -3q-54 -5 -74 -5h-13q-56 0 -78 8zM481 355q17 6 91 6q95 0 148 -6q9 0 57 36t63 36q-3 43 -9 76l-1 2q2 0 10 90
q-69 0 -120 55q-38 -5 -116 -5q-84 0 -123 9q8 -71 8 -139q0 -70 -8 -160zM1343 828l-202 68q-59 -39 -75 -76q25 -42 86 -57zM1194 1348q-6 -48 -6 -143q0 -108 8 -227l175 -148l-169 -153l-6 10q-8 -125 -8 -229q0 -132 12 -163l129 -203l-204 149q-131 -95 -215 -174
l135 -204l-205 136q-110 13 -334 17l-48 -242l-47 242q-175 0 -322 -9l-212 -142l136 204q6 51 6 102q0 65 -8 116l-136 204l204 -136h42q10 101 18 393l-244 48l244 49q0 291 -18 469h-44l-200 -134l134 199q8 80 8 120q0 49 -6 95l-142 211l212 -142q120 -10 356 -10
l48 238l47 -238l277 12l213 142l-131 -192q101 -92 248 -200l202 137z" />
    <glyph glyph-name="C" unicode="C" horiz-adv-x="1278" 
d="M1003 462l211 143l-131 -198q0 -111 -4 -112l133 -199l-211 141q-95 -91 -168 -170l135 -204l-201 132q-189 19 -272 19q-88 0 -184 -19l-191 -122l141 212q-68 87 -193 208l-204 -136l136 198q10 100 18 385l-235 48l235 48q0 271 -16 461l-136 204l202 -134
q88 90 191 228l-137 206l189 -127q51 -11 217 -11t239 11l192 129l-134 -198q80 -89 189 -181l204 135l-139 -209v-82l137 -206l-212 141q-53 6 -99 6q-63 0 -114 -8l-212 -141l142 212l-2 42h-8q-22 0 -100 -3l-121 -5q-24 -1 -44 -1q-61 0 -86 9q6 -92 12 -285
q2 -82 3 -184l238 -49l-238 -48q0 -290 -15 -393q44 14 179 14q128 0 180 -14v38l-138 206l202 -135q60 -6 112 -6q35 0 108 4z" />
    <glyph glyph-name="D" unicode="D" horiz-adv-x="1378" 
d="M820 427q-11 131 -11 367q0 293 11 447q-12 0 -60.5 36.5t-59.5 36.5h-10q-23 0 -58 -3q-48 -5 -67 -5h-12q-50 0 -72 8q8 -89 8 -488q0 -397 -8 -471q17 6 84 6q86 0 135 -6q8 0 57 36t63 36zM1179 295l126 -199l-212 141q-143 -116 -206 -170l135 -200l-202 132
q-103 10 -306 17l-48 -238l-48 238q-237 0 -339 -11l-198 -132l132 198q6 48 6 98q0 64 -8 118l-136 204l204 -136h42q10 98 18 377l-244 48l244 48q0 302 -18 486h-38l-206 -138l134 199q8 80 8 124q0 47 -6 98l-134 199l200 -133q112 -10 336 -10l47 238l48 -238
q216 8 301 16l200 134l-131 -196q69 -65 221 -177l206 137l-128 -194q-3 -12 -8 -154q-3 -87 -6 -387l236 -48l-236 -48q0 -410 14 -441z" />
    <glyph glyph-name="E" unicode="E" horiz-adv-x="1278" 
d="M998 1200q-58 6 -132 9h-6q-17 0 -72 -4l-212 -141l142 212l2 -2v40h-239q-19 -89 -19 -180t19 -180q89 -18 249 -18q82 0 146 6l211 141l-141 -211q-2 -25 -2 -78l145 -208l-205 139q-67 7 -168 7q-148 0 -235 -18q-19 -87 -19 -180q0 -92 19 -179h239v40l-142 212
l212 -143q51 -8 110 -8q45 0 88 6l212 143l-130 -194q-9 -72 -9 -164q0 -89 11 -191l130 -196l-212 141q-182 13 -480 13l-48 -236l-47 236q-35 0 -81 -1l-93 -2q-110 -2 -162 -8l-206 -138l142 212q4 26 4 80q0 73 -10 126l-142 211l210 -139h44q10 100 18 385l-244 48
l244 48q0 297 -18 478h-32l-212 -143l132 198q8 59 8 132q0 64 -4 96l-134 199l198 -131q85 -6 248 -8q28 -1 90 -2l47 236l48 -236q300 0 490 12l203 136l-133 -200q-9 -77 -9 -175q0 -74 7 -158l141 -212z" />
    <glyph glyph-name="F" unicode="F" horiz-adv-x="1278" 
d="M872 727q-71 5 -154 5q-150 0 -237 -18q-19 -87 -19 -180q0 -92 19 -179h44l199 134l-134 -200q-8 -54 -8 -118q0 -56 4 -84l136 -203l-193 130q-94 15 -200 15q-123 0 -240 -17l-212 -143l136 204q6 51 6 100q0 68 -8 122l-128 192l198 -132h40q10 101 18 393l-236 48
l236 49q0 291 -18 469h-36l-208 -147l134 200q8 56 8 126q0 62 -8 112l-128 191l198 -131q89 -6 332 -10l45 232l46 -232q278 0 488 10l211 142l-133 -200q-9 -112 -9 -168q0 -53 9 -169l135 -204l-211 141q-28 4 -82 4q-74 0 -124 -10l-212 -141l142 212l2 -2v44h-239
q-19 -89 -19 -180t19 -180q89 -18 251 -18q82 0 146 6l206 138l-142 -212q0 -61 2 -90l134 -200z" />
    <glyph glyph-name="G" unicode="G" horiz-adv-x="1398" 
d="M515 369q142 0 204 -14v120h-46zM307 1665q30 -8 145 -8q201 0 309 14l202 136l-136 -204q76 -83 181 -173l206 137l-135 -204v-93l141 -212l-212 142q-63 7 -127 7q-47 0 -102 -6l-224 -121l160 198l4 36h-8q-22 0 -100 -3l-121 -5q-24 -1 -44 -1q-61 0 -86 9
q15 -224 15 -570q0 -288 -15 -389q35 11 130 14l120 179q7 48 7 110q0 49 -6 101l-134 199l212 -142q118 -15 230 -15q106 0 200 15l203 136l-138 -206q-2 -30 -2 -62v-22q2 -86 9 -137l129 -194l-211 142l2 2h-32q4 -78 4 -132q0 -47 -4 -48l137 -199l-212 141
q-79 -71 -169 -168l137 -206l-201 136q-144 17 -258 17q-89 0 -202 -21l-191 -130l141 212q-59 87 -185 206l-212 -142l142 212q6 55 9 190l2 107q0 32 1 102l-239 49l239 47q0 301 -18 466l-130 203l212 -142q108 127 170 210l-142 211z" />
    <glyph glyph-name="H" unicode="H" horiz-adv-x="1637" 
d="M920 355h40q11 149 11 206q0 95 -11 153q-87 18 -240 18q-152 0 -239 -18q-11 -97 -11 -193q0 -97 11 -166h33l200 134zM960 1314l-40 4l-192 -149l121 219q13 51 13 95q0 28 -6 94l-140 188l-130 -180q0 -10 -8 -79q-4 -35 -4 -43q0 -25 10 -81l116 -213l-186 143l-33 2
q-11 -73 -11 -192q0 -99 11 -168q89 -18 249 -18q157 0 230 18q7 78 7 192q0 112 -7 168zM1356 1314h-36q-19 -167 -19 -458l240 -48l-240 -47q4 -185 10 -300q3 -53 9 -106h31l212 141l-134 -200q-8 -58 -8 -127q0 -62 4 -92l135 -202l-193 130q-83 9 -234 9
q-135 0 -213 -9l-200 -157l133 227q7 42 7 90q0 46 -9 118l-135 192l-126 -177q-8 -74 -8 -115q0 -38 8 -118l126 -194l-200 134q-82 9 -231 9q-134 0 -208 -9l-204 -136l142 212q2 26 2 82q0 74 -4 112l-142 212l198 -132h52q10 102 18 397l-236 49l236 47q0 301 -18 466
h-40l-212 -143l142 213q6 65 6 197l-142 211l200 -133q130 -20 248 -20q105 0 197 16l196 130l190 -126q117 -20 259 -20q88 0 178 10l212 142l-126 -190q-8 -47 -8 -110q0 -58 10 -132l129 -194z" />
    <glyph glyph-name="I" unicode="I" horiz-adv-x="798" 
d="M89 1314l-212 -143l134 200q8 54 8 120q0 63 -8 110l-128 191l202 -135q114 -18 238 -18q111 0 189 14l212 141l-136 -202q-6 -48 -6 -97q0 -40 8 -124l136 -202l-212 143l2 2h-35q-19 -178 -19 -473l240 -49l-240 -48q3 -248 19 -389h42l205 137l-138 -205
q-1 -20 -6 -89q-1 -12 -2 -41q-1 -11 -1 -24q0 -25 3 -54l142 -212l-206 138q-82 9 -233 9q-136 0 -212 -9l-198 -132l136 204q6 48 6 94q0 65 -8 116l-136 204l204 -136h42q10 101 18 389l-244 48l244 49q0 295 -18 473h-32z" />
    <glyph glyph-name="J" unicode="J" horiz-adv-x="1398" 
d="M1080 295l125 -208l-211 142q-90 -87 -160 -162l135 -204l-201 132q-189 19 -272 19q-79 0 -173 -17l-202 -135l141 211q-52 78 -181 214l-212 -142l138 204q13 113 14 122l-3 6q-4 6 -9 25l-142 212l204 -136q39 -4 62 -4q66 0 150 12l206 139l-137 -204l-4 -42
q0 -26 5 -62q4 -26 8 -62q44 14 179 14q128 0 180 -14q-8 87 -8 377l-238 48l238 48q0 49 1 227q1 101 7 259h-36l-212 -143l139 206q7 48 7 110q0 64 -7 114l-128 191l201 -135q117 -18 245 -18q116 0 194 14l212 141l-147 -204q-7 -45 -7 -95q0 -49 9 -124l135 -202
l-211 143l2 2h-36q-14 -38 -14 -482l239 -48l-239 -48q0 -407 14 -441z" />
    <glyph glyph-name="K" unicode="K" horiz-adv-x="1637" 
d="M716 485l194 -130h50q-19 43 -165 184q-133 128 -195 175h-119q-21 -103 -21 -199q0 -99 21 -160h31zM481 1314q-17 -62 -17 -180t17 -180h119q103 75 266 249q69 75 94 111h-40l-212 -143l141 213q7 65 7 197l-140 192l-128 -176q-13 -89 -14 -109v-18q0 -26 10 -84
l116 -208l-186 138q-14 0 -33 -2zM712 -140l-200 145q-87 9 -235 9q-117 0 -192 -7l-212 -142l142 212q4 30 4 86q0 66 -8 120l-136 204l198 -132h48q10 100 18 385l-244 48l244 48q0 297 -18 478h-40l-212 -143l142 213q8 54 8 115q0 33 -4 88l-136 202l194 -130
q111 -18 227 -18q114 0 212 16l206 134l196 -132q127 -20 238 -20q113 0 204 18l211 142l-142 -212q-2 -28 -2 -86q0 -63 6 -130l136 -202l-212 143l3 2h-36q-183 -115 -398 -316q-107 -100 -144 -164q72 -128 368 -358q114 -89 174 -121h43l200 134l-134 -200
q-8 -54 -8 -122q0 -58 4 -88l135 -204l-211 143q-80 11 -184 11q-125 0 -245 -17zM712 -125l137 206l4 -4q7 42 7 92q0 46 -9 114l-139 179l-122 -166q-8 -49 -8 -113q0 -68 8 -124z" />
    <glyph glyph-name="L" unicode="L" horiz-adv-x="1278" 
d="M462 752q2 -133 19 -397h239v38l-138 206l200 -135q54 -8 120 -8q50 0 102 6l199 135l-133 -202q-9 -107 -9 -160t9 -160l135 -204l-194 130q-187 13 -518 13q-267 0 -414 -11l-206 -138l142 212q4 30 4 90q0 70 -8 126l-132 198l204 -136h38q10 101 18 393l-244 48
l244 49q0 291 -18 469h-36l-212 -143l138 206q8 80 8 122q0 46 -6 95l-134 198l200 -133q111 -20 248 -20q111 0 189 14l204 138l-134 -199q-4 -29 -4 -84q0 -73 10 -126l142 -213l-211 143l2 2h-44q-19 -175 -19 -466l236 -47z" />
    <glyph glyph-name="M" unicode="M" horiz-adv-x="1637" 
d="M1301 848l240 -47l-240 -49q2 -133 19 -397h41l206 137l-138 -205q-8 -51 -8 -116q0 -49 6 -98l133 -202l-211 143q-92 15 -197 15q-115 0 -242 -19l-166 -135l105 210l4 -4q7 42 7 90q0 47 -9 116l-107 207l178 -137l38 -2q7 59 7 311q0 259 -7 336q-69 -29 -188 -212
l-50 -250l-50 250q-121 207 -191 212q-11 -70 -11 -294q0 -281 11 -353h27l212 141l-130 -191q-8 -55 -8 -126q0 -52 6 -104l134 -200l-212 143q-77 11 -175 11q-128 0 -254 -22l-212 -142l142 212q8 46 8 104q0 61 -8 112l-132 198l204 -136h38q10 101 18 389l-236 48
l236 49q0 295 -18 473h-36l-212 -143l138 206q8 48 8 110q0 64 -8 114l-128 191l194 -129q66 -8 166 -8q98 0 191 10l198 134l-136 -204q39 -122 147 -290q47 -75 77 -111q106 150 132 190q82 127 104 201l-142 211l197 -131q91 -10 187 -10q81 0 153 6l212 142l-134 -200
q-8 -53 -8 -118q0 -53 6 -103l142 -213l-211 143l2 2h-40q-19 -175 -19 -466z" />
    <glyph glyph-name="N" unicode="N" horiz-adv-x="1637" 
d="M710 1186l116 -216q76 -135 134 -207q20 55 20 322q0 152 -7 225q-19 16 -61 19zM708 1190l138 206q10 105 10 185l-142 211l194 -129q79 -8 215 -8q152 0 240 8l204 136l-142 -212q-4 -55 -4 -84q0 -68 10 -121l142 -213l-212 143l2 2h-43q-19 -175 -19 -466l236 -47
l-236 -49q2 -133 19 -397h41l206 137l-138 -205q-2 -27 -8 -122q-1 -10 -1 -21q0 -23 3 -52l142 -213l-204 137q-62 11 -136 11q-100 0 -218 -24l-211 -141l137 205q-168 430 -338 767q-84 167 -114 168q-11 -70 -11 -294q0 -281 11 -353h46l205 137l-142 -211
q-8 -51 -8 -116q0 -54 4 -82l136 -204l-199 135q-94 15 -202 15q-120 0 -250 -19l-202 -137l142 212q8 43 8 96q0 49 -6 98l-142 212l204 -136h46q10 98 18 381l-239 48l239 48q0 311 -18 482h-40l-212 -143l142 213q8 50 8 109q0 61 -8 108l-128 191l194 -129q66 -8 164 -8
q97 0 187 10l-4 4l212 142l-134 -200q51 -134 206 -421z" />
    <glyph glyph-name="O" unicode="O" horiz-adv-x="1278" 
d="M719 355q-10 120 -10 431q0 388 10 528h-8q-22 0 -100 -3l-121 -5q-24 -1 -44 -1q-61 0 -86 9q15 -224 15 -570q0 -288 -15 -389q44 14 179 14q128 0 180 -14zM773 1q-142 15 -247 15q-104 0 -192 -17l-206 -137l141 211q-55 78 -199 218l-202 -134l132 198
q10 101 18 389l-243 48l243 49q0 295 -18 473l-130 191l200 -134q93 92 195 234l-135 204l211 -142q40 -4 168 -4q197 0 258 11l199 133l-137 -206q90 -94 187 -180l206 138l-141 -211q-16 -187 -16 -496l239 -47l-239 -49q0 -427 14 -461l122 -203l-204 135l-60 -56
q-21 -21 -102 -96l141 -212z" />
    <glyph glyph-name="P" unicode="P" horiz-adv-x="1398" 
d="M481 1314q8 -89 8 -158q0 -68 -8 -142q47 12 123 12q65 0 116 -8q53 56 120 56q-2 31 -8 65q0 8 -1 12l3 25q4 39 6 65q-11 0 -60 36t-60 37h-12q-25 0 -62 -3q-54 -5 -74 -5h-13q-56 0 -78 8zM550 1655q187 3 290 14l204 138l-138 -204q77 -71 214 -173l211 141
l-131 -198q-15 -29 -15 -168q0 -145 15 -275l133 -200l-211 142q-83 -29 -231 -100l135 -201l-206 148q-52 10 -156 10q-124 0 -183 -15q5 -42 5 -88q0 -15 -1 -31q-4 -122 -4 -240h42l205 137l-138 -205q-8 -54 -8 -120q0 -58 4 -88l136 -204l-212 143q-77 11 -179 11
q-136 0 -250 -19l-204 -137l136 204q6 48 6 99q0 46 -6 95l-142 212l191 -128h59q10 102 18 397l-244 49l244 47q0 301 -18 466h-120q18 88 18 179q0 67 -8 118l-124 185l202 -133q153 -10 365 -10l48 238z" />
    <glyph glyph-name="Q" unicode="Q" horiz-adv-x="1398" 
d="M6 1318l-136 203l212 -142q111 130 174 213l-138 204l193 -122q39 -11 222 -11q164 0 228 8l202 136l-136 -204q37 -40 176 -173l211 141l-135 -198q-10 -29 -14 -528l239 -49l-239 -48v-181l67 -50l202 135l-141 -211q-11 -89 -11 -310l138 -203l-357 269l-58 -59
l-70 -71l137 -204l-201 136q-144 17 -258 17q-106 0 -193 -19l-196 -132l141 212q-63 86 -195 214l-206 -138l136 202q10 101 18 393l-239 48l239 49q0 355 -12 473zM360 355q44 14 179 14q128 0 180 -14q0 21 -2 38l-233 214q13 93 13 211q0 72 -2 104l66 66
q53 -48 148 -130q3 334 10 456h-8q-22 0 -100 -3l-121 -5q-24 -1 -44 -1q-61 0 -86 9q12 -25 17 -266q2 -87 2 -228q0 -413 -19 -465z" />
    <glyph glyph-name="R" unicode="R" horiz-adv-x="1517" 
d="M481 1314q8 -89 8 -158q0 -68 -8 -142q47 12 123 12q65 0 116 -8q53 56 120 56q-2 31 -10 72q0 5 1 5l3 25q4 39 6 65q-11 0 -60 36t-60 37h-12q-25 0 -62 -3q-54 -5 -74 -5h-13q-56 0 -78 8zM1331 824l-196 66q-51 -31 -69 -70q25 -42 86 -57zM680 437l124 -82h36
q11 149 11 206q0 95 -11 153q-87 18 -180 18q-92 0 -179 -18q-11 -97 -11 -193q0 -97 11 -166h27l124 82l-38 57l62 -41l64 43zM525 5q-83 9 -232 9q-136 0 -212 -9l-204 -136l136 204q6 48 6 94q0 65 -8 116l-136 204l198 -132h48q13 128 19 383l-249 50l249 50
q-2 311 -19 476h-120q18 88 18 175q0 66 -8 116l-128 191l200 -133q68 -6 194 -9q45 -1 134 -1l47 238l48 -238q192 3 334 16l196 134l-132 -198q66 -61 214 -171l205 137l-129 -194q-11 -16 -11 -126q0 -129 13 -283l167 -142l-169 -149q-9 -114 -9 -175q0 -118 15 -147h47
l200 134l-142 -212q-4 -64 -4 -94q0 -55 6 -110l131 -194l-189 126q-79 9 -221 9q-210 0 -308 -19q18 89 18 178q0 64 -8 118l-74 110l-66 -96q-8 -76 -8 -118q0 -40 8 -120l128 -192z" />
    <glyph glyph-name="S" unicode="S" horiz-adv-x="1398" 
d="M898 966q110 -85 229 -159l212 141l-141 -212q-13 -112 -13 -269q0 -138 15 -172l121 -199l-207 137q-127 -94 -202 -162l133 -200l-199 134q18 0 18 1t-126 6q-174 6 -196 6q-133 0 -181 -19l-204 -126l132 198q-85 73 -204 168l-212 -141l128 197q12 46 14 127v21
q0 31 -2 59l-134 200l188 -126q30 -5 92 -5q69 0 145 11l200 135l-135 -204q0 -17 -3 -43l-5 -43q14 0 62 -36t58 -36q36 8 99 8q73 0 140 -8q9 0 57 36t63 36q-1 12 -6 59q-4 37 -4 48v9q1 0 10 111q-52 50 -120 56q-78 19 -216 19q-88 0 -128 -10l-211 -143l130 194
q-94 63 -216 113l-206 -139l128 192q14 98 14 265q0 145 -14 172l-130 200l212 -141q137 103 221 179l-135 202l211 -142q54 0 158 -8t154 -8h14q100 0 134 14l204 130l-134 -200q95 -88 217 -173l200 133l-131 -196q-13 -43 -13 -116q0 -45 5 -91l137 -206l-205 137h-140z
M754 1024l86 128v89q-11 0 -59.5 36.5t-60.5 36.5q-16 -8 -78 -8q-24 0 -161 8q-11 0 -58 -36q-48 -37 -62 -37l6 -58q0 -4 2 -12.5t2 -12.5q-1 -2 -5 -33q-2 -13 -5 -51q66 0 120 -56q40 12 135 12q77 0 138 -6z" />
    <glyph glyph-name="T" unicode="T" horiz-adv-x="1637" 
d="M768 1637q196 2 585 24l207 138l-131 -198q-8 -66 -8 -163q0 -109 8 -178l6 6l142 -212l-212 142l4 4q-44 3 -120 3q-114 0 -169 -9v120h-182q-18 -92 -18 -456l249 -50l-249 -49q10 -360 18 -404h44l206 137l-143 -211q-7 -80 -7 -118q0 -46 6 -92l137 -204l-206 138
q-103 9 -203 9q-126 0 -228 -11l-211 -141l135 203q8 51 8 114q0 58 -8 104l-141 211l209 -139h42q13 61 18 410l-241 47l241 48q0 370 -18 454h-177v-120q-62 13 -154 13h-39l-36 -2q-11 -1 -51 -4l-212 -141l142 212q8 66 8 164t-8 161l-136 204l206 -138q137 -14 309 -14
q178 0 284 16l44 222z" />
    <glyph glyph-name="U" unicode="U" horiz-adv-x="1517" 
d="M590 1377l70 -103l70 105q0 7 2 39l3 49q0 10 1 38q1 12 1 26q0 26 -3 56l-74 110l-74 -112q-2 -28 -2 -82q0 -63 6 -126zM800 1310l-114 -76l40 -60l-64 44l-74 -51l46 69l-118 78h-35q15 -224 15 -570q0 -288 -15 -389q44 14 179 14q128 0 180 -14q-10 120 -10 431
q0 388 10 528zM893 1q-141 15 -244 15q-100 0 -189 -17l-207 -137l141 211q-80 105 -205 220l-204 -136l136 198q10 98 18 381l-236 48l236 48q0 311 -18 482h-44l-212 -143l146 208q8 80 8 120q0 49 -6 95l-134 198l200 -133q130 -20 246 -20q103 0 195 16l116 76l-38 58
l62 -42l64 44l-40 -60l108 -72q130 -20 248 -20q106 0 200 16l203 136l-138 -206q-4 -55 -4 -84q0 -70 10 -119l142 -213l-211 143l1 2h-43q-15 -42 -15 -473l236 -49l-236 -48l1 -216q0 -73 6 -239l133 -197l-205 137q-55 -52 -164 -154l141 -212z" />
    <glyph glyph-name="V" unicode="V" horiz-adv-x="1637" 
d="M525 1314h-44q10 -67 105 -295q51 -121 138 -305l84 197q69 158 86 203q61 152 66 200h-46l-186 -145l121 219q9 47 9 109q0 53 -7 100l-133 199l211 -141q119 -16 233 -16q112 0 194 14l-5 4l212 142l-136 -202q-4 -30 -4 -89q0 -70 8 -126l142 -213l-212 143l2 2h-43
q-389 -730 -422 -959h46l-4 4l212 141l-143 -211q-9 -67 -9 -124q0 -45 5 -94l136 -204l-206 138q-82 9 -231 9q-135 0 -211 -9l-204 -136l141 212q6 45 6 92q0 61 -8 112l-137 206l203 -136h44q-13 138 -271 655q-122 246 -146 304h-40l-212 -143l142 213q8 50 8 109
q0 61 -8 108l-128 191l202 -135q115 -16 225 -16q102 0 183 12l211 141l-112 -167q-10 -76 -10 -138q0 -54 6 -112l116 -212z" />
    <glyph glyph-name="W" unicode="W" horiz-adv-x="1497" 
d="M728 1182l-212 132h-35q-11 -73 -11 -354q0 -225 11 -294q71 5 191 212l50 249l50 -249q113 -180 188 -212q7 78 7 336q0 256 -7 312h-42l-182 -128l113 196q9 84 9 115q0 51 -7 93l-127 201l202 -136q121 -16 236 -16q112 0 194 14l-5 4l212 142l-136 -202
q-4 -32 -4 -96q0 -74 8 -136l134 -200l-205 149h-40q-19 -176 -19 -482l240 -48l-240 -48q4 -235 19 -381h31l212 141l-134 -200q-1 -20 -6 -90q-1 -12 -2 -41q-1 -11 -1 -24q0 -25 3 -54l142 -212l-194 130q-74 9 -192 9q-91 0 -155 -7l-213 -142l143 212q-27 101 -158 288
q-65 92 -76 110q-153 -187 -224 -398l138 -206l-193 130q-85 13 -204 13q-88 0 -152 -7l-212 -142l142 212q4 32 4 94q0 71 -8 130l-128 190l204 -136h34q10 100 18 385l-239 48l239 48q0 297 -18 478h-28l-212 -143l128 192q3 39 8 140v18q0 28 -2 66l-136 202l194 -130
q130 -20 248 -20q107 0 199 16l184 130l-118 -200q-2 -28 -2 -84q0 -63 6 -130z" />
    <glyph glyph-name="X" unicode="X" horiz-adv-x="1637" 
d="M720 483l198 -128h42q-75 100 -177 247q-41 59 -63 112q-75 -140 -239 -359h46zM514 1312l-33 2q88 -120 126 -177q68 -99 113 -183q30 70 155 243l85 117h-50l-186 -140l125 210q9 52 9 115q0 42 -5 88l-133 174l-134 -178q-2 -27 -8 -80q-4 -34 -4 -40q0 -25 10 -81
l112 -208zM720 -100l133 181q5 28 5 86q0 68 -9 120l-125 167l-134 -173q-8 -51 -8 -114q0 -50 6 -102zM716 -127l-210 141q-91 15 -194 15q-116 0 -227 -17l-212 -143l142 212q4 30 4 88q0 68 -8 122l-136 203l210 -139h36q193 172 299 298q73 88 118 181q-76 162 -263 339
q-67 64 -154 141h-36l-212 -143l138 206q8 80 8 122q0 46 -6 95l-134 198l200 -133q111 -20 248 -20q111 0 189 14l202 136l194 -130q114 -20 253 -20q116 0 195 14l211 141l-142 -211l-4 4q-2 -31 -2 -59v-18q3 -98 8 -133l142 -212l-206 149h-47q-176 -170 -304 -319
q-78 -92 -118 -161q104 -181 422 -479h36l211 141l-138 -205q-8 -56 -8 -124q0 -58 4 -88l135 -204l-211 143q-80 11 -184 11q-124 0 -241 -17z" />
    <glyph glyph-name="Y" unicode="Y" horiz-adv-x="1637" 
d="M851 1594l-127 163l-136 -165q-4 -31 -4 -93q0 -70 8 -126l124 -183l133 183q9 95 9 124q0 52 -7 97zM920 1314l-204 -140l-183 140h-52q88 -120 126 -177q68 -99 113 -183q30 70 155 243l85 117h-40zM1009 305q-9 -73 -9 -129q0 -52 5 -101l136 -204l-199 134
q-78 9 -212 9q-150 0 -234 -9l-203 -136l137 206q6 45 6 94q0 62 -8 116l-137 206l203 -136h44q18 71 18 229q0 106 -8 177l-242 47l223 44q-65 126 -195 263q-82 85 -213 199h-36l-212 -143l138 206q6 68 6 204l-142 211l200 -133q114 -20 248 -20q111 0 189 14l216 124
l190 -118q111 -20 247 -20q112 0 191 14l202 138l-131 -197q-6 -48 -6 -99q0 -57 6 -113l142 -213l-211 143l2 2h-40q-130 -119 -288 -302q-82 -94 -122 -158l231 -46l-250 -49q-11 -88 -11 -175q0 -124 18 -229l29 4l212 141z" />
    <glyph glyph-name="Z" unicode="Z" horiz-adv-x="1637" 
d="M1360 12q-97 15 -267 15q-200 0 -325 -22l-46 -227l-46 229q-110 22 -292 22q-160 0 -309 -19l-198 -133l136 204q6 45 6 92q0 63 -8 114l-136 204l204 -136h42q105 79 472 492q352 397 367 467q-38 26 -266 26q-230 0 -333 -26v-42l137 -206l-200 134q-79 7 -219 7
l-202 -135l134 200q8 103 8 173q0 72 -6 136l-142 211l191 -127q133 -14 322 -14q199 0 300 16l42 211l43 -219q83 -16 246 -16q196 0 334 16l198 132l-118 -176q-8 -54 -8 -116q0 -70 8 -126l136 -204l-212 143l3 2h-36q-131 -115 -444 -470l-210 -238q-131 -154 -185 -251
q294 -17 452 -17q147 0 147 17v38l-138 206l197 -132q85 -13 212 -13l212 143l-134 -200q-8 -96 -8 -162q0 -64 8 -164l128 -192z" />
    <glyph glyph-name="bracketleft" unicode="[" 
d="M400 494h199v101q69 -15 150 -15t150 15q-14 -69 -14 -200q0 -132 14 -200q-163 16 -487 16q-329 0 -412 -16q16 80 16 150q0 69 -16 149h99q11 89 15 263q2 87 2 137q0 258 -17 399h-99q16 81 16 150q0 70 -16 151q68 -15 412 -15q351 0 487 15q-14 -70 -14 -200
q0 -132 14 -200q-81 15 -150 15t-150 -15v99h-199q-15 -68 -15 -399t15 -400z" />
    <glyph glyph-name="backslash" unicode="\" horiz-adv-x="1398" 
d="M799 494q-32 41 -156 187l-221 258q-74 87 -158 183q-100 116 -165 171h-99q16 81 16 150q0 70 -16 151q114 -27 267 -27t232 27q-13 -72 -13 -151t13 -150h-99q53 -92 335 -417q287 -330 363 -382h101q-15 -74 -15 -149t15 -150q-92 28 -233 28q-138 0 -267 -28
q16 80 16 150q0 69 -16 149h100z" />
    <glyph glyph-name="bracketright" unicode="]" 
d="M499 494q16 80 16 400q0 319 -16 399h-200v-99q-80 15 -149 15q-70 0 -150 -15q16 80 16 200q0 119 -16 200q136 -15 488 -15q342 0 411 15q-14 -70 -14 -151t14 -150h-100q-10 -106 -13 -247q-1 -48 -1 -152q0 -259 14 -400h100q-14 -68 -14 -149q0 -82 14 -150
q-83 16 -411 16q-325 0 -488 -16q16 80 16 200q0 119 -16 200q68 -15 150 -15q81 0 149 15v-101h200z" />
    <glyph glyph-name="asciicircum" unicode="^" horiz-adv-x="600" 
d="M1 1788v13q0 28 3 68q5 57 5 81v11q0 48 -8 79l90 47q126 68 158 113q97 -88 251 -160q-13 -35 -13 -109q0 -87 13 -151q-111 137 -251 180q-104 -35 -248 -172z" />
    <glyph glyph-name="underscore" unicode="_" horiz-adv-x="798" 
d="M0 -5q17 47 18 52q-3 10 -18 49q89 -17 408 -17q322 0 391 17q-14 -42 -14 -59q0 -14 14 -42q-74 15 -399 15t-400 -15z" />
    <glyph glyph-name="grave" unicode="`" horiz-adv-x="500" 
d="M155 2066q0 -159 145 -316q-253 54 -295 167q-8 22 -8 59q0 26 4 69q-1 9 -1 21q0 30 4 76q5 63 5 99v14q0 60 -8 91q25 -19 134 -19q128 0 165 19q-15 -36 -15 -143q0 -101 11 -158q-39 21 -141 21z" />
    <glyph glyph-name="a" unicode="a" horiz-adv-x="1298" 
d="M699 1590q86 -98 300 -246q-12 -30 -12 -354q0 -451 12 -496h99q-14 -69 -14 -149q0 -81 14 -150q-80 16 -250 16q-168 0 -249 -16q16 77 16 150q0 72 -16 149h100q10 105 10 174q0 76 -10 126q-77 16 -150 16q-72 0 -149 -16q-9 -66 -9 -161q0 -92 9 -139h99
q-13 -69 -13 -149q0 -81 13 -150q-80 16 -249 16q-170 0 -250 -16q16 80 16 150q0 69 -16 149h99q13 37 13 496q0 330 -13 354q96 65 216 166q56 46 85 80h299zM699 1054q-8 77 -8 86q0 5 3 27q1 5 5 67q-9 0 -30 15l-40 30q-20 14 -30 14q-24 -8 -52 -8q-27 0 -48 8
q-9 0 -48.5 -29.5t-50.5 -29.5q2 -27 6 -70l2 -24q0 -5 -8 -86q24 14 130 14q120 0 169 -14z" />
    <glyph glyph-name="b" unicode="b" horiz-adv-x="1198" 
d="M400 1293q6 -83 6 -131t-6 -118q33 10 103 10q66 0 96 -7q47 47 100 47q-4 50 -5 60v4q2 0 5 76q-9 0 -30 15l-40 30q-20 14 -26 14h-3q0 -1 -123 -6h-21q-39 0 -56 6zM1003 830q-14 -41 -14 -248q0 -118 10 -137q-201 -134 -300 -246q-128 14 -346 14q-256 0 -353 -18
q16 80 16 150q0 69 -16 149h99q11 89 15 263q2 87 2 137q0 258 -17 399h-99q16 81 16 150q0 70 -16 151q102 -19 353 -19q224 0 346 15q86 -98 300 -246q-10 -24 -10 -139q0 -206 14 -247q-82 -7 -117 -75q36 -53 117 -53zM400 494q17 6 63 6h14q102 -2 122 -6q8 0 70 46
q20 15 30 15q-2 29 -4 59v19q1 10 4 61q-49 0 -100 46q-65 -6 -96 -6q-57 0 -103 10q6 -68 6 -118q0 -47 -6 -132z" />
    <glyph glyph-name="c" unicode="c" 
d="M899 595q4 -66 4 -110q0 -38 -4 -40q-58 -40 -175 -159q-48 -49 -85 -91q-159 16 -227 16q-73 0 -153 -16q-36 109 -259 299q16 161 16 400q0 240 -16 399q57 28 183 193q52 68 76 108q35 -9 183 -9t197 9q104 -141 260 -250v-150q-79 13 -148 13q-57 0 -152 -13l1 99h-8
q-9 -1 -182 -6h-32q-60 0 -79 6q15 -219 15 -473q0 -229 -15 -326q34 12 147 12q106 0 153 -12v101q75 -17 136 -17q50 0 164 17z" />
    <glyph glyph-name="d" unicode="d" 
d="M899 1344q-8 -26 -11 -313l-2 -213q0 -342 13 -373q-199 -133 -300 -246q-126 14 -304 14q-199 0 -295 -18q16 80 16 150q0 69 -16 149h99q11 89 15 263q2 87 2 137q0 258 -17 399h-99q16 81 16 150q0 70 -16 151q93 -19 295 -19q182 0 304 15q88 -98 300 -246zM599 555
q-8 77 -8 299q0 239 8 380q-8 0 -29 15l-40 30q-21 14 -31 14h-5q-8 0 -22 -2q-20 -4 -28 -4q-5 -1 -11 -1q-16 0 -33 7q6 -95 6 -407q0 -310 -6 -392q15 6 44 6q40 -4 55 -6q8 0 48 30.5t52 30.5z" />
    <glyph glyph-name="e" unicode="e" 
d="M0 195q16 80 16 150q0 69 -16 149h99q11 89 15 263q2 87 2 137q0 258 -17 399h-99q16 81 16 150q0 70 -16 151q68 -15 412 -15q351 0 487 15q-14 -70 -14 -200q0 -132 14 -200q-81 15 -150 15t-150 -15v99h-199q-15 -68 -15 -149q0 -82 15 -150q69 -14 208 -14
q135 0 191 14q-14 -42 -14 -108q0 -64 14 -92q-77 16 -200 16q-122 0 -199 -16q-15 -68 -15 -149q0 -82 15 -151h199v101q69 -15 150 -15t150 15q-14 -69 -14 -200q0 -132 14 -200q-163 16 -487 16q-329 0 -412 -16z" />
    <glyph glyph-name="f" unicode="f" 
d="M0 195q16 80 16 150q0 69 -16 149h99q11 89 15 263q2 87 2 137q0 258 -17 399h-99q16 81 16 150q0 70 -16 151q68 -15 412 -15q351 0 487 15q-14 -70 -14 -200q0 -132 14 -200q-81 15 -150 15t-150 -15v99h-199q-15 -68 -15 -149q0 -82 15 -150q69 -14 208 -14
q135 0 191 14q-14 -42 -14 -108q0 -64 14 -92q-77 16 -200 16q-122 0 -199 -16q-15 -68 -15 -149q0 -82 15 -151h99q-13 -69 -13 -149q0 -81 13 -150q-89 28 -232 28q-138 0 -267 -28z" />
    <glyph glyph-name="g" unicode="g" horiz-adv-x="1198" 
d="M899 1194q-79 13 -148 13q-57 0 -152 -13l1 99h-10q5 -1 -180 -6h-32q-60 0 -79 6q15 -219 15 -473q0 -229 -15 -326q34 12 147 12q106 0 153 -12v101h-100q16 80 16 149q0 70 -16 150q114 -26 268 -26q153 0 232 26q-14 -69 -14 -150q0 -80 14 -149h-100q4 -66 4 -110
q0 -38 -4 -40q-58 -40 -175 -159q-48 -49 -85 -91q-159 16 -227 16q-73 0 -153 -16q-36 109 -259 299q16 161 16 400q0 240 -16 399q57 28 183 193q52 68 76 108q35 -9 183 -9t197 9q104 -141 260 -250v-150z" />
    <glyph glyph-name="h" unicode="h" horiz-adv-x="1497" 
d="M799 794q-77 16 -200 16q-122 0 -199 -16q-9 -66 -9 -161q0 -92 9 -139h99q-13 -69 -13 -149q0 -81 13 -150q-80 16 -249 16q-170 0 -250 -16q16 80 16 150q0 69 -16 149h99q11 89 15 263q2 87 2 137q0 258 -17 399h-99q16 81 16 150q0 70 -16 151q114 -27 267 -27
t232 27q-13 -72 -13 -151t13 -150h-99q-9 -90 -9 -164q0 -88 9 -135q69 -14 208 -14q135 0 191 14q6 71 6 160q0 87 -6 139h-100q16 81 16 150q0 70 -16 151q114 -27 267 -27t233 27q-15 -77 -15 -151t15 -150h-101q-10 -106 -13 -247q-1 -48 -1 -152q0 -259 14 -400h101
q-15 -74 -15 -149t15 -150q-80 16 -250 16t-250 -16q16 80 16 150q0 69 -16 149h100q9 105 9 174q0 76 -9 126z" />
    <glyph glyph-name="i" unicode="i" horiz-adv-x="699" 
d="M499 494q-13 -69 -13 -149q0 -81 13 -150q-80 16 -249 16q-170 0 -250 -16q16 80 16 150q0 69 -16 149h99q11 89 15 263q2 87 2 137q0 258 -17 399h-99q16 81 16 150q0 70 -16 151q114 -27 267 -27t232 27q-13 -72 -13 -151t13 -150h-99q-15 -135 -15 -399
q0 -263 15 -400h99z" />
    <glyph glyph-name="j" unicode="j" horiz-adv-x="1198" 
d="M0 694q38 -15 106 -15q32 0 96.5 7.5t96.5 7.5l-9 -95q0 -21 4 -53q4 -40 5 -52q34 12 147 12q106 0 153 -12q-8 80 -8 272v81l1 138q0 51 2 114l5 194h-100q16 81 16 150q0 70 -16 151q114 -27 268 -27q153 0 232 27q-14 -72 -14 -151t14 -150h-100q-4 -19 -8 -156
q-2 -54 -3 -162l-2 -177q0 -318 13 -353q-58 -40 -175 -159q-48 -49 -85 -91q-159 16 -227 16q-73 0 -153 -16q-36 109 -259 299q3 32 16 101q-6 0 -16 99z" />
    <glyph glyph-name="k" unicode="k" horiz-adv-x="1398" 
d="M499 794h-99q-17 -83 -17 -168t17 -132h99q-13 -69 -13 -149q0 -81 13 -150q-80 16 -249 16q-170 0 -250 -16q16 80 16 150q0 69 -16 149h99q11 89 15 263q2 87 2 137q0 258 -17 399h-99q16 81 16 150q0 70 -16 151q114 -27 267 -27t232 27q-13 -72 -13 -151t13 -150h-99
q-15 -55 -15 -151q0 -94 15 -148h99q65 46 161 142t139 157h-100q16 81 16 150q0 70 -16 151q114 -27 267 -27t233 27q-15 -77 -15 -151t15 -150h-101q-153 -96 -331 -262q-89 -83 -119 -137q44 -79 205 -217q150 -130 245 -183h101q-15 -74 -15 -149t15 -150
q-92 28 -233 28q-138 0 -267 -28q16 80 16 150q0 69 -16 149h100q-18 38 -138 156q-109 106 -162 144z" />
    <glyph glyph-name="l" unicode="l" 
d="M0 1594q114 -27 267 -27t232 27q-13 -72 -13 -151t13 -150h-99q-15 -135 -15 -399q0 -263 15 -400h199v101q69 -15 150 -15t150 15q-14 -69 -14 -200q0 -132 14 -200q-163 16 -487 16q-329 0 -412 -16q16 80 16 150q0 69 -16 149h99q11 89 15 263q2 87 2 137
q0 258 -17 399h-99q16 81 16 150q0 70 -16 151z" />
    <glyph glyph-name="m" unicode="m" horiz-adv-x="1497" 
d="M599 1194l88 128q112 165 112 272q68 -15 200 -15q131 0 200 15q-15 -77 -15 -151t15 -150h-101q-10 -106 -13 -247q-1 -48 -1 -152q0 -259 14 -400h101q-15 -74 -15 -149t15 -150q-92 28 -233 28q-138 0 -267 -28q16 80 16 150q0 69 -16 149h100q6 65 6 262
q0 206 -6 278q-41 -18 -97 -90q-23 -30 -51 -71l-52 -79q-55 92 -87 137q-70 100 -112 103q-9 -47 -9 -240q0 -210 9 -300h99q-13 -69 -13 -149q0 -81 13 -150q-89 28 -232 28q-138 0 -267 -28q16 80 16 150q0 69 -16 149h99q11 89 15 263q2 87 2 137q0 258 -17 399h-99
q16 81 16 150q0 70 -16 151q68 -15 200 -15q131 0 200 15q0 -67 76 -208q64 -120 123 -192z" />
    <glyph glyph-name="n" unicode="n" horiz-adv-x="1398" 
d="M699 1293q16 45 16 156q0 113 -16 145q69 -15 250 -15t250 15q-15 -77 -15 -151t15 -150h-101q-10 -106 -13 -247q-1 -48 -1 -152q0 -259 14 -400h101q-15 -74 -15 -149t15 -150q-91 28 -183 28q-89 0 -217 -28q-71 228 -286 662q-87 176 -113 177q-9 -47 -9 -240
q0 -210 9 -300h99q-13 -69 -13 -149q0 -81 13 -150q-89 28 -232 28q-138 0 -267 -28q16 80 16 150q0 69 -16 149h99q11 89 15 263q2 87 2 137q0 258 -17 399h-99q16 81 16 150q0 70 -16 151q68 -15 200 -15q131 0 200 15q25 -118 275 -557q96 -171 124 -203q18 59 18 270
q0 137 -7 185q-23 19 -63 19q-34 0 -48 -15z" />
    <glyph glyph-name="o" unicode="o" 
d="M0 494q16 161 16 400q0 240 -16 399q57 28 183 193q52 68 76 108q35 -9 183 -9t197 9q104 -141 260 -250q-8 -26 -11 -313l-2 -213q0 -342 13 -373q-58 -40 -175 -159q-48 -49 -85 -91q-159 16 -227 16q-73 0 -153 -16q-36 109 -259 299zM470 508q50 0 130 -8
q-5 130 -10 400q3 143 5 285l5 119q-49 0 -159 -13q-56 4 -116 9q8 -112 15 -400q-5 -54 -15 -400q43 0 145 8z" />
    <glyph glyph-name="p" unicode="p" horiz-adv-x="1198" 
d="M699 794q-49 13 -148 13q-100 0 -151 -13q4 -29 4 -98q0 -34 -2 -101t-2 -101h99q-13 -69 -13 -149q0 -81 13 -150q-89 28 -232 28q-138 0 -267 -28q16 80 16 150q0 69 -16 149h99q11 89 15 263q2 87 2 137q0 258 -17 399h-99q16 81 16 150q0 70 -16 151q102 -19 353 -19
q224 0 346 15q86 -98 300 -246q-10 -24 -10 -139q0 -206 14 -247q-120 -47 -253 -111q-51 -25 -51 -53zM400 1293q6 -83 6 -131t-6 -118q33 10 103 10q66 0 96 -7q47 47 100 47l-8 64q2 10 8 76q-9 0 -30 15l-40 30q-20 14 -29 14q0 -1 -123 -6h-21q-39 0 -56 6z" />
    <glyph glyph-name="q" unicode="q" horiz-adv-x="1198" 
d="M803 363q-92 -89 -164 -168q-159 16 -227 16q-73 0 -153 -16q-36 109 -259 299q16 161 16 400q0 240 -16 399q57 28 183 193q52 68 76 108q35 -9 183 -9t197 9q104 -141 260 -250q-11 -33 -12 -374l-1 -300q93 -67 113 -75q-14 -71 -14 -200q0 -131 14 -200
q-22 26 -196 168zM591 914q4 317 10 376l-1 3q0 -1 -190 -6h-32q-60 0 -79 6q15 -219 15 -473q0 -229 -15 -326q34 12 147 12q106 0 153 -12q0 19 -2 33q-69 53 -197 167q10 35 10 138q0 123 -8 234l-2 28q25 -39 191 -180z" />
    <glyph glyph-name="r" unicode="r" horiz-adv-x="1298" 
d="M400 1293q6 -83 6 -131t-6 -118q33 10 103 10q66 0 96 -7q47 47 100 47q-7 62 -8 70q2 9 8 70q-9 0 -30 15l-40 30q-20 14 -26 14h-3q0 -1 -123 -6h-21q-39 0 -56 6zM999 494h99q-14 -69 -14 -149q0 -81 14 -150q-80 16 -250 16q-168 0 -249 -16q16 77 16 150
q0 72 -16 149h100q10 105 10 174q0 76 -10 126q-77 16 -150 16q-72 0 -149 -16q-9 -66 -9 -161q0 -92 9 -139h99q-13 -69 -13 -149q0 -81 13 -150q-80 16 -249 16q-170 0 -250 -16q16 80 16 150q0 69 -16 149h99q11 89 15 263q2 87 2 137q0 258 -17 399h-99q16 81 16 150
q0 70 -16 151q102 -19 353 -19q224 0 346 15q86 -98 300 -246q-10 -24 -10 -139q0 -206 14 -247q-82 -7 -117 -75q36 -53 117 -53q-14 -41 -14 -216q0 -96 10 -120z" />
    <glyph glyph-name="s" unicode="s" horiz-adv-x="1198" 
d="M1000 1094q-48 14 -122 14q-99 0 -178 -14v140q-9 0 -30 15l-40 30q-20 14 -30 14q-13 -8 -64 -8q-61 0 -135 8q-10 0 -49.5 -29.5t-51.5 -29.5q0 -12 4 -35.5t4 -25.5v-9q-1 0 -8 -70q58 0 101 -47q40 11 107 11q82 0 192 -13q106 -100 304 -215q-14 -41 -14 -248
q0 -118 10 -137q-201 -134 -300 -246q-159 14 -270 14q-90 0 -130 -14q-59 66 -202 175q-59 44 -97 71q12 29 12 108q0 97 -12 141q60 -22 132 -22q92 0 167 22q7 -61 8 -66v-4q0 -5 -2.5 -15.5t-2.5 -15.5q-1 -15 -3 -38q13 0 53 -30.5t48 -30.5q31 8 84 8q60 0 115 -8
q8 0 70 46q20 15 30 15q-1 39 -5 70q-3 25 -3 27q0 15 8 92q-49 0 -100 46q-59 15 -184 15q-83 0 -116 -11q-12 31 -139 96q-122 64 -164 68q14 43 14 247q0 115 -10 139q100 68 214 164q51 44 85 82q161 -13 265 -13q106 0 135 13q86 -98 300 -246q-12 -30 -12 -108
q0 -100 12 -142z" />
    <glyph glyph-name="t" unicode="t" horiz-adv-x="1398" 
d="M1199 1194q-78 7 -155 7q-90 0 -145 -7v99h-152q-14 -78 -14 -341q0 -154 8 -351q4 -92 6 -107h100q-14 -69 -14 -149q0 -81 14 -150q-80 16 -250 16q-169 0 -250 -16q17 77 17 150q0 72 -17 149h101q11 60 14 240q1 55 1 152q0 327 -15 407h-149v-99q-44 9 -125 9
q-103 0 -174 -9q16 80 16 200q0 119 -16 200q100 -21 322 -21q189 0 277 21q101 -21 296 -21q240 0 304 21q-15 -77 -15 -200q0 -125 15 -200z" />
    <glyph glyph-name="u" unicode="u" horiz-adv-x="1298" 
d="M99 1293h-99q16 81 16 150q0 70 -16 151q114 -27 267 -27t232 27q-13 -72 -13 -151t13 -150h-99q14 -205 14 -473q0 -235 -14 -326q32 12 145 12q105 0 154 -12q-8 80 -8 272v81l1 138q0 51 2 114l5 194h-100q16 78 16 150q0 73 -16 151q114 -27 268 -27q152 0 231 27
q-14 -72 -14 -151t14 -150h-99q-12 -40 -12 -495q0 -324 12 -353q-60 -40 -179 -163q-53 -55 -81 -87q-161 16 -228 16q-71 0 -151 -16q-34 107 -261 299q11 89 15 263q2 87 2 137q0 258 -17 399z" />
    <glyph glyph-name="v" unicode="v" horiz-adv-x="1497" 
d="M603 794q85 197 160 382q31 78 36 117h-100q16 81 16 150q0 70 -16 151q114 -27 267 -27t233 27q-15 -77 -15 -151t15 -150h-101q-140 -262 -272 -567q-68 -159 -79 -232h100q-14 -69 -14 -149q0 -81 14 -150q-80 16 -250 16q-169 0 -250 -16q17 77 17 150q0 72 -17 149
h101q-9 103 -162 416l-120 245q-28 57 -67 138h-99q16 81 16 150q0 70 -16 151q114 -27 267 -27t232 27q-13 -72 -13 -151t13 -150h-99q12 -79 132 -349q46 -105 71 -150z" />
    <glyph glyph-name="w" unicode="w" horiz-adv-x="1497" 
d="M599 595q-59 -73 -123 -192q-76 -142 -76 -208q-81 16 -200 16q-120 0 -200 -16q16 80 16 150q0 69 -16 149h99q11 89 15 263q2 87 2 137q0 258 -17 399h-99q16 81 16 150q0 70 -16 151q114 -27 267 -27t232 27q-13 -72 -13 -151t13 -150h-99q-9 -90 -9 -299
q0 -193 9 -240q50 5 135 137q34 52 64 103q40 -61 94 -136q60 -82 106 -104q6 73 6 280q0 212 -6 259h-100q16 81 16 150q0 70 -16 151q114 -27 267 -27t233 27q-15 -77 -15 -151t15 -150h-101q-10 -106 -13 -247q-1 -48 -1 -152q0 -259 14 -400h101q-15 -74 -15 -149
t15 -150q-80 16 -200 16t-200 -16q0 103 -115 274z" />
    <glyph glyph-name="x" unicode="x" horiz-adv-x="1398" 
d="M448 894q-65 136 -218 280q-60 57 -131 119h-99q16 81 16 150q0 70 -16 151q114 -27 267 -27t232 27q-13 -72 -13 -151t13 -150h-99q132 -177 199 -299q28 68 131 206q46 61 69 93h-100q16 81 16 150q0 70 -16 151q114 -27 267 -27t233 27q-15 -77 -15 -151t15 -150h-101
q-268 -251 -351 -399q56 -99 233 -282q68 -70 118 -118h101q-15 -74 -15 -149t15 -150q-92 28 -233 28q-138 0 -267 -28q16 80 16 150q0 69 -16 149h100l-110 154q-66 91 -90 146q-67 -122 -199 -300h99q-13 -69 -13 -149q0 -81 13 -150q-89 28 -232 28q-138 0 -267 -28
q16 80 16 150q0 69 -16 149h99q275 243 349 400z" />
    <glyph glyph-name="y" unicode="y" horiz-adv-x="1497" 
d="M599 994q28 68 131 206q46 61 69 93h-100q16 81 16 150q0 70 -16 151q114 -27 267 -27t233 27q-15 -77 -15 -151t15 -150h-101q-268 -251 -351 -399q-14 -79 -14 -188q0 -114 14 -212h100q-14 -69 -14 -149q0 -81 14 -150q-80 16 -250 16q-169 0 -250 -16q17 77 17 150
q0 72 -17 149h101q15 65 15 193q0 127 -15 207q-65 136 -218 280q-60 57 -131 119h-99q16 81 16 150q0 70 -16 151q114 -27 267 -27t232 27q-13 -72 -13 -151t13 -150h-99q132 -177 199 -299z" />
    <glyph glyph-name="z" unicode="z" horiz-adv-x="1398" 
d="M1199 595q-15 -76 -15 -200q0 -125 15 -200q-91 28 -282 28q-189 0 -318 -28q-87 28 -281 28q-189 0 -318 -28q16 80 16 150q0 69 -16 149h99q146 110 549 591q144 173 151 208q-33 23 -222 23q-188 0 -278 -23v-99q-97 11 -187 11q-81 0 -112 -11q16 80 16 200
q0 119 -16 200q76 -19 314 -19q192 0 285 19q60 -27 246 -27q262 0 354 27q-15 -77 -15 -151t15 -150h-101q-160 -140 -527 -577q-140 -166 -171 -222q268 -13 379 -13q120 0 120 13v101q131 -21 216 -21q76 0 84 21z" />
    <glyph glyph-name="braceleft" unicode="{" 
d="M599 494q10 -51 130 -161q95 -88 170 -138q-161 16 -358 16q-202 0 -282 -16q-36 109 -259 299q16 161 16 400q0 240 -16 399q57 28 183 193q52 68 76 108q35 -9 312 -9q279 0 328 9q-109 -95 -233 -213q-51 -49 -67 -88h1q0 -1 -190 -6h-32q-60 0 -79 6q15 -219 15 -473
q0 -229 -15 -326q34 12 147 12q106 0 153 -12z" />
    <glyph glyph-name="bar" unicode="|" horiz-adv-x="499" 
d="M0 1594q34 -21 139 -21q119 0 160 21q-6 -96 -13 -467l-6 -337q-2 -112 -2 -288q0 -452 21 -507q-6 15 -89 15q-84 0 -210 -15q14 34 18 386l2 294q0 447 -9 760q-4 138 -11 159z" />
    <glyph glyph-name="braceright" unicode="}" 
d="M299 494q48 12 154 12q114 0 146 -12q-14 90 -14 326q0 268 14 473q-18 -6 -88 -6h-21q-169 3 -191 6q-20 51 -124 146q-49 43 -175 155q49 -9 330 -9q277 0 309 9q66 -109 179 -231q53 -56 81 -70q-14 -135 -14 -399q0 -263 14 -400q-116 -101 -200 -204
q-48 -60 -60 -95q-80 16 -281 16q-199 0 -358 -16q74 49 171 138q120 110 128 161z" />
    <glyph glyph-name="asciitilde" unicode="~" horiz-adv-x="699" 
d="M1 1182v10q0 22 3 56q5 47 5 66v8q0 37 -8 68q59 141 185 141q23 0 67.5 -4t67.5 -4q120 0 208 86q-33 -76 -33 -225q0 -25 4 -51q-43 -44 -112 -44q-28 0 -84.5 7.5t-85.5 7.5q-133 0 -217 -122z" />
    <glyph glyph-name="exclamdown" unicode="&#xa1;" horiz-adv-x="499" 
d="M295 1594q-12 -53 -12 -158q0 -107 16 -141q-44 17 -166 17q-107 0 -133 -17q5 23 5 103q0 64 -5 196q63 -20 165 -20q87 0 130 20zM299 195q-34 21 -139 21q-119 0 -160 -21q21 202 21 604q0 241 -21 296q6 -14 89 -14q93 0 177 9q26 3 33 5q-20 -52 -20 -388
q0 -455 20 -512z" />
    <glyph glyph-name="cent" unicode="&#xa2;" horiz-adv-x="1100" 
d="M322 1493q-5 85 -13 107q34 -21 139 -21q119 0 160 21q-4 -39 -7 -105q23 2 38 5q104 -141 260 -250v-150q-79 13 -148 13q-57 0 -152 -13l1 18l5 87l-6 -1q1 -6 -189 -11h-32q-60 0 -79 6q15 -219 24 -374l-4 -226q34 12 147 12q106 0 153 -12v101q75 -17 136 -17
q50 0 164 17q4 -66 4 -110q0 -38 -4 -40q-58 -40 -175 -159q-48 -49 -85 -91q-36 4 -67 6q5 -77 16 -106q-6 14 -89 14q-93 0 -177 -9q-26 -3 -33 -5q7 16 10 107q-20 -3 -40 -7q-36 109 -259 299l5 300q-9 141 -25 300q57 28 183 193q52 68 76 108q17 -4 63 -7z" />
    <glyph glyph-name="sterling" unicode="&#xa3;" horiz-adv-x="1200" 
d="M415 809q0 -151 -7 -309h292v101q69 -15 150 -15t150 15q-14 -69 -14 -200q0 -132 14 -200q-119 12 -376 12q-96 0 -212 -2q-329 0 -412 -16q16 80 16 150q0 69 -16 149h106q8 160 10 312q-79 -4 -116 -12q18 48 18 102q0 52 -18 98q36 -7 116 -11q-2 185 -15 316
q57 28 183 193q52 68 76 108q35 -9 183 -9t197 9q104 -141 260 -250v-150q-79 13 -148 13q-57 0 -152 -13v99q-13 -1 -189 -6h-32q-60 0 -79 6q10 -151 14 -318q143 2 185 13q-14 -42 -14 -108q0 -64 14 -92q-49 12 -184 15z" />
    <glyph glyph-name="currency" unicode="&#xa4;" horiz-adv-x="1398" 
d="M620 803q50 0 130 -8l-10 99l5 -13l5 119q-49 0 -159 -13q-56 4 -116 9l15 -102q-5 -54 -15 -99q43 0 145 8zM793 494h6l-3 4q-2 -2 -3 -4zM405 501q-2 -4 -5 -7h8q-2 3 -3 7zM430 494h69q-13 -69 -13 -149q0 -81 13 -150q-89 28 -232 28q-138 0 -267 -28q16 80 16 150
q0 69 -16 149h99q106 94 182 174q-55 56 -131 121q16 10 16 99l-16 101q45 22 134 131q-25 27 -54 54q-60 57 -131 119h-99q16 81 16 150q0 70 -16 151q114 -27 267 -27t232 27q-13 -72 -13 -151t13 -150h-99l6 -8q2 3 3 5q35 -9 183 -9t197 9q2 -3 4 -5l6 8h-100
q16 81 16 150q0 70 -16 151q114 -27 267 -27t233 27q-15 -77 -15 -151t15 -150h-101q-93 -87 -164 -162q53 -48 115 -91q-8 -26 -20 -164l7 -64q0 -41 13 -72q-39 -27 -105 -90q17 -19 36 -38q68 -70 118 -118h101q-15 -74 -15 -149t15 -150q-92 28 -233 28q-138 0 -267 -28
q16 80 16 150q0 69 -16 149h49q-127 12 -186 12q-63 0 -132 -12z" />
    <glyph glyph-name="yen" unicode="&#xa5;" horiz-adv-x="1497" 
d="M620 1036q35 63 110 164q46 61 69 93h-100q16 81 16 150q0 70 -16 151q114 -27 267 -27t233 27q-15 -77 -15 -151t15 -150h-101q-151 -141 -243 -250q29 3 44 7q-14 -42 -14 -108q0 -64 14 -92q-44 10 -157 14q-7 -57 -9 -127q127 3 166 13q-14 -42 -14 -108
q0 -64 14 -92q-45 11 -160 14q3 -36 8 -70h100q-14 -69 -14 -149q0 -81 14 -150q-80 16 -250 16q-169 0 -250 -16q17 77 17 150q0 72 -17 149h101q7 29 10 70q-111 -4 -158 -14q18 48 18 102q0 52 -18 98q45 -9 162 -12q-2 72 -9 126q-108 -4 -153 -14q18 48 18 102
q0 52 -18 98q19 -4 52 -7q-52 65 -122 131q-60 57 -131 119h-99q16 81 16 150q0 70 -16 151q114 -27 267 -27t232 27q-13 -72 -13 -151t13 -150h-99q110 -148 175 -257h45z" />
    <glyph glyph-name="brokenbar" unicode="&#xa6;" horiz-adv-x="1014" 
d="M427 371h160v-789h-160v789zM427 1578h160v-789h-160v789z" />
    <glyph glyph-name="section" unicode="&#xa7;" horiz-adv-x="1198" 
d="M495 838q50 0 130 -8l-10 99l5 -13l5 119q-49 0 -159 -13q-56 4 -116 9l15 -102q-5 -54 -15 -99q43 0 145 8zM37 948q-25 9 -40 10q14 43 14 507q0 115 -10 139q100 68 214 164q51 44 85 82q161 -13 265 -13q106 0 135 13q86 -98 300 -246q-12 -30 -12 -108
q0 -100 12 -142q-48 14 -122 14q-99 0 -178 -14v140q-9 0 -30 15l-40 30q-20 14 -30 14q-13 -8 -64 -8q-61 0 -135 8q-10 0 -49.5 -29.5t-51.5 -29.5q0 -12 4 -165v-6q47 -7 163 -7q148 0 197 9q104 -141 260 -250q-8 -26 -20 -164l2 -22q46 -29 98 -59q-14 -41 -14 -497
q0 -118 10 -137q-201 -134 -300 -246q-159 14 -270 14q-90 0 -130 -14q-59 66 -202 175q-59 44 -97 71q12 29 12 108q0 97 -12 141q60 -22 132 -22q92 0 167 22q7 -61 8 -66v-4q0 -5 -2.5 -15.5t-2.5 -15.5q-1 -15 -3 -38q13 0 53 -30.5t48 -30.5q31 8 84 8q60 0 115 -8
q8 0 70 46q20 15 30 15q-1 39 -5 70q-3 25 -3 27q0 10 4 156q-17 -17 -32 -34q-159 16 -227 16q-73 0 -153 -16q-36 109 -259 299q16 10 16 99z" />
    <glyph glyph-name="dieresis" unicode="&#xa8;" horiz-adv-x="1050" 
d="M4 1850q12 53 12 158q0 107 -16 141q44 -17 166 -17q107 0 133 17q-5 -23 -5 -103q0 -64 5 -196q-63 20 -165 20q-87 0 -130 -20zM554 1850q12 53 12 158q0 107 -16 141q44 -17 166 -17q107 0 133 17q-5 -23 -5 -103q0 -64 5 -196q-63 20 -165 20q-87 0 -130 -20z" />
    <glyph glyph-name="copyright" unicode="&#xa9;" horiz-adv-x="1100" 
d="M591 1191q-31 0 -68 9v-51q-24 6 -77 6q-56 0 -73 -6q7 49 7 163q0 127 -7 237q9 -3 39 -3h16q87 2 91 3h4v-50q47 7 76 7q34 0 74 -7v75q-78 55 -130 125q-25 -4 -99 -4t-91 4q-12 -20 -38 -54q-63 -82 -92 -96q8 -80 8 -200q0 -119 -8 -200q112 -95 130 -149q40 8 76 8
q34 0 114 -8q18 21 42 45q59 60 88 80q2 1 2 20q0 22 -2 55q-57 -9 -82 -9zM887 1142q-57 -43 -163 -150q-48 -49 -85 -91q-159 16 -227 16q-73 0 -153 -16q-35 105 -244 286q-2 182 -15 311q57 28 183 193q52 68 76 108q35 -9 183 -9t197 9q104 -141 260 -250
q-8 -26 -11 -313z" />
    <glyph glyph-name="ordfeminine" unicode="&#xaa;" horiz-adv-x="1650" 
d="M0 200v1100q0 200 200 200h1100q200 0 200 -200v-1100q0 -200 -200 -200h-1100q-200 0 -200 200zM1475 201v1099q0 175 -175 175h-1100q-174 0 -175 -175v-1100q1 -175 175 -175h1101q174 0 174 176z" />
    <glyph glyph-name="guillemotleft" unicode="&#xab;" horiz-adv-x="1500" 
d="M171 847q69 -26 166 -67q181 -88 246 -88q9 0 16 2q-14 -41 -14 -147q0 -65 14 -92q-78 15 -300 115q-188 87 -275 87q-13 0 -24 -2q18 47 18 141v120q0 82 -18 128q9 -2 21 -2q79 0 286 78q237 100 292 114q-14 -42 -14 -148q0 -64 14 -92q-11 2 -24 2q-80 0 -246 -86
q-91 -38 -158 -63zM871 847q69 -26 166 -67q181 -88 246 -88q9 0 16 2q-14 -41 -14 -147q0 -65 14 -92q-78 15 -300 115q-188 87 -275 87q-13 0 -24 -2q18 47 18 141v120q0 82 -18 128q9 -2 21 -2q79 0 286 78q237 100 292 114q-14 -42 -14 -148q0 -64 14 -92q-11 2 -24 2
q-80 0 -246 -86q-91 -38 -158 -63z" />
    <glyph glyph-name="logicalnot" unicode="&#xac;" horiz-adv-x="1014" 
d="M87 767h840v-491l-1 -1h-98v392h-741v100z" />
    <glyph glyph-name="registered" unicode="&#xae;" horiz-adv-x="1100" 
d="M428 1546h11q61 2 61 3h2q3 0 13 -7l20 -15q10 -8 15 -8q-3 -30 -4 -35q0 -4 4 -35q-27 0 -50 -23q-15 3 -48 3q-35 0 -52 -5q3 35 3 59t-3 66q9 -3 28 -3zM200 1001q-63 80 -185 186q-2 182 -15 311q57 28 183 193q52 68 76 108q35 -9 183 -9t197 9q104 -141 260 -250
q-8 -26 -11 -313l-1 -94q-51 -38 -141 -128q-4 29 -4 61q0 40 7 74h-49q-5 12 -5 60q0 88 7 108q-41 0 -59 27q18 34 59 37q-7 21 -7 124q0 57 5 69q-107 74 -150 123q-61 -7 -173 -7q-126 0 -177 9q8 -40 8 -75t-8 -75h50q8 -71 8 -200q0 -25 -1 -68q-2 -87 -7 -132h-50
q8 -40 8 -74q0 -35 -8 -74zM734 1002l-10 -10q-48 -49 -85 -91q-159 16 -227 16q-73 0 -153 -16q-14 43 -58 99q40 8 124 8q85 0 125 -8q-7 34 -7 75q0 40 7 74h-50q-4 24 -4 70q0 47 4 80q39 8 75 8t75 -8q5 -25 5 -63q0 -34 -5 -87h-50q8 -38 8 -74q0 -37 -8 -75
q40 8 124 8q71 0 110 -6z" />
    <glyph glyph-name="macron" unicode="&#xaf;" horiz-adv-x="1650" 
d="M0 200v1100q0 200 200 200h1100q200 0 200 -200v-1100q0 -200 -200 -200h-1100q-200 0 -200 200zM1475 201v1099q0 175 -175 175h-1100q-174 0 -175 -175v-1100q1 -175 175 -175h1101q174 0 174 176z" />
    <glyph glyph-name="degree" unicode="&#xb0;" horiz-adv-x="1100" 
d="M470 1513q50 0 130 -8l-10 99l5 -13l5 119q-49 0 -159 -13q-56 4 -116 9l15 -102q-5 -54 -15 -99q43 0 145 8zM0 1499q16 10 16 99l-16 101q57 28 183 193q52 68 76 108q35 -9 183 -9t197 9q104 -141 260 -250q-8 -26 -20 -164l7 -64q0 -41 13 -72q-58 -40 -175 -159
q-48 -49 -85 -91q-159 16 -227 16q-73 0 -153 -16q-36 109 -259 299z" />
    <glyph glyph-name="plusminus" unicode="&#xb1;" horiz-adv-x="1650" 
d="M0 200v1100q0 200 200 200h1100q200 0 200 -200v-1100q0 -200 -200 -200h-1100q-200 0 -200 200zM1475 201v1099q0 175 -175 175h-1100q-174 0 -175 -175v-1100q1 -175 175 -175h1101q174 0 174 176z" />
    <glyph glyph-name="uni00B2" unicode="&#xb2;" horiz-adv-x="1650" 
d="M0 200v1100q0 200 200 200h1100q200 0 200 -200v-1100q0 -200 -200 -200h-1100q-200 0 -200 200zM1475 201v1099q0 175 -175 175h-1100q-174 0 -175 -175v-1100q1 -175 175 -175h1101q174 0 174 176z" />
    <glyph glyph-name="uni00B3" unicode="&#xb3;" horiz-adv-x="1650" 
d="M0 200v1100q0 200 200 200h1100q200 0 200 -200v-1100q0 -200 -200 -200h-1100q-200 0 -200 200zM1475 201v1099q0 175 -175 175h-1100q-174 0 -175 -175v-1100q1 -175 175 -175h1101q174 0 174 176z" />
    <glyph glyph-name="acute" unicode="&#xb4;" horiz-adv-x="500" 
d="M1 2045q11 57 11 158q0 107 -15 143q37 -19 165 -19q109 0 134 19q-8 -31 -8 -91v-14q0 -36 5 -99q4 -46 4 -76q0 -12 -1 -21q4 -43 4 -69q0 -37 -8 -59q-42 -113 -295 -167q145 157 145 316q-102 0 -141 -21z" />
    <glyph glyph-name="mu" unicode="&#xb5;" horiz-adv-x="1298" 
d="M109 359q1 224 5 398q2 87 2 137q0 258 -17 399h-99q16 81 16 150q0 70 -16 151q114 -27 267 -27t232 27q-13 -72 -13 -151t13 -150h-99q14 -205 14 -473q0 -235 -14 -326q32 12 145 12q105 0 154 -12q-8 80 -8 272v81l1 138q0 51 2 114l5 194h-100q16 78 16 150
q0 73 -16 151q114 -27 268 -27q152 0 231 27q-14 -72 -14 -151t14 -150h-99q-12 -40 -12 -495q0 -324 12 -353q-60 -40 -179 -163q-53 -55 -81 -87q-161 16 -228 16q-59 0 -125 -11q4 -156 14 -251h99q-13 -69 -13 -149q0 -81 13 -150q-80 16 -249 16q-170 0 -250 -16
q16 80 16 150q0 69 -16 149h99q11 89 15 263z" />
    <glyph glyph-name="paragraph" unicode="&#xb6;" horiz-adv-x="1024" 
d="M929 1435v-70h-127v-1365h-82v1365h-166v-1365h-84v738q-174 8 -275.5 102.5t-101.5 245.5q0 157 107.5 253t285.5 96h443z" />
    <glyph glyph-name="periodcentered" unicode="&#xb7;" horiz-adv-x="499" 
d="M4 694q12 53 12 158q0 108 -16 142q44 -18 166 -18q107 0 133 18q-5 -24 -5 -104q0 -64 5 -196q-63 20 -165 20q-87 0 -130 -20z" />
    <glyph glyph-name="periodcentered" unicode="&#x2219;" horiz-adv-x="499" 
d="M4 694q12 53 12 158q0 108 -16 142q44 -18 166 -18q107 0 133 18q-5 -24 -5 -104q0 -64 5 -196q-63 20 -165 20q-87 0 -130 -20z" />
    <glyph glyph-name="cedilla" unicode="&#xb8;" horiz-adv-x="800" 
d="M600 250v-160q0 -38 -4 -40q-58 -40 -175 -159q-48 -49 -85 -91q-115 16 -183 16q-73 0 -153 -16l40 299q34 12 147 12q62 0 109 -12l4 151q75 -17 136 -17q50 0 164 17z" />
    <glyph glyph-name="uni00B9" unicode="&#xb9;" horiz-adv-x="1650" 
d="M0 200v1100q0 200 200 200h1100q200 0 200 -200v-1100q0 -200 -200 -200h-1100q-200 0 -200 200zM1475 201v1099q0 175 -175 175h-1100q-174 0 -175 -175v-1100q1 -175 175 -175h1101q174 0 174 176z" />
    <glyph glyph-name="ordmasculine" unicode="&#xba;" horiz-adv-x="1650" 
d="M0 200v1100q0 200 200 200h1100q200 0 200 -200v-1100q0 -200 -200 -200h-1100q-200 0 -200 200zM1475 201v1099q0 175 -175 175h-1100q-174 0 -175 -175v-1100q1 -175 175 -175h1101q174 0 174 176z" />
    <glyph glyph-name="guillemotright" unicode="&#xbb;" horiz-adv-x="1500" 
d="M970 910q-166 86 -246 86q-13 0 -24 -2q14 28 14 92q0 106 -14 148q55 -14 292 -114q207 -78 286 -78q12 0 21 2q-18 -46 -18 -128v-120q0 -94 18 -141q-11 2 -24 2q-87 0 -275 -87q-222 -100 -300 -115q14 27 14 92q0 106 -14 147q7 -2 16 -2q65 0 246 88q97 41 166 67
q-67 25 -158 63zM270 910q-166 86 -246 86q-13 0 -24 -2q14 28 14 92q0 106 -14 148q55 -14 292 -114q207 -78 286 -78q12 0 21 2q-18 -46 -18 -128v-120q0 -94 18 -141q-11 2 -24 2q-87 0 -275 -87q-222 -100 -300 -115q14 27 14 92q0 106 -14 147q7 -2 16 -2q65 0 246 88
q97 41 166 67q-67 25 -158 63z" />
    <glyph glyph-name="onequarter" unicode="&#xbc;" horiz-adv-x="1650" 
d="M0 200v1100q0 200 200 200h1100q200 0 200 -200v-1100q0 -200 -200 -200h-1100q-200 0 -200 200zM1475 201v1099q0 175 -175 175h-1100q-174 0 -175 -175v-1100q1 -175 175 -175h1101q174 0 174 176z" />
    <glyph glyph-name="onehalf" unicode="&#xbd;" horiz-adv-x="1650" 
d="M0 200v1100q0 200 200 200h1100q200 0 200 -200v-1100q0 -200 -200 -200h-1100q-200 0 -200 200zM1475 201v1099q0 175 -175 175h-1100q-174 0 -175 -175v-1100q1 -175 175 -175h1101q174 0 174 176z" />
    <glyph glyph-name="threequarters" unicode="&#xbe;" horiz-adv-x="1650" 
d="M0 200v1100q0 200 200 200h1100q200 0 200 -200v-1100q0 -200 -200 -200h-1100q-200 0 -200 200zM1475 201v1099q0 175 -175 175h-1100q-174 0 -175 -175v-1100q1 -175 175 -175h1101q174 0 174 176z" />
    <glyph glyph-name="questiondown" unicode="&#xbf;" horiz-adv-x="1198" 
d="M603 1095q8 -14 91 -14q92 0 176 9q27 3 34 5q-7 -35 -7 -109q0 -38 7 -151l-63 -23q-22 -9 -41 -29q-10 -11 -37 -36q-36 -10 -208 -10q-119 0 -151 5q-47 -47 -100 -47l8 -70q-2 -14 -8 -70q9 0 30 -15l40 -30q20 -14 30 -14q49 -15 313 -15q231 0 286 15
q-16 -81 -16 -150q0 -70 16 -151q-102 19 -353 19q-224 0 -346 -15q-86 98 -300 246q10 24 10 139q0 206 -14 247q120 47 253 111q51 25 51 53q49 -13 148 -13q100 0 151 13q9 22 9 50q0 27 -9 50zM900 1594q-13 -49 -13 -158q0 -108 17 -141q-40 17 -166 17
q-107 0 -135 -17q7 22 7 86v17q-1 60 -4 149q-1 24 -3 47q64 -20 166 -20q88 0 131 20z" />
    <glyph glyph-name="Agrave" unicode="&#xc0;" horiz-adv-x="1517" 
d="M840 1026l-10 103q0 21 4 56q5 43 6 56q-11 0 -59.5 36.5t-60.5 36.5q-28 -8 -64 -8q-29 0 -56 8q-9 0 -57.5 -36.5t-61.5 -36.5q2 -35 8 -84q2 -19 2 -26q-1 -20 -10 -105q33 18 159 18q140 0 200 -18zM730 291l-74 110l-66 -96q-8 -50 -8 -116q0 -72 8 -128l68 -102
l76 114q4 30 4 90q0 69 -8 128zM680 437l124 -82h36q11 149 11 206q0 95 -11 153q-87 18 -180 18q-92 0 -179 -18q-11 -97 -11 -193q0 -97 11 -166h27l124 82l-38 57l62 -41l64 43zM481 1669h359l204 134l-136 -202q88 -81 214 -171l205 137l-127 -194q-10 -20 -13 -265
q-2 -140 -2 -272l244 -48l-244 -48q9 -366 15 -385l40 4l211 141l-142 -211q-8 -54 -8 -122q0 -58 4 -88l136 -204l-194 130q-71 9 -200 9q-133 0 -243 -11l-120 -82l38 -58l-62 42l-68 -43l42 61l-124 82q-76 9 -206 9q-141 0 -223 -9l-204 -136l136 204q6 51 6 100
q0 68 -8 122l-136 203l210 -143h36q10 30 14 381l-244 48l244 48q0 509 -14 541l-130 196l212 -141q147 119 202 167l-135 197zM658 2066q0 -159 145 -316q-253 54 -295 167q-8 22 -8 59q0 26 4 69q-1 9 -1 21q0 30 4 76q5 63 5 99v14q0 60 -8 91q25 -19 134 -19
q128 0 165 19q-15 -36 -15 -143q0 -101 11 -158q-39 21 -141 21z" />
    <glyph glyph-name="Aacute" unicode="&#xc1;" horiz-adv-x="1517" 
d="M840 1026l-10 103q0 21 4 56q5 43 6 56q-11 0 -59.5 36.5t-60.5 36.5q-28 -8 -64 -8q-29 0 -56 8q-9 0 -57.5 -36.5t-61.5 -36.5q2 -35 8 -84q2 -19 2 -26q-1 -20 -10 -105q33 18 159 18q140 0 200 -18zM730 291l-74 110l-66 -96q-8 -50 -8 -116q0 -72 8 -128l68 -102
l76 114q4 30 4 90q0 69 -8 128zM680 437l124 -82h36q11 149 11 206q0 95 -11 153q-87 18 -180 18q-92 0 -179 -18q-11 -97 -11 -193q0 -97 11 -166h27l124 82l-38 57l62 -41l64 43zM481 1669h359l204 134l-136 -202q88 -81 214 -171l205 137l-127 -194q-10 -20 -13 -265
q-2 -140 -2 -272l244 -48l-244 -48q9 -366 15 -385l40 4l211 141l-142 -211q-8 -54 -8 -122q0 -58 4 -88l136 -204l-194 130q-71 9 -200 9q-133 0 -243 -11l-120 -82l38 -58l-62 42l-68 -43l42 61l-124 82q-76 9 -206 9q-141 0 -223 -9l-204 -136l136 204q6 51 6 100
q0 68 -8 122l-136 203l210 -143h36q10 30 14 381l-244 48l244 48q0 509 -14 541l-130 196l212 -141q147 119 202 167l-135 197zM551 2049q11 57 11 158q0 107 -15 143q37 -19 165 -19q109 0 134 19q-8 -31 -8 -91v-14q0 -36 5 -99q4 -46 4 -76q0 -12 -1 -21q4 -43 4 -69
q0 -37 -8 -59q-42 -113 -295 -167q145 157 145 316q-102 0 -141 -21z" />
    <glyph glyph-name="Acircumflex" unicode="&#xc2;" horiz-adv-x="1517" 
d="M840 1026l-10 103q0 21 4 56q5 43 6 56q-11 0 -59.5 36.5t-60.5 36.5q-28 -8 -64 -8q-29 0 -56 8q-9 0 -57.5 -36.5t-61.5 -36.5q2 -35 8 -84q2 -19 2 -26q-1 -20 -10 -105q33 18 159 18q140 0 200 -18zM730 291l-74 110l-66 -96q-8 -50 -8 -116q0 -72 8 -128l68 -102
l76 114q4 30 4 90q0 69 -8 128zM680 437l124 -82h36q11 149 11 206q0 95 -11 153q-87 18 -180 18q-92 0 -179 -18q-11 -97 -11 -193q0 -97 11 -166h27l124 82l-38 57l62 -41l64 43zM481 1669h359l204 134l-136 -202q88 -81 214 -171l205 137l-127 -194q-10 -20 -13 -265
q-2 -140 -2 -272l244 -48l-244 -48q9 -366 15 -385l40 4l211 141l-142 -211q-8 -54 -8 -122q0 -58 4 -88l136 -204l-194 130q-71 9 -200 9q-133 0 -243 -11l-120 -82l38 -58l-62 42l-68 -43l42 61l-124 82q-76 9 -206 9q-141 0 -223 -9l-204 -136l136 204q6 51 6 100
q0 68 -8 122l-136 203l210 -143h36q10 30 14 381l-244 48l244 48q0 509 -14 541l-130 196l212 -141q147 119 202 167l-135 197zM400 1788v13q0 28 3 68q5 57 5 81v11q0 48 -8 79l90 47q126 68 158 113q97 -88 251 -160q-13 -35 -13 -109q0 -87 13 -151q-111 137 -251 180
q-104 -35 -248 -172z" />
    <glyph glyph-name="Atilde" unicode="&#xc3;" horiz-adv-x="1517" 
d="M840 1026l-10 103q0 21 4 56q5 43 6 56q-11 0 -59.5 36.5t-60.5 36.5q-28 -8 -64 -8q-29 0 -56 8q-9 0 -57.5 -36.5t-61.5 -36.5q2 -35 8 -84q2 -19 2 -26q-1 -20 -10 -105q33 18 159 18q140 0 200 -18zM730 291l-74 110l-66 -96q-8 -50 -8 -116q0 -72 8 -128l68 -102
l76 114q4 30 4 90q0 69 -8 128zM680 437l124 -82h36q11 149 11 206q0 95 -11 153q-87 18 -180 18q-92 0 -179 -18q-11 -97 -11 -193q0 -97 11 -166h27l124 82l-38 57l62 -41l64 43zM481 1669h359l204 134l-136 -202q88 -81 214 -171l205 137l-127 -194q-10 -20 -13 -265
q-2 -140 -2 -272l244 -48l-244 -48q9 -366 15 -385l40 4l211 141l-142 -211q-8 -54 -8 -122q0 -58 4 -88l136 -204l-194 130q-71 9 -200 9q-133 0 -243 -11l-120 -82l38 -58l-62 42l-68 -43l42 61l-124 82q-76 9 -206 9q-141 0 -223 -9l-204 -136l136 204q6 51 6 100
q0 68 -8 122l-136 203l210 -143h36q10 30 14 381l-244 48l244 48q0 509 -14 541l-130 196l212 -141q147 119 202 167l-135 197zM422 1773v10q0 22 3 56q5 47 5 66v8q0 37 -8 68q59 141 185 141q23 0 67.5 -4t67.5 -4q120 0 208 86q-33 -76 -33 -225q0 -25 4 -51
q-43 -44 -112 -44q-28 0 -84.5 7.5t-85.5 7.5q-133 0 -217 -122z" />
    <glyph glyph-name="Adieresis" unicode="&#xc4;" horiz-adv-x="1517" 
d="M840 1026l-10 103q0 21 4 56q5 43 6 56q-11 0 -59.5 36.5t-60.5 36.5q-28 -8 -64 -8q-29 0 -56 8q-9 0 -57.5 -36.5t-61.5 -36.5q2 -35 8 -84q2 -19 2 -26q-1 -20 -10 -105q33 18 159 18q140 0 200 -18zM730 291l-74 110l-66 -96q-8 -50 -8 -116q0 -72 8 -128l68 -102
l76 114q4 30 4 90q0 69 -8 128zM680 437l124 -82h36q11 149 11 206q0 95 -11 153q-87 18 -180 18q-92 0 -179 -18q-11 -97 -11 -193q0 -97 11 -166h27l124 82l-38 57l62 -41l64 43zM481 1669h359l204 134l-136 -202q88 -81 214 -171l205 137l-127 -194q-10 -20 -13 -265
q-2 -140 -2 -272l244 -48l-244 -48q9 -366 15 -385l40 4l211 141l-142 -211q-8 -54 -8 -122q0 -58 4 -88l136 -204l-194 130q-71 9 -200 9q-133 0 -243 -11l-120 -82l38 -58l-62 42l-68 -43l42 61l-124 82q-76 9 -206 9q-141 0 -223 -9l-204 -136l136 204q6 51 6 100
q0 68 -8 122l-136 203l210 -143h36q10 30 14 381l-244 48l244 48q0 509 -14 541l-130 196l212 -141q147 119 202 167l-135 197zM254 1850q12 53 12 158q0 107 -16 141q44 -17 166 -17q107 0 133 17q-5 -23 -5 -103q0 -64 5 -196q-63 20 -165 20q-87 0 -130 -20zM804 1850
q12 53 12 158q0 107 -16 141q44 -17 166 -17q107 0 133 17q-5 -23 -5 -103q0 -64 5 -196q-63 20 -165 20q-87 0 -130 -20z" />
    <glyph glyph-name="Aring" unicode="&#xc5;" horiz-adv-x="1517" 
d="M840 1026l-10 103q0 21 4 56q5 43 6 56q-11 0 -59.5 36.5t-60.5 36.5q-28 -8 -64 -8q-29 0 -56 8q-9 0 -57.5 -36.5t-61.5 -36.5q2 -35 8 -84q2 -19 2 -26q-1 -20 -10 -105q33 18 159 18q140 0 200 -18zM730 291l-74 110l-66 -96q-8 -50 -8 -116q0 -72 8 -128l68 -102
l76 114q4 30 4 90q0 69 -8 128zM680 437l124 -82h36q11 149 11 206q0 95 -11 153q-87 18 -180 18q-92 0 -179 -18q-11 -97 -11 -193q0 -97 11 -166h27l124 82l-38 57l62 -41l64 43zM481 1669h359l204 134l-136 -202q88 -81 214 -171l205 137l-127 -194q-10 -20 -13 -265
q-2 -140 -2 -272l244 -48l-244 -48q9 -366 15 -385l40 4l211 141l-142 -211q-8 -54 -8 -122q0 -58 4 -88l136 -204l-194 130q-71 9 -200 9q-133 0 -243 -11l-120 -82l38 -58l-62 42l-68 -43l42 61l-124 82q-76 9 -206 9q-141 0 -223 -9l-204 -136l136 204q6 51 6 100
q0 68 -8 122l-136 203l210 -143h36q10 30 14 381l-244 48l244 48q0 509 -14 541l-130 196l212 -141q147 119 202 167l-135 197zM529 1850q12 53 12 158q0 107 -16 141q44 -17 166 -17q107 0 133 17q-5 -23 -5 -103q0 -64 5 -196q-63 20 -165 20q-87 0 -130 -20z" />
    <glyph glyph-name="AE" unicode="&#xc6;" horiz-adv-x="2000" 
d="M840 1026l-10 103q0 21 4 56q5 43 6 56q-11 0 -59.5 36.5t-60.5 36.5q-28 -8 -64 -8q-29 0 -56 8q-9 0 -57.5 -36.5t-61.5 -36.5q2 -35 8 -84l2 -26q-1 0 -10 -105q33 18 159 18q140 0 200 -18zM730 291l-74 110l-66 -96q-8 -50 -8 -116q0 -72 8 -128l68 -102l76 114
q4 30 4 90q0 69 -8 128zM680 437l124 -82h36q11 149 11 206q0 95 -11 153q-87 18 -180 18q-92 0 -179 -18q-11 -97 -11 -193q0 -97 11 -166h27l124 82l-38 57l62 -41l64 43zM803 2l-119 -81l38 -58l-62 42l-68 -43l42 61l-124 82q-76 9 -206 9q-141 0 -223 -9l-204 -136
l136 204q6 51 6 100q0 68 -8 122l-136 203l210 -143h36q10 30 14 381l-244 48l244 48q0 509 -14 541l-130 196l212 -141q147 119 202 167l-135 197l211 -123h359l8 -8q78 -4 198 -5q28 -1 90 -2l47 236l48 -236q300 0 490 12l203 136l-133 -200q-9 -77 -9 -175q0 -74 7 -158
l141 -212l-211 142q-58 6 -132 9h-6q-17 0 -72 -4l-212 -141l142 212l2 -2v40h-239q-8 -37 -12 -74q-2 -54 -3 -131q0 -26 -1 -51q5 -52 16 -104q89 -18 249 -18q82 0 146 6l211 141l-141 -211q-2 -25 -2 -78l145 -208l-205 139q-67 7 -168 7q-148 0 -235 -18
q-9 -43 -14 -86q5 -196 10 -251q1 -10 4 -21l38 4l5 -5h196v40l-142 212l212 -143q51 -8 110 -8q45 0 88 6l212 143l-130 -194q-9 -72 -9 -164q0 -89 11 -191l130 -196l-212 141q-175 13 -458 13l-6 -8q-8 1 -17 2l-47 -230l-47 236h-9q-32 0 -72 -1l-93 -2q-107 -2 -159 -8
z" />
    <glyph glyph-name="Ccedilla" unicode="&#xc7;" horiz-adv-x="1278" 
d="M175 -44l86 129q-68 87 -193 208l-204 -136l136 198q10 100 18 385l-235 48l235 48q0 271 -16 461l-136 204l202 -134q88 90 191 228l-137 206l189 -127q51 -11 217 -11t239 11l192 129l-134 -198q80 -89 189 -181l204 135l-139 -209v-82l137 -206l-212 141q-53 6 -99 6
q-63 0 -114 -8l-212 -141l142 212l-2 42h-8q-22 0 -100 -3l-121 -5q-24 -1 -44 -1q-61 0 -86 9q6 -92 12 -285q2 -82 3 -184l238 -49l-238 -48q0 -290 -15 -393q44 14 179 14q128 0 180 -14v38l-138 206l202 -135q60 -6 112 -6q35 0 108 4l211 143l-131 -198q0 -111 -4 -112
l133 -199l-211 141q-95 -91 -168 -170l135 -204l-201 132q-35 4 -67 6v-61q0 -38 -4 -40q-58 -40 -175 -159q-48 -49 -85 -91q-115 16 -183 16q-73 0 -153 -16l31 230l-11 -7l12 19l8 57q12 4 35 7zM398 8q-43 -4 -87 -13l-54 -34h30q62 0 109 -12z" />
    <glyph glyph-name="Egrave" unicode="&#xc8;" horiz-adv-x="1278" 
d="M998 1200q-58 6 -132 9h-6q-17 0 -72 -4l-212 -141l142 212l2 -2v40h-239q-19 -89 -19 -180t19 -180q89 -18 249 -18q82 0 146 6l211 141l-141 -211q-2 -25 -2 -78l145 -208l-205 139q-67 7 -168 7q-148 0 -235 -18q-19 -87 -19 -180q0 -92 19 -179h239v40l-142 212
l212 -143q51 -8 110 -8q45 0 88 6l212 143l-130 -194q-9 -72 -9 -164q0 -89 11 -191l130 -196l-212 141q-182 13 -480 13l-48 -236l-47 236q-35 0 -81 -1l-93 -2q-110 -2 -162 -8l-206 -138l142 212q4 26 4 80q0 73 -10 126l-142 211l210 -139h44q10 100 18 385l-244 48
l244 48q0 297 -18 478h-32l-212 -143l132 198q8 59 8 132q0 64 -4 96l-134 199l198 -131q85 -6 248 -8q28 -1 90 -2l47 236l48 -236q300 0 490 12l203 136l-133 -200q-9 -77 -9 -175q0 -74 7 -158l141 -212zM608 2066q0 -159 145 -316q-253 54 -295 167q-8 22 -8 59
q0 26 4 69q-1 9 -1 21q0 30 4 76q5 63 5 99v14q0 60 -8 91q25 -19 134 -19q128 0 165 19q-15 -36 -15 -143q0 -101 11 -158q-39 21 -141 21z" />
    <glyph glyph-name="Eacute" unicode="&#xc9;" horiz-adv-x="1278" 
d="M488 1763l22 -108q300 0 490 12l203 136l-133 -200q-9 -77 -9 -175q0 -74 7 -158l141 -212l-211 142q-58 6 -132 9h-6q-17 0 -72 -4l-212 -141l142 212l2 -2v40h-239q-19 -89 -19 -180t19 -180q89 -18 249 -18q82 0 146 6l211 141l-141 -211q-2 -25 -2 -78l145 -208
l-205 139q-67 7 -168 7q-148 0 -235 -18q-19 -87 -19 -180q0 -92 19 -179h239v40l-142 212l212 -143q51 -8 110 -8q45 0 88 6l212 143l-130 -194q-9 -72 -9 -164q0 -89 11 -191l130 -196l-212 141q-182 13 -480 13l-48 -236l-47 236q-35 0 -81 -1l-93 -2q-110 -2 -162 -8
l-206 -138l142 212q4 26 4 80q0 73 -10 126l-142 211l210 -139h44q10 100 18 385l-244 48l244 48q0 297 -18 478h-32l-212 -143l132 198q8 59 8 132q0 64 -4 96l-134 199l198 -131q85 -6 248 -8q28 -1 90 -2l47 236l20 -100q113 139 113 279q-102 0 -141 -21q11 57 11 158
q0 107 -15 143q37 -19 165 -19q109 0 134 19q-8 -31 -8 -91v-14q0 -36 5 -99q4 -46 4 -76q0 -12 -1 -21q4 -43 4 -69q0 -37 -8 -59q-39 -104 -257 -158z" />
    <glyph glyph-name="Ecircumflex" unicode="&#xca;" horiz-adv-x="1278" 
d="M998 1200q-58 6 -132 9h-6q-17 0 -72 -4l-212 -141l142 212l2 -2v40h-239q-19 -89 -19 -180t19 -180q89 -18 249 -18q82 0 146 6l211 141l-141 -211q-2 -25 -2 -78l145 -208l-205 139q-67 7 -168 7q-148 0 -235 -18q-19 -87 -19 -180q0 -92 19 -179h239v40l-142 212
l212 -143q51 -8 110 -8q45 0 88 6l212 143l-130 -194q-9 -72 -9 -164q0 -89 11 -191l130 -196l-212 141q-182 13 -480 13l-48 -236l-47 236q-35 0 -81 -1l-93 -2q-110 -2 -162 -8l-206 -138l142 212q4 26 4 80q0 73 -10 126l-142 211l210 -139h44q10 100 18 385l-244 48
l244 48q0 297 -18 478h-32l-212 -143l132 198q8 59 8 132q0 64 -4 96l-134 199l198 -131q85 -6 248 -8q28 -1 90 -2l47 236l48 -236q300 0 490 12l203 136l-133 -200q-9 -77 -9 -175q0 -74 7 -158l141 -212zM300 1788v13q0 28 3 68q5 57 5 81v11q0 48 -8 79l90 47
q126 68 158 113q97 -88 251 -160q-13 -35 -13 -109q0 -87 13 -151q-111 137 -251 180q-104 -35 -248 -172z" />
    <glyph glyph-name="Edieresis" unicode="&#xcb;" horiz-adv-x="1278" 
d="M998 1200q-58 6 -132 9h-6q-17 0 -72 -4l-212 -141l142 212l2 -2v40h-239q-19 -89 -19 -180t19 -180q89 -18 249 -18q82 0 146 6l211 141l-141 -211q-2 -25 -2 -78l145 -208l-205 139q-67 7 -168 7q-148 0 -235 -18q-19 -87 -19 -180q0 -92 19 -179h239v40l-142 212
l212 -143q51 -8 110 -8q45 0 88 6l212 143l-130 -194q-9 -72 -9 -164q0 -89 11 -191l130 -196l-212 141q-182 13 -480 13l-48 -236l-47 236q-35 0 -81 -1l-93 -2q-110 -2 -162 -8l-206 -138l142 212q4 26 4 80q0 73 -10 126l-142 211l210 -139h44q10 100 18 385l-244 48
l244 48q0 297 -18 478h-32l-212 -143l132 198q8 59 8 132q0 64 -4 96l-134 199l198 -131q85 -6 248 -8q28 -1 90 -2l47 236l48 -236q300 0 490 12l203 136l-133 -200q-9 -77 -9 -175q0 -74 7 -158l141 -212zM104 1850q12 53 12 158q0 107 -16 141q44 -17 166 -17
q107 0 133 17q-5 -23 -5 -103q0 -64 5 -196q-63 20 -165 20q-87 0 -130 -20zM654 1850q12 53 12 158q0 107 -16 141q44 -17 166 -17q107 0 133 17q-5 -23 -5 -103q0 -64 5 -196q-63 20 -165 20q-87 0 -130 -20z" />
    <glyph glyph-name="Igrave" unicode="&#xcc;" horiz-adv-x="798" 
d="M89 1314l-212 -143l134 200q8 54 8 120q0 63 -8 110l-128 191l202 -135q114 -18 238 -18q111 0 189 14l212 141l-136 -202q-6 -48 -6 -97q0 -40 8 -124l136 -202l-212 143l2 2h-35q-19 -178 -19 -473l240 -49l-240 -48q3 -248 19 -389h42l205 137l-138 -205
q-1 -20 -6 -89q-1 -12 -2 -41q-1 -11 -1 -24q0 -25 3 -54l142 -212l-206 138q-82 9 -233 9q-136 0 -212 -9l-198 -132l136 204q6 48 6 94q0 65 -8 116l-136 204l204 -136h42q10 101 18 389l-244 48l244 49q0 295 -18 473h-32zM308 2070q0 -159 145 -316q-253 54 -295 167
q-8 22 -8 59q0 26 4 69q-1 9 -1 21q0 30 4 76q5 63 5 99v14q0 60 -8 91q25 -19 134 -19q128 0 165 19q-15 -36 -15 -143q0 -101 11 -158q-39 21 -141 21z" />
    <glyph glyph-name="Iacute" unicode="&#xcd;" horiz-adv-x="798" 
d="M89 1314l-212 -143l134 200q8 54 8 120q0 63 -8 110l-128 191l202 -135q114 -18 238 -18q111 0 189 14l212 141l-136 -202q-6 -48 -6 -97q0 -40 8 -124l136 -202l-212 143l2 2h-35q-19 -178 -19 -473l240 -49l-240 -48q3 -248 19 -389h42l205 137l-138 -205
q-1 -20 -6 -89q-1 -12 -2 -41q-1 -11 -1 -24q0 -25 3 -54l142 -212l-206 138q-82 9 -233 9q-136 0 -212 -9l-198 -132l136 204q6 48 6 94q0 65 -8 116l-136 204l204 -136h42q10 101 18 389l-244 48l244 49q0 295 -18 473h-32zM154 2049q11 57 11 158q0 107 -15 143
q37 -19 165 -19q109 0 134 19q-8 -31 -8 -91v-14q0 -36 5 -99q4 -46 4 -76q0 -12 -1 -21q4 -43 4 -69q0 -37 -8 -59q-42 -113 -295 -167q145 157 145 316q-102 0 -141 -21z" />
    <glyph glyph-name="Icircumflex" unicode="&#xce;" horiz-adv-x="798" 
d="M89 1314l-212 -143l134 200q8 54 8 120q0 63 -8 110l-128 191l202 -135q114 -18 238 -18q111 0 189 14l212 141l-136 -202q-6 -48 -6 -97q0 -40 8 -124l136 -202l-212 143l2 2h-35q-19 -178 -19 -473l240 -49l-240 -48q3 -248 19 -389h42l205 137l-138 -205
q-1 -20 -6 -89q-1 -12 -2 -41q-1 -11 -1 -24q0 -25 3 -54l142 -212l-206 138q-82 9 -233 9q-136 0 -212 -9l-198 -132l136 204q6 48 6 94q0 65 -8 116l-136 204l204 -136h42q10 101 18 389l-244 48l244 49q0 295 -18 473h-32zM50 1788v13q0 28 3 68q5 57 5 81v11q0 48 -8 79
l90 47q126 68 158 113q97 -88 251 -160q-13 -35 -13 -109q0 -87 13 -151q-111 137 -251 180q-104 -35 -248 -172z" />
    <glyph glyph-name="Idieresis" unicode="&#xcf;" horiz-adv-x="798" 
d="M89 1314l-212 -143l134 200q8 54 8 120q0 63 -8 110l-128 191l202 -135q114 -18 238 -18q111 0 189 14l212 141l-136 -202q-6 -48 -6 -97q0 -40 8 -124l136 -202l-212 143l2 2h-35q-19 -178 -19 -473l240 -49l-240 -48q3 -248 19 -389h42l205 137l-138 -205
q-1 -20 -6 -89q-1 -12 -2 -41q-1 -11 -1 -24q0 -25 3 -54l142 -212l-206 138q-82 9 -233 9q-136 0 -212 -9l-198 -132l136 204q6 48 6 94q0 65 -8 116l-136 204l204 -136h42q10 101 18 389l-244 48l244 49q0 295 -18 473h-32zM-96 1850q12 53 12 158q0 107 -16 141
q44 -17 166 -17q107 0 133 17q-5 -23 -5 -103q0 -64 5 -196q-63 20 -165 20q-87 0 -130 -20zM454 1850q12 53 12 158q0 107 -16 141q44 -17 166 -17q107 0 133 17q-5 -23 -5 -103q0 -64 5 -196q-63 20 -165 20q-87 0 -130 -20z" />
    <glyph glyph-name="Eth" unicode="&#xd0;" horiz-adv-x="1378" 
d="M136 1045q-4 156 -15 269h-38l-206 -138l134 199q8 80 8 124q0 47 -6 98l-134 199l200 -133q112 -10 336 -10l47 238l48 -238q216 8 301 16l200 134l-131 -196q69 -65 221 -177l206 137l-128 -194q-3 -12 -8 -154q-3 -87 -6 -387l236 -48l-236 -48q0 -410 14 -441
l126 -199l-212 141q-143 -116 -206 -170l135 -200l-202 132q-103 10 -306 17l-48 -238l-48 238q-237 0 -339 -11l-198 -132l132 198q6 48 6 98q0 64 -8 118l-136 204l204 -136h42q10 93 17 351l-32 9q-75 -3 -131 -15q14 36 17 76l1 8v18q0 26 -5 51v45q5 26 5 54
q0 52 -18 98q53 -11 131 -13zM488 1048l7 -11q110 2 155 13q-14 -42 -14 -108v-150q0 -64 14 -92q-53 13 -157 15l-4 -13q-1 -285 -8 -347q17 6 84 6q86 0 135 -6q8 0 57 36t63 36q-11 131 -11 367q0 293 11 447q-12 0 -60.5 36.5t-59.5 36.5h-10q-23 0 -58 -3
q-48 -5 -67 -5h-12q-50 0 -72 8q5 -61 7 -266z" />
    <glyph glyph-name="Ntilde" unicode="&#xd1;" horiz-adv-x="1637" 
d="M710 1186l116 -216q76 -135 134 -207q20 55 20 322q0 152 -7 225q-19 16 -61 19zM708 1190l138 206q10 105 10 185l-142 211l194 -129q79 -8 215 -8q152 0 240 8l204 136l-142 -212q-4 -55 -4 -84q0 -68 10 -121l142 -213l-212 143l2 2h-43q-19 -175 -19 -466l236 -47
l-236 -49q2 -133 19 -397h41l206 137l-138 -205q-2 -27 -8 -122q-1 -10 -1 -21q0 -23 3 -52l142 -213l-204 137q-62 11 -136 11q-100 0 -218 -24l-211 -141l137 205q-168 430 -338 767q-84 167 -114 168q-11 -70 -11 -294q0 -281 11 -353h46l205 137l-142 -211
q-8 -51 -8 -116q0 -54 4 -82l136 -204l-199 135q-94 15 -202 15q-120 0 -250 -19l-202 -137l142 212q8 43 8 96q0 49 -6 98l-142 212l204 -136h46q10 98 18 381l-239 48l239 48q0 311 -18 482h-40l-212 -143l142 213q8 50 8 109q0 61 -8 108l-128 191l194 -129q66 -8 164 -8
q97 0 187 10l-4 4l212 142l-134 -200q51 -134 206 -421zM472 1773v10q0 22 3 56q5 47 5 66v8q0 37 -8 68q59 141 185 141q23 0 67.5 -4t67.5 -4q120 0 208 86q-33 -76 -33 -225q0 -25 4 -51q-43 -44 -112 -44q-28 0 -84.5 7.5t-85.5 7.5q-133 0 -217 -122z" />
    <glyph glyph-name="Ograve" unicode="&#xd2;" horiz-adv-x="1278" 
d="M719 355q-10 120 -10 431q0 388 10 528h-8q-22 0 -100 -3l-121 -5q-24 -1 -44 -1q-61 0 -86 9q15 -224 15 -570q0 -288 -15 -389q44 14 179 14q128 0 180 -14zM773 1q-142 15 -247 15q-104 0 -192 -17l-206 -137l141 211q-55 78 -199 218l-202 -134l132 198
q10 101 18 389l-243 48l243 49q0 295 -18 473l-130 191l200 -134q93 92 195 234l-135 204l211 -142q40 -4 168 -4q197 0 258 11l199 133l-137 -206q90 -94 187 -180l206 138l-141 -211q-16 -187 -16 -496l239 -47l-239 -49q0 -427 14 -461l122 -203l-204 135l-60 -56
q-21 -21 -102 -96l141 -212zM558 2066q0 -159 145 -316q-253 54 -295 167q-8 22 -8 59q0 26 4 69q-1 9 -1 21q0 30 4 76q5 63 5 99v14q0 60 -8 91q25 -19 134 -19q128 0 165 19q-15 -36 -15 -143q0 -101 11 -158q-39 21 -141 21z" />
    <glyph glyph-name="Oacute" unicode="&#xd3;" horiz-adv-x="1278" 
d="M719 355q-10 120 -10 431q0 388 10 528h-8q-22 0 -100 -3l-121 -5q-24 -1 -44 -1q-61 0 -86 9q15 -224 15 -570q0 -288 -15 -389q44 14 179 14q128 0 180 -14zM773 1q-142 15 -247 15q-104 0 -192 -17l-206 -137l141 211q-55 78 -199 218l-202 -134l132 198
q10 101 18 389l-243 48l243 49q0 295 -18 473l-130 191l200 -134q93 92 195 234l-135 204l211 -142q40 -4 168 -4q197 0 258 11l199 133l-137 -206q90 -94 187 -180l206 138l-141 -211q-16 -187 -16 -496l239 -47l-239 -49q0 -427 14 -461l122 -203l-204 135l-60 -56
q-21 -21 -102 -96l141 -212zM404 2045q11 57 11 158q0 107 -15 143q37 -19 165 -19q109 0 134 19q-8 -31 -8 -91v-14q0 -36 5 -99q4 -46 4 -76q0 -12 -1 -21q4 -43 4 -69q0 -37 -8 -59q-42 -113 -295 -167q145 157 145 316q-102 0 -141 -21z" />
    <glyph glyph-name="Ocircumflex" unicode="&#xd4;" horiz-adv-x="1278" 
d="M719 355q-10 120 -10 431q0 388 10 528h-8q-22 0 -100 -3l-121 -5q-24 -1 -44 -1q-61 0 -86 9q15 -224 15 -570q0 -288 -15 -389q44 14 179 14q128 0 180 -14zM773 1q-142 15 -247 15q-104 0 -192 -17l-206 -137l141 211q-55 78 -199 218l-202 -134l132 198
q10 101 18 389l-243 48l243 49q0 295 -18 473l-130 191l200 -134q93 92 195 234l-135 204l211 -142q40 -4 168 -4q197 0 258 11l199 133l-137 -206q90 -94 187 -180l206 138l-141 -211q-16 -187 -16 -496l239 -47l-239 -49q0 -427 14 -461l122 -203l-204 135l-60 -56
q-21 -21 -102 -96l141 -212zM300 1788v13q0 28 3 68q5 57 5 81v11q0 48 -8 79l90 47q126 68 158 113q97 -88 251 -160q-13 -35 -13 -109q0 -87 13 -151q-111 137 -251 180q-104 -35 -248 -172z" />
    <glyph glyph-name="Otilde" unicode="&#xd5;" horiz-adv-x="1278" 
d="M719 355q-10 120 -10 431q0 388 10 528h-8q-22 0 -100 -3l-121 -5q-24 -1 -44 -1q-61 0 -86 9q15 -224 15 -570q0 -288 -15 -389q44 14 179 14q128 0 180 -14zM773 1q-142 15 -247 15q-104 0 -192 -17l-206 -137l141 211q-55 78 -199 218l-202 -134l132 198
q10 101 18 389l-243 48l243 49q0 295 -18 473l-130 191l200 -134q93 92 195 234l-135 204l211 -142q40 -4 168 -4q197 0 258 11l199 133l-137 -206q90 -94 187 -180l206 138l-141 -211q-16 -187 -16 -496l239 -47l-239 -49q0 -427 14 -461l122 -203l-204 135l-60 -56
q-21 -21 -102 -96l141 -212zM300 1773v10q0 22 3 56q5 47 5 66v8q0 37 -8 68q59 141 185 141q23 0 67.5 -4t67.5 -4q120 0 208 86q-33 -76 -33 -225q0 -25 4 -51q-43 -44 -112 -44q-28 0 -84.5 7.5t-85.5 7.5q-133 0 -217 -122z" />
    <glyph glyph-name="Odieresis" unicode="&#xd6;" horiz-adv-x="1278" 
d="M719 355q-10 120 -10 431q0 388 10 528h-8q-22 0 -100 -3l-121 -5q-24 -1 -44 -1q-61 0 -86 9q15 -224 15 -570q0 -288 -15 -389q44 14 179 14q128 0 180 -14zM773 1q-142 15 -247 15q-104 0 -192 -17l-206 -137l141 211q-55 78 -199 218l-202 -134l132 198
q10 101 18 389l-243 48l243 49q0 295 -18 473l-130 191l200 -134q93 92 195 234l-135 204l211 -142q40 -4 168 -4q197 0 258 11l199 133l-137 -206q90 -94 187 -180l206 138l-141 -211q-16 -187 -16 -496l239 -47l-239 -49q0 -427 14 -461l122 -203l-204 135l-60 -56
q-21 -21 -102 -96l141 -212zM104 1850q12 53 12 158q0 107 -16 141q44 -17 166 -17q107 0 133 17q-5 -23 -5 -103q0 -64 5 -196q-63 20 -165 20q-87 0 -130 -20zM654 1850q12 53 12 158q0 107 -16 141q44 -17 166 -17q107 0 133 17q-5 -23 -5 -103q0 -64 5 -196
q-63 20 -165 20q-87 0 -130 -20z" />
    <glyph glyph-name="multiply" unicode="&#xd7;" horiz-adv-x="1398" 
d="M448 894q-65 136 -218 280q-60 57 -131 119h-99q16 81 16 150q0 70 -16 151q114 -27 267 -27t232 27q-13 -72 -13 -151t13 -150h-99q132 -177 199 -299q28 68 131 206q46 61 69 93h-100q16 81 16 150q0 70 -16 151q114 -27 267 -27t233 27q-15 -77 -15 -151t15 -150h-101
q-268 -251 -351 -399q56 -99 233 -282q68 -70 118 -118h101q-15 -74 -15 -149t15 -150q-92 28 -233 28q-138 0 -267 -28q16 80 16 150q0 69 -16 149h100l-110 154q-66 91 -90 146q-67 -122 -199 -300h99q-13 -69 -13 -149q0 -81 13 -150q-89 28 -232 28q-138 0 -267 -28
q16 80 16 150q0 69 -16 149h99q275 243 349 400z" />
    <glyph glyph-name="Oslash" unicode="&#xd8;" horiz-adv-x="1278" 
d="M369 448q-4 -58 -9 -93q44 14 179 14q128 0 180 -14q-10 120 -10 431v149zM715 1237q2 45 4 77h-8q-22 0 -100 -3l-121 -5q-24 -1 -44 -1q-61 0 -86 9q14 -211 15 -531zM773 1q-142 15 -247 15q-104 0 -192 -17l-206 -137l141 211q-55 78 -199 218l-202 -134l132 198
q10 101 18 389l-243 48l243 49q0 295 -18 473l-130 191l200 -134q93 92 195 234l-135 204l211 -142q40 -4 168 -4q197 0 258 11l199 133l-137 -206q90 -94 187 -180l206 138l-141 -211q-16 -187 -16 -496l239 -47l-239 -49q0 -427 14 -461l122 -203l-204 135l-60 -56
q-21 -21 -102 -96l141 -212z" />
    <glyph glyph-name="Ugrave" unicode="&#xd9;" horiz-adv-x="1517" 
d="M590 1377l70 -103l70 105q0 7 2 39l3 49q0 10 1 38q1 12 1 26q0 26 -3 56l-74 110l-74 -112q-2 -28 -2 -82q0 -63 6 -126zM800 1310l-114 -76l40 -60l-64 44l-74 -51l46 69l-118 78h-35q15 -224 15 -570q0 -288 -15 -389q44 14 179 14q128 0 180 -14q-10 120 -10 431
q0 388 10 528zM712 1773l-28 -42l108 -72q130 -20 248 -20q106 0 200 16l203 136l-138 -206q-4 -55 -4 -84q0 -70 10 -119l142 -213l-211 143l1 2h-43q-15 -42 -15 -473l236 -49l-236 -48l1 -216q0 -73 6 -239l133 -197l-205 137q-55 -52 -164 -154l141 -212l-204 138
q-141 15 -244 15q-100 0 -189 -17l-207 -137l141 211q-80 105 -205 220l-204 -136l136 198q10 98 18 381l-236 48l236 48q0 311 -18 482h-44l-212 -143l146 208q8 80 8 120q0 49 -6 95l-134 198l200 -133q130 -20 246 -20q103 0 195 16l116 76l-38 58l62 -42l43 29
q-162 53 -195 141q-8 22 -8 59q0 26 4 69q-1 9 -1 21q0 30 4 76q5 63 5 99v14q0 60 -8 91q25 -19 134 -19q128 0 165 19q-15 -36 -15 -143q0 -101 11 -158q-39 21 -141 21q0 -159 145 -316q-49 11 -91 23z" />
    <glyph glyph-name="Uacute" unicode="&#xda;" horiz-adv-x="1517" 
d="M590 1377l70 -103l70 105q0 7 2 39l3 49q0 10 1 38q1 12 1 26q0 26 -3 56l-74 110l-74 -112q-2 -28 -2 -82q0 -63 6 -126zM800 1310l-114 -76l40 -60l-64 44l-74 -51l46 69l-118 78h-35q15 -224 15 -570q0 -288 -15 -389q44 14 179 14q128 0 180 -14q-10 120 -10 431
q0 388 10 528zM622 1773l38 -26l64 44l-40 -60l108 -72q130 -20 248 -20q106 0 200 16l203 136l-138 -206q-4 -55 -4 -84q0 -70 10 -119l142 -213l-211 143l1 2h-43q-15 -42 -15 -473l236 -49l-236 -48l1 -216q0 -73 6 -239l133 -197l-205 137q-55 -52 -164 -154l141 -212
l-204 138q-141 15 -244 15q-100 0 -189 -17l-207 -137l141 211q-80 105 -205 220l-204 -136l136 198q10 98 18 381l-236 48l236 48q0 311 -18 482h-44l-212 -143l146 208q8 80 8 120q0 49 -6 95l-134 198l200 -133q130 -20 246 -20q103 0 195 16l116 76l-25 38
q-30 -8 -64 -15q145 157 145 316q-102 0 -141 -21q11 57 11 158q0 107 -15 143q37 -19 165 -19q109 0 134 19q-8 -31 -8 -91v-14q0 -36 5 -99q4 -46 4 -76q0 -12 -1 -21q4 -43 4 -69q0 -37 -8 -59q-35 -95 -220 -148z" />
    <glyph glyph-name="Ucircumflex" unicode="&#xdb;" horiz-adv-x="1517" 
d="M590 1377l70 -103l70 105q0 7 2 39l3 49q0 10 1 38q1 12 1 26q0 26 -3 56l-74 110l-74 -112q-2 -28 -2 -82q0 -63 6 -126zM800 1310l-114 -76l40 -60l-64 44l-74 -51l46 69l-118 78h-35q15 -224 15 -570q0 -288 -15 -389q44 14 179 14q128 0 180 -14q-10 120 -10 431
q0 388 10 528zM893 1q-141 15 -244 15q-100 0 -189 -17l-207 -137l141 211q-80 105 -205 220l-204 -136l136 198q10 98 18 381l-236 48l236 48q0 311 -18 482h-44l-212 -143l146 208q8 80 8 120q0 49 -6 95l-134 198l200 -133q130 -20 246 -20q103 0 195 16l116 76l-38 58
l62 -42l64 44l-40 -60l108 -72q130 -20 248 -20q106 0 200 16l203 136l-138 -206q-4 -55 -4 -84q0 -70 10 -119l142 -213l-211 143l1 2h-43q-15 -42 -15 -473l236 -49l-236 -48l1 -216q0 -73 6 -239l133 -197l-205 137q-55 -52 -164 -154l141 -212zM400 1788v13q0 28 3 68
q5 57 5 81v11q0 48 -8 79l90 47q126 68 158 113q97 -88 251 -160q-13 -35 -13 -109q0 -87 13 -151q-111 137 -251 180q-104 -35 -248 -172z" />
    <glyph glyph-name="Udieresis" unicode="&#xdc;" horiz-adv-x="1517" 
d="M590 1377l70 -103l70 105q0 7 2 39l3 49q0 10 1 38q1 12 1 26q0 26 -3 56l-74 110l-74 -112q-2 -28 -2 -82q0 -63 6 -126zM800 1310l-114 -76l40 -60l-64 44l-74 -51l46 69l-118 78h-35q15 -224 15 -570q0 -288 -15 -389q44 14 179 14q128 0 180 -14q-10 120 -10 431
q0 388 10 528zM893 1q-141 15 -244 15q-100 0 -189 -17l-207 -137l141 211q-80 105 -205 220l-204 -136l136 198q10 98 18 381l-236 48l236 48q0 311 -18 482h-44l-212 -143l146 208q8 80 8 120q0 49 -6 95l-134 198l200 -133q130 -20 246 -20q103 0 195 16l116 76l-38 58
l62 -42l64 44l-40 -60l108 -72q130 -20 248 -20q106 0 200 16l203 136l-138 -206q-4 -55 -4 -84q0 -70 10 -119l142 -213l-211 143l1 2h-43q-15 -42 -15 -473l236 -49l-236 -48l1 -216q0 -73 6 -239l133 -197l-205 137q-55 -52 -164 -154l141 -212zM255 1850q12 53 12 158
q0 107 -16 141q44 -17 166 -17q107 0 133 17q-5 -23 -5 -103q0 -64 5 -196q-63 20 -165 20q-87 0 -130 -20zM805 1850q12 53 12 158q0 107 -16 141q44 -17 166 -17q107 0 133 17q-5 -23 -5 -103q0 -64 5 -196q-63 20 -165 20q-87 0 -130 -20z" />
    <glyph glyph-name="Yacute" unicode="&#xdd;" horiz-adv-x="1637" 
d="M851 1594l-127 163l-136 -165q-4 -31 -4 -93q0 -70 8 -126l124 -183l133 183q9 95 9 124q0 52 -7 97zM920 1314l-204 -140l-183 140h-52q88 -120 126 -177q68 -99 113 -183q30 70 155 243l85 117h-40zM1009 305q-9 -73 -9 -129q0 -52 5 -101l136 -204l-199 134
q-78 9 -212 9q-150 0 -234 -9l-203 -136l137 206q6 45 6 94q0 62 -8 116l-137 206l203 -136h44q18 71 18 229q0 106 -8 177l-242 47l223 44q-65 126 -195 263q-82 85 -213 199h-36l-212 -143l138 206q6 68 6 204l-142 211l200 -133q114 -20 248 -20q111 0 189 14l216 124
l190 -118q111 -20 247 -20q112 0 191 14l202 138l-131 -197q-6 -48 -6 -99q0 -57 6 -113l142 -213l-211 143l2 2h-40q-130 -119 -288 -302q-82 -94 -122 -158l231 -46l-250 -49q-11 -88 -11 -175q0 -124 18 -229l29 4l212 141zM551 2049q11 57 11 158q0 107 -15 143
q37 -19 165 -19q109 0 134 19q-8 -31 -8 -91v-14q0 -36 5 -99q4 -46 4 -76q0 -12 -1 -21q4 -43 4 -69q0 -37 -8 -59q-42 -113 -295 -167q145 157 145 316q-102 0 -141 -21z" />
    <glyph glyph-name="Thorn" unicode="&#xde;" horiz-adv-x="1398" 
d="M481 974q8 -89 8 -158q0 -68 -8 -142q47 12 123 12q65 0 116 -8q53 56 120 56q-2 31 -8 65q0 8 -1 12l3 25q4 39 6 65q-11 0 -60 36t-60 37h-12q-25 0 -62 -3q-54 -5 -74 -5h-13q-56 0 -78 8zM112 739l-244 48l244 49q0 295 -18 473h-32l-212 -143l134 200q8 54 8 120
q0 63 -8 110l-128 191l202 -135q114 -18 238 -18q111 0 189 14l212 141l-136 -202q-6 -48 -6 -97q0 -40 8 -124l34 -50q153 3 243 13l204 138l-138 -204q77 -71 214 -173l211 141l-131 -198q-15 -29 -15 -168q0 -145 15 -275l133 -200l-211 142q-83 -29 -231 -100l135 -201
l-206 148q-52 10 -156 10h-5l-69 -102q-8 -54 -8 -120q0 -58 4 -88l136 -204l-212 143q-77 11 -179 11q-136 0 -250 -19l-204 -137l136 204q6 48 6 99q0 46 -6 95l-142 212l191 -128q42 23 50 384z" />
    <glyph glyph-name="germandbls" unicode="&#xdf;" horiz-adv-x="1398" 
d="M1343 828l-202 68q-59 -39 -75 -76q25 -42 86 -57zM481 654q8 -71 8 -139q0 -70 -8 -160l-2 -11h25v-14q0 -47 -4 -48l137 -199l-212 141q-79 -71 -169 -168l137 -206l-201 136q-61 7 -117 11l-198 -132l136 204q6 51 6 102q0 65 -8 116l-136 204l204 -136h42
q10 101 18 393l-244 48l244 49q0 223 -15 405h3q-3 37 -6 68l-130 203l212 -142q108 127 170 210l-142 211l197 -131q30 -8 145 -8q117 0 202 5v-3l36 2l213 142l-131 -192q101 -92 248 -200l202 137l-149 -204q-6 -48 -6 -143q0 -108 8 -227l175 -148l-169 -153l-6 10
q-8 -125 -8 -229q0 -132 12 -163l129 -203l-204 149q-131 -95 -215 -174l135 -204l-205 136q-71 8 -190 13v348q41 -2 70 -5q9 0 57 36t63 36q-3 43 -9 76l-1 2q2 0 10 90q-25 55 -120 55q-18 8 -45 14v336q34 11 45 18q105 7 120 56q-2 31 -10 75q0 2 1 2l3 25q4 39 6 65
q-11 0 -60 36t-60 37h-12l-49 -2q-6 0 -13 -1q-27 -3 -46 -4v3q-18 -1 -33 -1q-61 0 -86 9q3 -39 5 -82h-2q2 -33 3 -80q0 -68 -10 -331z" />
    <glyph glyph-name="agrave" unicode="&#xe0;" horiz-adv-x="1298" 
d="M699 1590q86 -98 300 -246q-12 -30 -12 -354q0 -451 12 -496h99q-14 -69 -14 -149q0 -81 14 -150q-80 16 -250 16q-168 0 -249 -16q16 77 16 150q0 72 -16 149h100q10 105 10 174q0 76 -10 126q-77 16 -150 16q-72 0 -149 -16q-9 -66 -9 -161q0 -92 9 -139h99
q-13 -69 -13 -149q0 -81 13 -150q-80 16 -249 16q-170 0 -250 -16q16 80 16 150q0 69 -16 149h99q13 37 13 496q0 330 -13 354q96 65 216 166q56 46 85 80h299zM699 1054q-8 77 -8 86q0 5 3 27q1 5 5 67q-9 0 -30 15l-40 30q-20 14 -30 14q-24 -8 -52 -8q-27 0 -48 8
q-9 0 -48.5 -29.5t-50.5 -29.5q2 -27 6 -70l2 -24q0 -5 -8 -86q24 14 130 14q120 0 169 -14zM558 1966q0 -159 145 -316q-253 54 -295 167q-8 22 -8 59q0 26 4 69q-1 9 -1 21q0 30 4 76q5 63 5 99v14q0 60 -8 91q25 -19 134 -19q128 0 165 19q-15 -36 -15 -143
q0 -101 11 -158q-39 21 -141 21z" />
    <glyph glyph-name="aacute" unicode="&#xe1;" horiz-adv-x="1298" 
d="M699 1590q86 -98 300 -246q-12 -30 -12 -354q0 -451 12 -496h99q-14 -69 -14 -149q0 -81 14 -150q-80 16 -250 16q-168 0 -249 -16q16 77 16 150q0 72 -16 149h100q10 105 10 174q0 76 -10 126q-77 16 -150 16q-72 0 -149 -16q-9 -66 -9 -161q0 -92 9 -139h99
q-13 -69 -13 -149q0 -81 13 -150q-80 16 -249 16q-170 0 -250 -16q16 80 16 150q0 69 -16 149h99q13 37 13 496q0 330 -13 354q96 65 216 166q56 46 85 80h299zM699 1054q-8 77 -8 86q0 5 3 27q1 5 5 67q-9 0 -30 15l-40 30q-20 14 -30 14q-24 -8 -52 -8q-27 0 -48 8
q-9 0 -48.5 -29.5t-50.5 -29.5q2 -27 6 -70l2 -24q0 -5 -8 -86q24 14 130 14q120 0 169 -14zM404 1945q11 57 11 158q0 107 -15 143q37 -19 165 -19q109 0 134 19q-8 -31 -8 -91v-14q0 -36 5 -99q4 -46 4 -76q0 -12 -1 -21q4 -43 4 -69q0 -37 -8 -59q-42 -113 -295 -167
q145 157 145 316q-102 0 -141 -21z" />
    <glyph glyph-name="acircumflex" unicode="&#xe2;" horiz-adv-x="1298" 
d="M699 1590q86 -98 300 -246q-12 -30 -12 -354q0 -451 12 -496h99q-14 -69 -14 -149q0 -81 14 -150q-80 16 -250 16q-168 0 -249 -16q16 77 16 150q0 72 -16 149h100q10 105 10 174q0 76 -10 126q-77 16 -150 16q-72 0 -149 -16q-9 -66 -9 -161q0 -92 9 -139h99
q-13 -69 -13 -149q0 -81 13 -150q-80 16 -249 16q-170 0 -250 -16q16 80 16 150q0 69 -16 149h99q13 37 13 496q0 330 -13 354q96 65 216 166q56 46 85 80h299zM699 1054q-8 77 -8 86q0 5 3 27q1 5 5 67q-9 0 -30 15l-40 30q-20 14 -30 14q-24 -8 -52 -8q-27 0 -48 8
q-9 0 -48.5 -29.5t-50.5 -29.5q2 -27 6 -70l2 -24q0 -5 -8 -86q24 14 130 14q120 0 169 -14zM300 1688v13q0 28 3 68q5 57 5 81v11q0 48 -8 79l90 47q126 68 158 113q97 -88 251 -160q-13 -35 -13 -109q0 -87 13 -151q-111 137 -251 180q-104 -35 -248 -172z" />
    <glyph glyph-name="atilde" unicode="&#xe3;" horiz-adv-x="1298" 
d="M699 1590q86 -98 300 -246q-12 -30 -12 -354q0 -451 12 -496h99q-14 -69 -14 -149q0 -81 14 -150q-80 16 -250 16q-168 0 -249 -16q16 77 16 150q0 72 -16 149h100q10 105 10 174q0 76 -10 126q-77 16 -150 16q-72 0 -149 -16q-9 -66 -9 -161q0 -92 9 -139h99
q-13 -69 -13 -149q0 -81 13 -150q-80 16 -249 16q-170 0 -250 -16q16 80 16 150q0 69 -16 149h99q13 37 13 496q0 330 -13 354q96 65 216 166q56 46 85 80h299zM699 1054q-8 77 -8 86q0 5 3 27q1 5 5 67q-9 0 -30 15l-40 30q-20 14 -30 14q-24 -8 -52 -8q-27 0 -48 8
q-9 0 -48.5 -29.5t-50.5 -29.5q2 -27 6 -70l2 -24q0 -5 -8 -86q24 14 130 14q120 0 169 -14zM322 1673v10q0 22 3 56q5 47 5 66v8q0 37 -8 68q59 141 185 141q23 0 67.5 -4t67.5 -4q120 0 208 86q-33 -76 -33 -225q0 -25 4 -51q-43 -44 -112 -44q-28 0 -84.5 7.5t-85.5 7.5
q-133 0 -217 -122z" />
    <glyph glyph-name="adieresis" unicode="&#xe4;" horiz-adv-x="1298" 
d="M699 1590q86 -98 300 -246q-12 -30 -12 -354q0 -451 12 -496h99q-14 -69 -14 -149q0 -81 14 -150q-80 16 -250 16q-168 0 -249 -16q16 77 16 150q0 72 -16 149h100q10 105 10 174q0 76 -10 126q-77 16 -150 16q-72 0 -149 -16q-9 -66 -9 -161q0 -92 9 -139h99
q-13 -69 -13 -149q0 -81 13 -150q-80 16 -249 16q-170 0 -250 -16q16 80 16 150q0 69 -16 149h99q13 37 13 496q0 330 -13 354q96 65 216 166q56 46 85 80h299zM699 1054q-8 77 -8 86q0 5 3 27q1 5 5 67q-9 0 -30 15l-40 30q-20 14 -30 14q-24 -8 -52 -8q-27 0 -48 8
q-9 0 -48.5 -29.5t-50.5 -29.5q2 -27 6 -70l2 -24q0 -5 -8 -86q24 14 130 14q120 0 169 -14zM154 1700q12 53 12 158q0 107 -16 141q44 -17 166 -17q107 0 133 17q-5 -23 -5 -103q0 -64 5 -196q-63 20 -165 20q-87 0 -130 -20zM654 1700q12 53 12 158q0 107 -16 141
q44 -17 166 -17q107 0 133 17q-5 -23 -5 -103q0 -64 5 -196q-63 20 -165 20q-87 0 -130 -20z" />
    <glyph glyph-name="aring" unicode="&#xe5;" horiz-adv-x="1298" 
d="M699 1590q86 -98 300 -246q-12 -30 -12 -354q0 -451 12 -496h99q-14 -69 -14 -149q0 -81 14 -150q-80 16 -250 16q-168 0 -249 -16q16 77 16 150q0 72 -16 149h100q10 105 10 174q0 76 -10 126q-77 16 -150 16q-72 0 -149 -16q-9 -66 -9 -161q0 -92 9 -139h99
q-13 -69 -13 -149q0 -81 13 -150q-80 16 -249 16q-170 0 -250 -16q16 80 16 150q0 69 -16 149h99q13 37 13 496q0 330 -13 354q96 65 216 166q56 46 85 80h299zM699 1054q-8 77 -8 86q0 5 3 27q1 5 5 67q-9 0 -30 15l-40 30q-20 14 -30 14q-24 -8 -52 -8q-27 0 -48 8
q-9 0 -48.5 -29.5t-50.5 -29.5q2 -27 6 -70l2 -24q0 -5 -8 -86q24 14 130 14q120 0 169 -14zM404 1700q12 53 12 158q0 107 -16 141q44 -17 166 -17q107 0 133 17q-5 -23 -5 -103q0 -64 5 -196q-63 20 -165 20q-87 0 -130 -20z" />
    <glyph glyph-name="ae" unicode="&#xe6;" horiz-adv-x="1600" 
d="M699 1054q-8 77 -8 86q0 5 3 27q1 5 5 67q-9 0 -30 15l-40 30q-20 14 -30 14q-24 -8 -52 -8q-27 0 -48 8q-9 0 -48.5 -29.5t-50.5 -29.5q2 -27 6 -70l2 -24q0 -5 -8 -86q24 14 130 14q120 0 169 -14zM688 1590h11l1 -1q107 -5 313 -5q351 0 487 15q-14 -70 -14 -200
q0 -132 14 -200q-81 15 -150 15t-150 -15v99h-199q-8 -35 -12 -74q-1 -51 -2 -124q4 -54 14 -101q69 -14 208 -14q135 0 191 14q-14 -42 -14 -108q0 -64 14 -92q-77 16 -200 16q-122 0 -199 -16q-9 -40 -12 -84q1 -122 5 -178q3 -20 7 -38h199v101q69 -15 150 -15t150 15
q-14 -69 -14 -200q0 -132 14 -200q-132 4 -307 7.5t-345 3.5q-168 0 -249 -16q16 77 16 150q0 72 -16 149h3q0 2 -1 5h98q10 102 10 169q0 76 -10 126q-77 16 -150 16q-72 0 -149 -16q-9 -66 -9 -161q0 -92 9 -139h99q-13 -69 -13 -149q0 -81 13 -150q-80 16 -249 16
q-170 0 -250 -16q16 80 16 150q0 69 -16 149h99q13 37 13 496q0 330 -13 354q96 65 216 166q56 46 85 80h203q-1 4 -2 9q25 -6 87 -9z" />
    <glyph glyph-name="ccedilla" unicode="&#xe7;" 
d="M299 202q-20 -3 -40 -7q-36 109 -259 299q16 161 16 400q0 240 -16 399q57 28 183 193q52 68 76 108q35 -9 183 -9t197 9q104 -141 260 -250v-150q-79 13 -148 13q-57 0 -152 -13l1 99h-8q-9 -1 -182 -6h-32q-60 0 -79 6q15 -219 15 -473q0 -229 -15 -326q34 12 147 12
q106 0 153 -12v101q75 -17 136 -17q50 0 164 17q4 -66 4 -110q0 -38 -4 -40q-58 -40 -175 -159q-48 -49 -85 -91q-20 2 -39 4v-109q0 -38 -4 -40q-58 -40 -175 -159q-48 -49 -85 -91q-115 16 -183 16q-73 0 -153 -16l40 299q34 12 147 12q62 0 109 -12z" />
    <glyph glyph-name="egrave" unicode="&#xe8;" 
d="M0 195q16 80 16 150q0 69 -16 149h99q11 89 15 263q2 87 2 137q0 258 -17 399h-99q16 81 16 150q0 70 -16 151q68 -15 412 -15q351 0 487 15q-14 -70 -14 -200q0 -132 14 -200q-81 15 -150 15t-150 -15v99h-199q-15 -68 -15 -149q0 -82 15 -150q69 -14 208 -14
q135 0 191 14q-14 -42 -14 -108q0 -64 14 -92q-77 16 -200 16q-122 0 -199 -16q-15 -68 -15 -149q0 -82 15 -151h199v101q69 -15 150 -15t150 15q-14 -69 -14 -200q0 -132 14 -200q-163 16 -487 16q-329 0 -412 -16zM508 1966q0 -159 145 -316q-253 54 -295 167q-8 22 -8 59
q0 26 4 69q-1 9 -1 21q0 30 4 76q5 63 5 99v14q0 60 -8 91q25 -19 134 -19q128 0 165 19q-15 -36 -15 -143q0 -101 11 -158q-39 21 -141 21z" />
    <glyph glyph-name="eacute" unicode="&#xe9;" 
d="M0 195q16 80 16 150q0 69 -16 149h99q11 89 15 263q2 87 2 137q0 258 -17 399h-99q16 81 16 150q0 70 -16 151q68 -15 412 -15q351 0 487 15q-14 -70 -14 -200q0 -132 14 -200q-81 15 -150 15t-150 -15v99h-199q-15 -68 -15 -149q0 -82 15 -150q69 -14 208 -14
q135 0 191 14q-14 -42 -14 -108q0 -64 14 -92q-77 16 -200 16q-122 0 -199 -16q-15 -68 -15 -149q0 -82 15 -151h199v101q69 -15 150 -15t150 15q-14 -69 -14 -200q0 -132 14 -200q-163 16 -487 16q-329 0 -412 -16zM354 1945q11 57 11 158q0 107 -15 143q37 -19 165 -19
q109 0 134 19q-8 -31 -8 -91v-14q0 -36 5 -99q4 -46 4 -76q0 -12 -1 -21q4 -43 4 -69q0 -37 -8 -59q-42 -113 -295 -167q145 157 145 316q-102 0 -141 -21z" />
    <glyph glyph-name="ecircumflex" unicode="&#xea;" 
d="M0 195q16 80 16 150q0 69 -16 149h99q11 89 15 263q2 87 2 137q0 258 -17 399h-99q16 81 16 150q0 70 -16 151q68 -15 412 -15q351 0 487 15q-14 -70 -14 -200q0 -132 14 -200q-81 15 -150 15t-150 -15v99h-199q-15 -68 -15 -149q0 -82 15 -150q69 -14 208 -14
q135 0 191 14q-14 -42 -14 -108q0 -64 14 -92q-77 16 -200 16q-122 0 -199 -16q-15 -68 -15 -149q0 -82 15 -151h199v101q69 -15 150 -15t150 15q-14 -69 -14 -200q0 -132 14 -200q-163 16 -487 16q-329 0 -412 -16zM250 1688v13q0 28 3 68q5 57 5 81v11q0 48 -8 79l90 47
q126 68 158 113q97 -88 251 -160q-13 -35 -13 -109q0 -87 13 -151q-111 137 -251 180q-104 -35 -248 -172z" />
    <glyph glyph-name="edieresis" unicode="&#xeb;" 
d="M0 195q16 80 16 150q0 69 -16 149h99q11 89 15 263q2 87 2 137q0 258 -17 399h-99q16 81 16 150q0 70 -16 151q68 -15 412 -15q351 0 487 15q-14 -70 -14 -200q0 -132 14 -200q-81 15 -150 15t-150 -15v99h-199q-15 -68 -15 -149q0 -82 15 -150q69 -14 208 -14
q135 0 191 14q-14 -42 -14 -108q0 -64 14 -92q-77 16 -200 16q-122 0 -199 -16q-15 -68 -15 -149q0 -82 15 -151h199v101q69 -15 150 -15t150 15q-14 -69 -14 -200q0 -132 14 -200q-163 16 -487 16q-329 0 -412 -16zM55 1700q12 53 12 158q0 107 -16 141q44 -17 166 -17
q107 0 133 17q-5 -23 -5 -103q0 -64 5 -196q-63 20 -165 20q-87 0 -130 -20zM555 1700q12 53 12 158q0 107 -16 141q44 -17 166 -17q107 0 133 17q-5 -23 -5 -103q0 -64 5 -196q-63 20 -165 20q-87 0 -130 -20z" />
    <glyph glyph-name="igrave" unicode="&#xec;" horiz-adv-x="699" 
d="M499 494q-13 -69 -13 -149q0 -81 13 -150q-80 16 -249 16q-170 0 -250 -16q16 80 16 150q0 69 -16 149h99q11 89 15 263q2 87 2 137q0 258 -17 399h-99q16 81 16 150q0 70 -16 151q114 -27 267 -27t232 27q-13 -72 -13 -151t13 -150h-99q-15 -135 -15 -399
q0 -263 15 -400h99zM258 1966q0 -159 145 -316q-253 54 -295 167q-8 22 -8 59q0 26 4 69q-1 9 -1 21q0 30 4 76q5 63 5 99v14q0 60 -8 91q25 -19 134 -19q128 0 165 19q-15 -36 -15 -143q0 -101 11 -158q-39 21 -141 21z" />
    <glyph glyph-name="iacute" unicode="&#xed;" horiz-adv-x="699" 
d="M499 494q-13 -69 -13 -149q0 -81 13 -150q-80 16 -249 16q-170 0 -250 -16q16 80 16 150q0 69 -16 149h99q11 89 15 263q2 87 2 137q0 258 -17 399h-99q16 81 16 150q0 70 -16 151q114 -27 267 -27t232 27q-13 -72 -13 -151t13 -150h-99q-15 -135 -15 -399
q0 -263 15 -400h99zM104 1949q11 57 11 158q0 107 -15 143q37 -19 165 -19q109 0 134 19q-8 -31 -8 -91v-14q0 -36 5 -99q4 -46 4 -76q0 -12 -1 -21q4 -43 4 -69q0 -37 -8 -59q-42 -113 -295 -167q145 157 145 316q-102 0 -141 -21z" />
    <glyph glyph-name="icircumflex" unicode="&#xee;" horiz-adv-x="699" 
d="M499 494q-13 -69 -13 -149q0 -81 13 -150q-80 16 -249 16q-170 0 -250 -16q16 80 16 150q0 69 -16 149h99q11 89 15 263q2 87 2 137q0 258 -17 399h-99q16 81 16 150q0 70 -16 151q114 -27 267 -27t232 27q-13 -72 -13 -151t13 -150h-99q-15 -135 -15 -399
q0 -263 15 -400h99zM1 1688v13q0 28 3 68q5 57 5 81v11q0 48 -8 79l90 47q126 68 158 113q97 -88 251 -160q-13 -35 -13 -109q0 -87 13 -151q-111 137 -251 180q-104 -35 -248 -172z" />
    <glyph glyph-name="idieresis" unicode="&#xef;" horiz-adv-x="699" 
d="M499 494q-13 -69 -13 -149q0 -81 13 -150q-80 16 -249 16q-170 0 -250 -16q16 80 16 150q0 69 -16 149h99q11 89 15 263q2 87 2 137q0 258 -17 399h-99q16 81 16 150q0 70 -16 151q114 -27 267 -27t232 27q-13 -72 -13 -151t13 -150h-99q-15 -135 -15 -399
q0 -263 15 -400h99zM-145 1701q12 53 12 158q0 107 -16 141q44 -17 166 -17q107 0 133 17q-5 -23 -5 -103q0 -64 5 -196q-63 20 -165 20q-87 0 -130 -20zM355 1701q12 53 12 158q0 107 -16 141q44 -17 166 -17q107 0 133 17q-5 -23 -5 -103q0 -64 5 -196q-63 20 -165 20
q-87 0 -130 -20z" />
    <glyph glyph-name="eth" unicode="&#xf0;" 
d="M406 761q-1 -203 -6 -267q15 6 44 6q40 -4 55 -6q8 0 48 30.5t52 30.5q-8 77 -8 299q0 239 8 380q-8 0 -29 15l-40 30q-21 14 -31 14h-5q-8 0 -22 -2q-20 -4 -28 -4q-5 -1 -11 -1q-16 0 -33 7q4 -69 6 -253q66 3 93 10q-14 -42 -14 -158q0 -114 14 -142q-30 7 -93 11z
M114 1038q-3 156 -15 255h-99q16 81 16 150q0 70 -16 151q93 -19 295 -19q182 0 304 15q88 -98 300 -246q-8 -26 -11 -313l-2 -213q0 -342 13 -373q-199 -133 -300 -246q-126 14 -304 14q-199 0 -295 -18q16 80 16 150q0 69 -16 149h99q11 89 15 213q1 28 1 57
q-69 -4 -115 -14q18 48 18 152q0 102 -18 148q44 -9 114 -12z" />
    <glyph glyph-name="ntilde" unicode="&#xf1;" horiz-adv-x="1398" 
d="M699 1293q16 45 16 156q0 113 -16 145q69 -15 250 -15t250 15q-15 -77 -15 -151t15 -150h-101q-10 -106 -13 -247q-1 -48 -1 -152q0 -259 14 -400h101q-15 -74 -15 -149t15 -150q-91 28 -183 28q-89 0 -217 -28q-71 228 -286 662q-87 176 -113 177q-9 -47 -9 -240
q0 -210 9 -300h99q-13 -69 -13 -149q0 -81 13 -150q-89 28 -232 28q-138 0 -267 -28q16 80 16 150q0 69 -16 149h99q11 89 15 263q2 87 2 137q0 258 -17 399h-99q16 81 16 150q0 70 -16 151q68 -15 200 -15q131 0 200 15q25 -118 275 -557q96 -171 124 -203q18 59 18 270
q0 137 -7 185q-23 19 -63 19q-34 0 -48 -15zM372 1673v10q0 22 3 56q5 47 5 66v8q0 37 -8 68q59 141 185 141q23 0 67.5 -4t67.5 -4q120 0 208 86q-33 -76 -33 -225q0 -25 4 -51q-43 -44 -112 -44q-28 0 -84.5 7.5t-85.5 7.5q-133 0 -217 -122z" />
    <glyph glyph-name="ograve" unicode="&#xf2;" 
d="M0 494q16 161 16 400q0 240 -16 399q57 28 183 193q52 68 76 108q35 -9 183 -9t197 9q104 -141 260 -250q-8 -26 -11 -313l-2 -213q0 -342 13 -373q-58 -40 -175 -159q-48 -49 -85 -91q-159 16 -227 16q-73 0 -153 -16q-36 109 -259 299zM470 508q50 0 130 -8
q-5 130 -10 400q3 143 5 285l5 119q-49 0 -159 -13q-56 4 -116 9q8 -112 15 -400q-5 -54 -15 -400q43 0 145 8zM508 1966q0 -159 145 -316q-253 54 -295 167q-8 22 -8 59q0 26 4 69q-1 9 -1 21q0 30 4 76q5 63 5 99v14q0 60 -8 91q25 -19 134 -19q128 0 165 19
q-15 -36 -15 -143q0 -101 11 -158q-39 21 -141 21z" />
    <glyph glyph-name="oacute" unicode="&#xf3;" 
d="M0 494q16 161 16 400q0 240 -16 399q57 28 183 193q52 68 76 108q35 -9 183 -9t197 9q104 -141 260 -250q-8 -26 -11 -313l-2 -213q0 -342 13 -373q-58 -40 -175 -159q-48 -49 -85 -91q-159 16 -227 16q-73 0 -153 -16q-36 109 -259 299zM470 508q50 0 130 -8
q-5 130 -10 400q3 143 5 285l5 119q-49 0 -159 -13q-56 4 -116 9q8 -112 15 -400q-5 -54 -15 -400q43 0 145 8zM354 1945q11 57 11 158q0 107 -15 143q37 -19 165 -19q109 0 134 19q-8 -31 -8 -91v-14q0 -36 5 -99q4 -46 4 -76q0 -12 -1 -21q4 -43 4 -69q0 -37 -8 -59
q-42 -113 -295 -167q145 157 145 316q-102 0 -141 -21z" />
    <glyph glyph-name="ocircumflex" unicode="&#xf4;" 
d="M0 494q16 161 16 400q0 240 -16 399q57 28 183 193q52 68 76 108q35 -9 183 -9t197 9q104 -141 260 -250q-8 -26 -11 -313l-2 -213q0 -342 13 -373q-58 -40 -175 -159q-48 -49 -85 -91q-159 16 -227 16q-73 0 -153 -16q-36 109 -259 299zM470 508q50 0 130 -8
q-5 130 -10 400q3 143 5 285l5 119q-49 0 -159 -13q-56 4 -116 9q8 -112 15 -400q-5 -54 -15 -400q43 0 145 8zM225 1688v13q0 28 3 68q5 57 5 81v11q0 48 -8 79l90 47q126 68 158 113q97 -88 251 -160q-13 -35 -13 -109q0 -87 13 -151q-111 137 -251 180
q-104 -35 -248 -172z" />
    <glyph glyph-name="otilde" unicode="&#xf5;" 
d="M0 494q16 161 16 400q0 240 -16 399q57 28 183 193q52 68 76 108q35 -9 183 -9t197 9q104 -141 260 -250q-8 -26 -11 -313l-2 -213q0 -342 13 -373q-58 -40 -175 -159q-48 -49 -85 -91q-159 16 -227 16q-73 0 -153 -16q-36 109 -259 299zM470 508q50 0 130 -8
q-5 130 -10 400q3 143 5 285l5 119q-49 0 -159 -13q-56 4 -116 9q8 -112 15 -400q-5 -54 -15 -400q43 0 145 8zM200 1673v10q0 22 3 56q5 47 5 66v8q0 37 -8 68q59 141 185 141q23 0 67.5 -4t67.5 -4q120 0 208 86q-33 -76 -33 -225q0 -25 4 -51q-43 -44 -112 -44
q-28 0 -84.5 7.5t-85.5 7.5q-133 0 -217 -122z" />
    <glyph glyph-name="odieresis" unicode="&#xf6;" 
d="M0 494q16 161 16 400q0 240 -16 399q57 28 183 193q52 68 76 108q35 -9 183 -9t197 9q104 -141 260 -250q-8 -26 -11 -313l-2 -213q0 -342 13 -373q-58 -40 -175 -159q-48 -49 -85 -91q-159 16 -227 16q-73 0 -153 -16q-36 109 -259 299zM470 508q50 0 130 -8
q-5 130 -10 400q3 143 5 285l5 119q-49 0 -159 -13q-56 4 -116 9q8 -112 15 -400q-5 -54 -15 -400q43 0 145 8zM54 1700q12 53 12 158q0 107 -16 141q44 -17 166 -17q107 0 133 17q-5 -23 -5 -103q0 -64 5 -196q-63 20 -165 20q-87 0 -130 -20zM554 1700q12 53 12 158
q0 107 -16 141q44 -17 166 -17q107 0 133 17q-5 -23 -5 -103q0 -64 5 -196q-63 20 -165 20q-87 0 -130 -20z" />
    <glyph glyph-name="divide" unicode="&#xf7;" horiz-adv-x="798" 
d="M0 794q18 48 18 102q0 52 -18 98q69 -14 307 -14q236 0 292 14q-14 -42 -14 -108q0 -64 14 -92q-68 16 -300 16q-227 0 -299 -16zM154 1100q12 53 12 158q0 108 -16 142q44 -18 166 -18q107 0 133 18q-5 -24 -5 -104q0 -64 5 -196q-63 20 -165 20q-87 0 -130 -20z
M154 400q12 53 12 158q0 107 -16 141q44 -17 166 -17q107 0 133 17q-5 -23 -5 -103q0 -64 5 -196q-63 20 -165 20q-87 0 -130 -20z" />
    <glyph glyph-name="oslash" unicode="&#xf8;" 
d="M327 564q-1 -31 -2 -64q43 0 145 8q50 0 130 -8q-5 130 -10 400q1 24 1 48zM599 1289l1 15q-49 0 -159 -13q-56 4 -116 9q8 -107 14 -372zM0 494q16 161 16 400q0 240 -16 399q57 28 183 193q52 68 76 108q35 -9 183 -9t197 9q104 -141 260 -250q-8 -26 -11 -313l-2 -213
q0 -342 13 -373q-58 -40 -175 -159q-48 -49 -85 -91q-159 16 -227 16q-73 0 -153 -16q-36 109 -259 299z" />
    <glyph glyph-name="ugrave" unicode="&#xf9;" horiz-adv-x="1298" 
d="M99 1293h-99q16 81 16 150q0 70 -16 151q114 -27 267 -27t232 27q-13 -72 -13 -151t13 -150h-99q14 -205 14 -473q0 -235 -14 -326q32 12 145 12q105 0 154 -12q-8 80 -8 272v81l1 138q0 51 2 114l5 194h-100q16 78 16 150q0 73 -16 151q114 -27 268 -27q152 0 231 27
q-14 -72 -14 -151t14 -150h-99q-12 -40 -12 -495q0 -324 12 -353q-60 -40 -179 -163q-53 -55 -81 -87q-161 16 -228 16q-71 0 -151 -16q-34 107 -261 299q11 89 15 263q2 87 2 137q0 258 -17 399zM558 1966q0 -159 145 -316q-253 54 -295 167q-8 22 -8 59q0 26 4 69
q-1 9 -1 21q0 30 4 76q5 63 5 99v14q0 60 -8 91q25 -19 134 -19q128 0 165 19q-15 -36 -15 -143q0 -101 11 -158q-39 21 -141 21z" />
    <glyph glyph-name="uacute" unicode="&#xfa;" horiz-adv-x="1298" 
d="M99 1293h-99q16 81 16 150q0 70 -16 151q114 -27 267 -27t232 27q-13 -72 -13 -151t13 -150h-99q14 -205 14 -473q0 -235 -14 -326q32 12 145 12q105 0 154 -12q-8 80 -8 272v81l1 138q0 51 2 114l5 194h-100q16 78 16 150q0 73 -16 151q114 -27 268 -27q152 0 231 27
q-14 -72 -14 -151t14 -150h-99q-12 -40 -12 -495q0 -324 12 -353q-60 -40 -179 -163q-53 -55 -81 -87q-161 16 -228 16q-71 0 -151 -16q-34 107 -261 299q11 89 15 263q2 87 2 137q0 258 -17 399zM404 1945q11 57 11 158q0 107 -15 143q37 -19 165 -19q109 0 134 19
q-8 -31 -8 -91v-14q0 -36 5 -99q4 -46 4 -76q0 -12 -1 -21q4 -43 4 -69q0 -37 -8 -59q-42 -113 -295 -167q145 157 145 316q-102 0 -141 -21z" />
    <glyph glyph-name="ucircumflex" unicode="&#xfb;" horiz-adv-x="1298" 
d="M99 1293h-99q16 81 16 150q0 70 -16 151q114 -27 267 -27t232 27q-13 -72 -13 -151t13 -150h-99q14 -205 14 -473q0 -235 -14 -326q32 12 145 12q105 0 154 -12q-8 80 -8 272v81l1 138q0 51 2 114l5 194h-100q16 78 16 150q0 73 -16 151q114 -27 268 -27q152 0 231 27
q-14 -72 -14 -151t14 -150h-99q-12 -40 -12 -495q0 -324 12 -353q-60 -40 -179 -163q-53 -55 -81 -87q-161 16 -228 16q-71 0 -151 -16q-34 107 -261 299q11 89 15 263q2 87 2 137q0 258 -17 399zM300 1688v13q0 28 3 68q5 57 5 81v11q0 48 -8 79l90 47q126 68 158 113
q97 -88 251 -160q-13 -35 -13 -109q0 -87 13 -151q-111 137 -251 180q-104 -35 -248 -172z" />
    <glyph glyph-name="udieresis" unicode="&#xfc;" horiz-adv-x="1298" 
d="M99 1293h-99q16 81 16 150q0 70 -16 151q114 -27 267 -27t232 27q-13 -72 -13 -151t13 -150h-99q14 -205 14 -473q0 -235 -14 -326q32 12 145 12q105 0 154 -12q-8 80 -8 272v81l1 138q0 51 2 114l5 194h-100q16 78 16 150q0 73 -16 151q114 -27 268 -27q152 0 231 27
q-14 -72 -14 -151t14 -150h-99q-12 -40 -12 -495q0 -324 12 -353q-60 -40 -179 -163q-53 -55 -81 -87q-161 16 -228 16q-71 0 -151 -16q-34 107 -261 299q11 89 15 263q2 87 2 137q0 258 -17 399zM154 1700q12 53 12 158q0 107 -16 141q44 -17 166 -17q107 0 133 17
q-5 -23 -5 -103q0 -64 5 -196q-63 20 -165 20q-87 0 -130 -20zM654 1700q12 53 12 158q0 107 -16 141q44 -17 166 -17q107 0 133 17q-5 -23 -5 -103q0 -64 5 -196q-63 20 -165 20q-87 0 -130 -20z" />
    <glyph glyph-name="yacute" unicode="&#xfd;" horiz-adv-x="1497" 
d="M599 994q28 68 131 206q46 61 69 93h-100q16 81 16 150q0 70 -16 151q114 -27 267 -27t233 27q-15 -77 -15 -151t15 -150h-101q-268 -251 -351 -399q-14 -79 -14 -188q0 -114 14 -212h100q-14 -69 -14 -149q0 -81 14 -150q-80 16 -250 16q-169 0 -250 -16q17 77 17 150
q0 72 -17 149h101q15 65 15 193q0 127 -15 207q-65 136 -218 280q-60 57 -131 119h-99q16 81 16 150q0 70 -16 151q114 -27 267 -27t232 27q-13 -72 -13 -151t13 -150h-99q132 -177 199 -299zM451 1949q11 57 11 158q0 107 -15 143q37 -19 165 -19q109 0 134 19
q-8 -31 -8 -91v-14q0 -36 5 -99q4 -46 4 -76q0 -12 -1 -21q4 -43 4 -69q0 -37 -8 -59q-42 -113 -295 -167q145 157 145 316q-102 0 -141 -21z" />
    <glyph glyph-name="thorn" unicode="&#xfe;" horiz-adv-x="1198" 
d="M401 950q5 -14 5 -32q0 -48 -6 -118q33 10 103 10q66 0 96 -7q47 47 100 47q-8 41 -29 56l-40 30q-20 14 -29 14q0 -1 -123 -6h-21q-39 0 -56 6zM394 1232q195 1 306 15q86 -98 300 -246q-10 -24 -11 -40q0 -206 14 -247q-120 -47 -253 -111q-51 -25 -51 -53
q-49 13 -148 13q-100 0 -151 -13v-56h99q-13 -69 -13 -149q0 -81 13 -150q-89 28 -232 28q-138 0 -267 -28q16 80 16 150q0 69 -16 149h99l15 19q2 87 2 137v317q-2 210 -17 332h-99q16 81 16 150q0 70 -16 151q114 -20 267 -20t232 20q-13 -72 -13 -151t13 -150h-99
q-3 -30 -6 -67z" />
    <glyph glyph-name="ydieresis" unicode="&#xff;" horiz-adv-x="1497" 
d="M599 994q28 68 131 206q46 61 69 93h-100q16 81 16 150q0 70 -16 151q114 -27 267 -27t233 27q-15 -77 -15 -151t15 -150h-101q-268 -251 -351 -399q-14 -79 -14 -188q0 -114 14 -212h100q-14 -69 -14 -149q0 -81 14 -150q-80 16 -250 16q-169 0 -250 -16q17 77 17 150
q0 72 -17 149h101q15 65 15 193q0 127 -15 207q-65 136 -218 280q-60 57 -131 119h-99q16 81 16 150q0 70 -16 151q114 -27 267 -27t232 27q-13 -72 -13 -151t13 -150h-99q132 -177 199 -299zM204 1700q12 53 12 158q0 107 -16 141q44 -17 166 -17q107 0 133 17
q-5 -23 -5 -103q0 -64 5 -196q-63 20 -165 20q-87 0 -130 -20zM704 1700q12 53 12 158q0 107 -16 141q44 -17 166 -17q107 0 133 17q-5 -23 -5 -103q0 -64 5 -196q-63 20 -165 20q-87 0 -130 -20z" />
    <glyph glyph-name="dotlessi" unicode="&#x131;" horiz-adv-x="699" 
d="M499 494q-13 -69 -13 -149q0 -81 13 -150q-80 16 -249 16q-170 0 -250 -16q16 80 16 150q0 69 -16 149h99q11 89 15 263q2 87 2 137q0 258 -17 399h-99q16 81 16 150q0 70 -16 151q114 -27 267 -27t232 27q-13 -72 -13 -151t13 -150h-99q-15 -135 -15 -399
q0 -263 15 -400h99z" />
    <glyph glyph-name="circumflex" unicode="&#x2c6;" horiz-adv-x="600" 
d="M1 1788v13q0 28 3 68q5 57 5 81v11q0 48 -8 79l90 47q126 68 158 113q97 -88 251 -160q-13 -35 -13 -109q0 -87 13 -151q-111 137 -251 180q-104 -35 -248 -172z" />
    <glyph glyph-name="caron" unicode="&#x2c7;" horiz-adv-x="600" 
d="M500 2192v-13q0 -28 -3 -68q-5 -57 -5 -81v-11q0 -48 8 -79l-90 -47q-126 -68 -158 -113q-97 88 -251 160q13 35 13 109q0 87 -13 151q111 -137 251 -180q104 35 248 172z" />
    <glyph glyph-name="uni02C9" unicode="&#x2c9;" horiz-adv-x="1024" 
d="M254 1195v125h516v-125h-516z" />
    <glyph glyph-name="breve" unicode="&#x2d8;" horiz-adv-x="1024" 
d="M219 1349h51q17 -73 75 -107t167 -34t166 33.5t74 107.5h51q-20 -133 -94 -201.5t-197 -68.5q-122 0 -197 69t-96 201z" />
    <glyph glyph-name="dotaccent" unicode="&#x2d9;" horiz-adv-x="1024" 
d="M422 1289l69 72q6 6 13 9t14 3q6 0 12.5 -3t12.5 -9l71 -76q5 -4 7 -10t2 -14q-1 -9 -3 -15t-8 -12l-71 -76q-12 -11 -16 -13.5t-7 -2.5q-10 0 -16.5 2.5t-10.5 8.5l-75 87q-4 4 -6 9.5t-2 13.5q0 6 3 12.5t11 13.5z" />
    <glyph glyph-name="ring" unicode="&#x2da;" horiz-adv-x="1024" 
d="M411 1257q0 -42 29 -71t71 -29t71 29t29 71q0 40 -29.5 69.5t-70.5 29.5t-70.5 -29.5t-29.5 -69.5zM335 1257q0 75 51 126t125 51q76 0 127.5 -51.5t51.5 -125.5q0 -75 -51.5 -126.5t-127.5 -51.5q-74 0 -125 51.5t-51 126.5z" />
    <glyph glyph-name="ogonek" unicode="&#x2db;" horiz-adv-x="800" 
d="M164 233q61 0 136 17l4 -151q47 12 109 12q113 0 147 -12l40 -299q-80 16 -153 16q-68 0 -183 -16q-37 42 -85 91q-117 119 -175 159q-4 2 -4 40v160q114 -17 164 -17z" />
    <glyph glyph-name="tilde" unicode="&#x2dc;" horiz-adv-x="750" 
d="M0 1773v10q0 22 3 56q5 47 5 66v8q0 37 -8 68q59 141 185 141q23 0 67.5 -4t67.5 -4q120 0 208 86q-33 -76 -33 -225q0 -25 4 -51q-43 -44 -112 -44q-28 0 -84.5 7.5t-85.5 7.5q-133 0 -217 -122z" />
    <glyph glyph-name="hungarumlaut" unicode="&#x2dd;" horiz-adv-x="1024" 
d="M217 1079l144 273q24 44 45.5 63t46.5 19q28 0 48 -20t20 -47q0 -16 -10.5 -35t-30.5 -41l-205 -212h-58zM502 1079l144 273q24 44 45.5 63t46.5 19q28 0 48 -20t20 -47q0 -16 -10.5 -35t-30.5 -41l-205 -212h-58z" />
    <glyph glyph-name="endash" unicode="&#x2013;" horiz-adv-x="1108" 
d="M56 419v120h996v-120h-996z" />
    <glyph glyph-name="emdash" unicode="&#x2014;" horiz-adv-x="2048" 
d="M0 419v120h2048v-120h-2048z" />
    <glyph glyph-name="quoteleft" unicode="&#x2018;" horiz-adv-x="499" 
d="M159 1278q102 0 142 21q-12 -57 -12 -158q0 -107 16 -143q-44 19 -166 19q-108 0 -133 -19q5 25 5 105q0 86 -5 196q-2 19 -6 69v5q0 26 10 54q40 112 295 167q-65 -69 -114 -176q-32 -70 -32 -140z" />
    <glyph glyph-name="quoteright" unicode="&#x2019;" horiz-adv-x="499" 
d="M146 1314q-102 0 -142 -21q12 57 12 158q0 107 -16 143q44 -19 166 -19q108 0 133 19q-5 -25 -5 -105q0 -86 5 -196q2 -19 6 -69v-5q0 -26 -10 -54q-40 -112 -295 -167q65 69 114 176q32 70 32 140z" />
    <glyph glyph-name="quotesinglbase" unicode="&#x201a;" horiz-adv-x="499" 
d="M146 215q-102 0 -142 -20q12 53 12 158q0 107 -16 141q44 -17 166 -17q107 0 133 17q-5 -23 -5 -103q0 -86 5 -196q2 -19 6 -70v-4q0 -26 -10 -54q-41 -112 -295 -167q64 68 114 176q32 69 32 139z" />
    <glyph glyph-name="quotedblleft" unicode="&#x201c;" horiz-adv-x="899" 
d="M559 1278q102 0 142 21q-12 -57 -12 -158q0 -107 16 -143q-44 19 -166 19q-108 0 -133 -19q5 25 5 105q0 86 -5 196q-2 19 -6 69v5q0 26 10 54q40 112 295 167q-65 -69 -114 -176q-32 -70 -32 -140zM160 1278q102 0 141 21q-11 -57 -11 -158q0 -107 15 -143
q-37 19 -166 19q-106 0 -133 -19q6 25 6 105q0 86 -6 196q-2 19 -6 69v5q0 26 10 54q41 112 295 167q-145 -157 -145 -316z" />
    <glyph glyph-name="quotedblright" unicode="&#x201d;" horiz-adv-x="899" 
d="M146 1314q-102 0 -142 -21q12 57 12 158q0 107 -16 143q44 -19 166 -19q108 0 133 19q-5 -25 -5 -105q0 -86 5 -196q2 -19 6 -69v-5q0 -26 -10 -54q-40 -112 -295 -167q65 69 114 176q32 70 32 140zM545 1314q-102 0 -141 -21q11 57 11 158q0 107 -15 143q37 -19 166 -19
q106 0 133 19q-6 -25 -6 -105q0 -86 6 -196q2 -19 6 -69v-5q0 -26 -10 -54q-41 -112 -295 -167q145 157 145 316z" />
    <glyph glyph-name="quotedblbase" unicode="&#x201e;" horiz-adv-x="900" 
d="M141 220q-102 0 -142 -21q12 57 12 158q0 107 -16 143q44 -19 166 -19q108 0 133 19q-5 -25 -5 -105q0 -86 5 -196q2 -19 6 -69v-5q0 -26 -10 -54q-40 -112 -295 -167q65 69 114 176q32 70 32 140zM540 220q-102 0 -141 -21q11 57 11 158q0 107 -15 143q37 -19 166 -19
q106 0 133 19q-6 -25 -6 -105q0 -86 6 -196q2 -19 6 -69v-5q0 -26 -10 -54q-41 -112 -295 -167q145 157 145 316z" />
    <glyph glyph-name="dagger" unicode="&#x2020;" horiz-adv-x="1650" 
d="M0 200v1100q0 200 200 200h1100q200 0 200 -200v-1100q0 -200 -200 -200h-1100q-200 0 -200 200zM1475 201v1099q0 175 -175 175h-1100q-174 0 -175 -175v-1100q1 -175 175 -175h1101q174 0 174 176z" />
    <glyph glyph-name="daggerdbl" unicode="&#x2021;" horiz-adv-x="1650" 
d="M0 200v1100q0 200 200 200h1100q200 0 200 -200v-1100q0 -200 -200 -200h-1100q-200 0 -200 200zM1475 201v1099q0 175 -175 175h-1100q-174 0 -175 -175v-1100q1 -175 175 -175h1101q174 0 174 176z" />
    <glyph glyph-name="bullet" unicode="&#x2022;" horiz-adv-x="1024" 
d="M216 718q0 123 87 209t210 86q122 0 208.5 -86.5t86.5 -208.5t-87.5 -209.5t-209.5 -87.5q-123 0 -209 87t-86 210z" />
    <glyph glyph-name="ellipsis" unicode="&#x2026;" horiz-adv-x="1300" 
d="M4 200q12 53 12 158q0 107 -16 141q44 -17 166 -17q107 0 133 17q-5 -23 -5 -103q0 -64 5 -196q-63 20 -165 20q-87 0 -130 -20zM405 200q12 53 12 158q0 107 -16 141q44 -17 166 -17q107 0 133 17q-5 -23 -5 -103q0 -64 5 -196q-63 20 -165 20q-87 0 -130 -20zM804 200
q12 53 12 158q0 107 -16 141q44 -17 166 -17q107 0 133 17q-5 -23 -5 -103q0 -64 5 -196q-63 20 -165 20q-87 0 -130 -20z" />
    <glyph glyph-name="guilsinglleft" unicode="&#x2039;" horiz-adv-x="798" 
d="M171 847q69 -26 166 -67q181 -88 246 -88q9 0 16 2q-14 -41 -14 -147q0 -65 14 -92q-78 15 -300 115q-188 87 -275 87q-13 0 -24 -2q18 47 18 141v120q0 82 -18 128q9 -2 21 -2q79 0 286 78q237 100 292 114q-14 -42 -14 -148q0 -64 14 -92q-11 2 -24 2q-80 0 -246 -86
q-91 -38 -158 -63z" />
    <glyph glyph-name="guilsinglright" unicode="&#x203a;" horiz-adv-x="798" 
d="M270 910q-166 86 -246 86q-13 0 -24 -2q14 28 14 92q0 106 -14 148q55 -14 292 -114q207 -78 286 -78q12 0 21 2q-18 -46 -18 -128v-120q0 -94 18 -141q-11 2 -24 2q-87 0 -275 -87q-222 -100 -300 -115q14 27 14 92q0 106 -14 147q7 -2 16 -2q65 0 246 88q97 41 166 67
q-67 25 -158 63z" />
    <glyph glyph-name="fraction" unicode="&#x2044;" horiz-adv-x="1398" 
d="M1098 1293q-76 -73 -382 -428l-213 -247q-79 -91 -103 -124h99q-13 -69 -13 -149q0 -81 13 -150q-89 28 -232 28q-138 0 -267 -28q16 80 16 150q0 69 -16 149h99q90 69 266 275q85 101 253 303q157 187 181 221h-100q16 81 16 150q0 70 -16 151q114 -27 267 -27t233 27
q-15 -77 -15 -151t15 -150h-101z" />
    <glyph glyph-name="fraction" unicode="&#x2215;" horiz-adv-x="1398" 
d="M1098 1293q-76 -73 -382 -428l-213 -247q-79 -91 -103 -124h99q-13 -69 -13 -149q0 -81 13 -150q-89 28 -232 28q-138 0 -267 -28q16 80 16 150q0 69 -16 149h99q90 69 266 275q85 101 253 303q157 187 181 221h-100q16 81 16 150q0 70 -16 151q114 -27 267 -27t233 27
q-15 -77 -15 -151t15 -150h-101z" />
    <glyph glyph-name="franc" unicode="&#x20a3;" 
d="M389 565q4 -37 11 -71h99q-13 -69 -13 -149q0 -81 13 -150q-89 28 -232 28q-138 0 -267 -28q16 80 16 150q0 69 -16 149h99q4 29 6 68q-70 -4 -104 -12q18 48 18 102q0 52 -18 98q35 -7 113 -11v18q2 87 2 137q0 258 -17 399h-99q16 81 16 150q0 70 -16 151
q68 -15 412 -15q351 0 487 15q-14 -70 -14 -200q0 -132 14 -200q-81 15 -150 15t-150 -15v99h-199q-15 -68 -15 -149q0 -82 15 -150q69 -14 208 -14q135 0 191 14q-14 -42 -14 -108q0 -64 14 -92q-77 16 -200 16q-122 0 -199 -16q-6 -28 -10 -58q165 3 210 14
q-14 -42 -14 -108q0 -64 14 -92q-54 13 -211 15z" />
    <glyph glyph-name="lira" unicode="&#x20a4;" horiz-adv-x="1200" 
d="M415 809q0 -151 -7 -309h292v101q69 -15 150 -15t150 15q-14 -69 -14 -200q0 -132 14 -200q-119 12 -376 12q-96 0 -212 -2q-329 0 -412 -16q16 80 16 150q0 69 -16 149h106q8 160 10 312q-79 -4 -116 -12q18 48 18 102q0 52 -18 98q36 -7 116 -11q-2 185 -15 316
q57 28 183 193q52 68 76 108q35 -9 183 -9t197 9q104 -141 260 -250v-150q-79 13 -148 13q-57 0 -152 -13v99q-13 -1 -189 -6h-32q-60 0 -79 6q10 -151 14 -318q143 2 185 13q-14 -42 -14 -108q0 -64 14 -92q-49 12 -184 15z" />
    <glyph glyph-name="peseta" unicode="&#x20a7;" horiz-adv-x="1198" 
d="M400 1293q6 -83 6 -131t-6 -118q33 10 103 10q66 0 96 -7q47 47 100 47l-8 64q2 10 8 76q-9 0 -30 15l-40 30q-20 14 -29 14q0 -1 -123 -6h-21q-39 0 -56 6zM114 739v18q2 87 2 137q0 258 -17 399h-99q16 81 16 150q0 70 -16 151q102 -19 353 -19q224 0 346 15
q86 -98 300 -246q-10 -24 -10 -139q0 -206 14 -247q-120 -47 -253 -111q-51 -25 -51 -53q-49 13 -148 13q-100 0 -151 -13q3 -20 4 -57q152 2 195 13q-14 -42 -14 -108q0 -64 14 -92q-52 12 -198 15q-1 -45 -1 -71h99q-13 -69 -13 -149q0 -81 13 -150q-89 28 -232 28
q-138 0 -267 -28q16 80 16 150q0 69 -16 149h99q4 29 6 68q-70 -4 -105 -12q18 48 18 102q0 52 -18 98q35 -7 114 -11z" />
    <glyph glyph-name="Euro" unicode="&#x20ac;" horiz-adv-x="1200" 
d="M409 664q-4 -107 -13 -165q34 12 147 12q106 0 153 -12v101q75 -17 136 -17q50 0 164 17q4 -66 4 -110q0 -38 -4 -40q-58 -40 -175 -159q-48 -49 -85 -91q-159 16 -227 16q-73 0 -153 -16q-36 109 -259 299q7 73 11 162q-75 -4 -111 -12q18 48 18 102q0 52 -18 98
q36 -7 116 -11v123q-79 -4 -116 -12q18 48 18 102q0 52 -18 98q34 -7 111 -10q-4 87 -11 159q57 28 183 193q52 68 76 108q35 -9 183 -9t197 9q104 -141 260 -250v-150q-79 13 -148 13q-57 0 -152 -13v99q-13 -1 -189 -6h-32q-60 0 -79 6q5 -79 9 -162q148 2 191 13
q-14 -42 -14 -108q0 -64 14 -92q-50 12 -186 15q1 -63 1 -128q143 3 185 13q-14 -42 -14 -108q0 -64 14 -92q-50 12 -187 15z" />
    <glyph glyph-name="uni2116" unicode="&#x2116;" horiz-adv-x="1351" 
d="M350 1446q8 23 8 78q0 57 -8 73q34 -8 125 -8q90 0 125 8q-8 -39 -8 -76t8 -75h-51q-5 -53 -6 -123q-1 -24 -1 -76q0 -130 7 -200h51q-8 -37 -8 -75q0 -37 8 -75q-46 14 -92 14q-44 0 -108 -14q-36 114 -143 331q-44 88 -57 89q-4 -24 -4 -120q0 -105 4 -150h50
q-7 -35 -7 -75t7 -75q-45 14 -116 14q-69 0 -134 -14q8 40 8 75t-8 75h50q5 44 7 131q1 44 1 69q0 129 -8 199h-50q8 41 8 75q0 35 -8 76q34 -8 100 -8t100 8q13 -59 138 -279q48 -85 62 -101q9 29 9 135q0 68 -4 92q-11 10 -31 10q-17 0 -24 -8zM700 1049q8 81 8 200
q0 120 -8 200q29 14 92 96q26 34 38 54q17 -4 91 -4t99 4q52 -70 130 -125q-4 -13 -6 -156l-1 -107q0 -171 7 -186q-29 -20 -88 -80q-24 -24 -42 -45q-80 8 -114 8q-36 0 -76 -8q-18 54 -130 149zM935 1056q25 0 65 -4q-2 65 -5 200q2 72 3 143l2 59q-24 0 -79 -6
q-28 2 -58 4q4 -56 7 -200q-2 -27 -7 -200q21 0 72 4z" />
    <glyph glyph-name="trademark" unicode="&#x2122;" horiz-adv-x="1500" 
d="M600 1397q-39 3 -78 3q-45 0 -72 -3v49h-76q-7 -39 -7 -170q0 -77 4 -176q2 -46 3 -53h50q-7 -35 -7 -75t7 -75q-40 8 -125 8t-125 -8q8 39 8 75t-8 75h50q6 30 7 120q1 27 1 76q0 163 -8 203h-74v-49q-22 4 -63 4q-51 0 -87 -4q8 40 8 100q0 59 -8 100q50 -11 161 -11
q95 0 139 11q50 -11 148 -11q120 0 152 11q-8 -39 -8 -100q0 -63 8 -100zM1000 1399l44 64q56 83 56 136q34 -7 100 -7t100 7q-7 -38 -7 -75t7 -75h-50q-5 -53 -7 -124v-76q0 -129 7 -200h50q-7 -37 -7 -74q0 -38 7 -75q-46 14 -116 14q-69 0 -134 -14q8 40 8 75q0 34 -8 74
h50q3 33 3 131q0 103 -3 139q-20 -9 -48 -45q-12 -15 -26 -35l-26 -40q-27 46 -43 69q-35 50 -56 51q-5 -23 -5 -120q0 -105 5 -150h49q-6 -34 -6 -74q0 -41 6 -75q-44 14 -116 14q-69 0 -133 -14q8 40 8 75q0 34 -8 74h49q6 45 8 132q1 43 1 68q0 129 -9 200h-49q8 40 8 75
t-8 75q34 -7 100 -7q65 0 100 7q0 -33 38 -104q32 -60 61 -96z" />
    <glyph glyph-name="partialdiff" unicode="&#x2202;" horiz-adv-x="1650" 
d="M0 200v1100q0 200 200 200h1100q200 0 200 -200v-1100q0 -200 -200 -200h-1100q-200 0 -200 200zM1475 201v1099q0 175 -175 175h-1100q-174 0 -175 -175v-1100q1 -175 175 -175h1101q174 0 174 176z" />
    <glyph glyph-name="Delta" unicode="&#x2206;" horiz-adv-x="1650" 
d="M0 200v1100q0 200 200 200h1100q200 0 200 -200v-1100q0 -200 -200 -200h-1100q-200 0 -200 200zM1475 201v1099q0 175 -175 175h-1100q-174 0 -175 -175v-1100q1 -175 175 -175h1101q174 0 174 176z" />
    <glyph glyph-name="product" unicode="&#x220f;" horiz-adv-x="1650" 
d="M0 200v1100q0 200 200 200h1100q200 0 200 -200v-1100q0 -200 -200 -200h-1100q-200 0 -200 200zM1475 201v1099q0 175 -175 175h-1100q-174 0 -175 -175v-1100q1 -175 175 -175h1101q174 0 174 176z" />
    <glyph glyph-name="summation" unicode="&#x2211;" horiz-adv-x="1650" 
d="M0 200v1100q0 200 200 200h1100q200 0 200 -200v-1100q0 -200 -200 -200h-1100q-200 0 -200 200zM1475 201v1099q0 175 -175 175h-1100q-174 0 -175 -175v-1100q1 -175 175 -175h1101q174 0 174 176z" />
    <glyph glyph-name="minus" unicode="&#x2212;" horiz-adv-x="798" 
d="M0 794q18 48 18 102q0 52 -18 98q69 -14 307 -14q236 0 292 14q-14 -42 -14 -108q0 -64 14 -92q-68 16 -300 16q-227 0 -299 -16z" />
    <glyph glyph-name="approxequal" unicode="&#x2248;" horiz-adv-x="1650" 
d="M0 200v1100q0 200 200 200h1100q200 0 200 -200v-1100q0 -200 -200 -200h-1100q-200 0 -200 200zM1475 201v1099q0 175 -175 175h-1100q-174 0 -175 -175v-1100q1 -175 175 -175h1101q174 0 174 176z" />
    <glyph glyph-name="lessequal" unicode="&#x2264;" horiz-adv-x="1650" 
d="M0 200v1100q0 200 200 200h1100q200 0 200 -200v-1100q0 -200 -200 -200h-1100q-200 0 -200 200zM1475 201v1099q0 175 -175 175h-1100q-174 0 -175 -175v-1100q1 -175 175 -175h1101q174 0 174 176z" />
    <glyph glyph-name="greaterequal" unicode="&#x2265;" horiz-adv-x="1650" 
d="M0 200v1100q0 200 200 200h1100q200 0 200 -200v-1100q0 -200 -200 -200h-1100q-200 0 -200 200zM1475 201v1099q0 175 -175 175h-1100q-174 0 -175 -175v-1100q1 -175 175 -175h1101q174 0 174 176z" />
    <glyph glyph-name="uniF001" unicode="&#xf001;" horiz-adv-x="1073" 
 />
    <glyph glyph-name="uniF001" unicode="&#xfb01;" horiz-adv-x="1073" 
 />
    <glyph glyph-name="uniF002" unicode="&#xf002;" horiz-adv-x="1081" 
 />
    <glyph glyph-name="uniF002" unicode="&#xfb02;" horiz-adv-x="1081" 
 />
    <glyph glyph-name="OE" unicode="&#x152;" horiz-adv-x="1864" 
d="M719 355q-10 120 -10 431q0 388 10 528h-8q-22 0 -100 -3l-121 -5q-24 -1 -44 -1q-61 0 -86 9q15 -224 15 -570q0 -288 -15 -389q44 14 179 14q128 0 180 -14zM882 4l94 -141l-203 138h-3q-61 -2 -96 -6l-206 -138l106 158q-25 1 -48 1q-104 0 -192 -17l-206 -137
l141 211q-55 78 -199 218l-202 -134l132 198q10 101 18 389l-243 48l243 49q0 295 -18 473l-130 191l200 -134q93 92 195 234l-135 204l211 -142q40 -4 168 -4h49l-84 125l186 -123q74 3 107 9l199 133l-104 -157q27 -1 58 -1q28 -1 90 -2l47 236l48 -236q300 0 490 12
l203 136l-133 -200q-9 -77 -9 -175q0 -74 7 -158l141 -212l-211 142q-58 6 -132 9h-6q-17 0 -72 -4l-212 -141l142 212l2 -2v40h-237q-9 -128 -12 -305q4 -27 10 -55q89 -18 249 -18q82 0 146 6l211 141l-141 -211q-2 -25 -2 -78l145 -208l-205 139q-67 7 -168 7
q-148 0 -235 -18q-6 -30 -11 -60q1 -183 6 -272q2 -13 5 -27h239v40l-142 212l212 -143q51 -8 110 -8q45 0 88 6l212 143l-130 -194q-9 -72 -9 -164q0 -89 11 -191l130 -196l-212 141q-182 13 -480 13l-48 -236l-47 236q-35 0 -81 -1z" />
    <glyph glyph-name="oe" unicode="&#x153;" horiz-adv-x="1601" 
d="M470 508q50 0 130 -8q-5 130 -10 400q3 143 5 285l5 119q-49 0 -159 -13q-56 4 -116 9q8 -112 15 -400q-5 -54 -15 -400q43 0 145 8zM502 207q-56 4 -90 4q-73 0 -153 -16q-36 109 -259 299q16 161 16 400q0 240 -16 399q57 28 183 193q52 68 76 108q35 -9 183 -9h60
q-1 5 -2 9q19 -4 58 -7q55 2 81 7q4 -6 9 -12q101 -3 264 -3q351 0 487 15q-14 -70 -14 -200q0 -132 14 -200q-81 15 -150 15t-150 -15v99h-199q-5 -21 -8 -43q-2 -68 -4 -181q4 -40 12 -75q69 -14 208 -14q135 0 191 14q-14 -42 -14 -108q0 -64 14 -92q-77 16 -200 16
q-122 0 -199 -16q-10 -46 -13 -99q0 -77 2 -130q4 -37 11 -71h199v101q69 -15 150 -15t150 15q-14 -69 -14 -200q0 -132 14 -200q-163 16 -487 16q-160 0 -262 -4q-6 -6 -11 -12q-42 4 -78 7q-39 -3 -61 -7z" />
    <glyph glyph-name="perthousand" unicode="&#x2030;" horiz-adv-x="2301" 
d="M470 1113q50 0 130 -8l-10 99l5 -13l5 119q-49 0 -159 -13q-56 4 -116 9l15 -102q-5 -54 -15 -99q43 0 145 8zM1120 513q50 0 130 -8l-10 99l5 -13l5 119q-49 0 -159 -13q-56 4 -116 9l15 -102q-5 -54 -15 -99q43 0 145 8zM665 607q-68 -78 -90 -108h75q16 10 16 99z
M890 1298q-5 -41 -11 -112l1 -5q78 94 94 117h-84zM1676 511q50 0 130 -8l-10 99l5 -13l5 119q-49 0 -159 -13q-56 4 -116 9l15 -102q-5 -54 -15 -99q43 0 145 8zM1395 312l-21 -21q-48 -49 -85 -91q-159 16 -227 16q-73 0 -153 -16q-34 104 -238 281q-10 -61 -10 -131
q0 -81 13 -150q-89 28 -232 28q-138 0 -267 -28q16 80 16 150q0 69 -16 149h99q90 69 266 275q13 15 28 33q-104 9 -156 9q-73 0 -153 -16q-36 109 -259 299q16 10 16 99l-16 101q57 28 183 193q52 68 76 108q35 -9 183 -9t197 9q99 -134 245 -239q6 45 6 87q0 70 -16 151
q114 -27 267 -27t233 27q-15 -77 -15 -151t15 -150h-101q-62 -59 -276 -306q39 -1 95 -1q148 0 197 9q69 -93 130 -153l134 143q39 -1 95 -1q148 0 197 9q104 -141 260 -250q-8 -26 -20 -164l7 -64q0 -41 13 -72q-58 -40 -175 -159q-48 -49 -85 -91q-159 16 -227 16
q-73 0 -153 -16q-16 49 -70 114z" />
  </font>
</defs>
</svg>
